<svg width="19" height="14" viewBox="0 0 19 14" fill="none" xmlns="http://www.w3.org/2000/svg">
<path d="M2.22967 14C1.75401 14 1.34696 13.8288 1.00852 13.4864C0.670085 13.144 0.500577 12.7318 0.5 12.25V1.75C0.5 1.26875 0.669508 0.856916 1.00852 0.5145C1.34754 0.172083 1.75459 0.000583333 2.22967 0H6.70521C6.93583 0 7.15579 0.0437501 7.36508 0.13125C7.57437 0.21875 7.758 0.342708 7.91598 0.503125L9.14837 1.75H16.9319C17.1769 1.75 17.3825 1.834 17.5485 2.002C17.7146 2.17 17.7973 2.37767 17.7967 2.625C17.7967 2.87292 17.7137 3.08087 17.5477 3.24887C17.3816 3.41687 17.1764 3.50058 16.9319 3.5H5.5593C4.66563 3.5 3.88728 3.78437 3.22424 4.35312C2.5612 4.92187 2.22967 5.64375 2.22967 6.51875V12.25L3.93773 6.49687C4.05304 6.11771 4.26579 5.81525 4.57598 5.5895C4.88617 5.36375 5.22835 5.25058 5.60254 5.25H16.7589C17.3499 5.25 17.8149 5.48712 18.1539 5.96137C18.4929 6.43562 18.5829 6.94954 18.4237 7.50312L16.867 12.7531C16.7517 13.1323 16.5393 13.435 16.2297 13.6614C15.92 13.8877 15.5776 14.0006 15.2022 14H2.22967Z" fill="#F89133"/>
</svg>
