<svg width="25" height="25" viewBox="0 0 25 25" fill="none" xmlns="http://www.w3.org/2000/svg">
<path d="M6.125 1C5.56141 1 5.02091 1.23178 4.6224 1.64437C4.22388 2.05694 4 2.61652 4 3.2V20.8C4 21.3835 4.22388 21.9431 4.6224 22.3556C5.02091 22.7682 5.56141 23 6.125 23H18.875C19.4386 23 19.9791 22.7682 20.3776 22.3556C20.7761 21.9431 21 21.3835 21 20.8V7.6L14.625 1H6.125ZM6.125 3.2H13.5625V8.7H18.875V20.8H6.125V3.2ZM8.25 12V14.2H16.75V12H8.25ZM8.25 16.4V18.6H13.5625V16.4H8.25Z" fill="#C6DCE9"/>
</svg>
