<?xml version="1.0" encoding="UTF-8" standalone="no"?>
<!-- Created with Inkscape (http://www.inkscape.org/) -->

<svg
   width="2em"
   height="2em"
   viewBox="0 0 150.87886 152.34483"
   version="1.1"
   id="svg5659"
   inkscape:export-filename="monkey.svg"
   inkscape:export-xdpi="96"
   inkscape:export-ydpi="96"
   xmlns:inkscape="http://www.inkscape.org/namespaces/inkscape"
   xmlns:sodipodi="http://sodipodi.sourceforge.net/DTD/sodipodi-0.dtd"
   xmlns="http://www.w3.org/2000/svg"
   xmlns:svg="http://www.w3.org/2000/svg">
  <sodipodi:namedview
     id="namedview5661"
     pagecolor="#505050"
     bordercolor="#eeeeee"
     borderopacity="1"
     inkscape:showpageshadow="0"
     inkscape:pageopacity="0"
     inkscape:pagecheckerboard="0"
     inkscape:deskcolor="#505050"
     inkscape:document-units="mm"
     showgrid="false" />
  <defs
     id="defs5656" />
  <g
     inkscape:label="Layer 1"
     inkscape:groupmode="layer"
     id="layer1"
     transform="translate(-29.531626,-63.550139)">
    <g
       id="g179"
       transform="translate(-0.39577241,14.910156)">
      <path
         d="m 74.390643,130.52891 c -1.194052,-0.31466 -2.963649,-1.07013 -3.932445,-1.67882 -0.968792,-0.6087 -2.2197,-1.70923 -2.779793,-2.44562 -0.560092,-0.73641 -1.018352,-1.79203 -1.018352,-2.34584 0,-0.55382 0.396565,-1.46473 0.881252,-2.02424 0.484692,-0.55953 2.185614,-1.72293 3.779829,-2.58535 1.594214,-0.86242 4.363553,-2.0156 6.154086,-2.56263 1.79053,-0.54703 4.818919,-1.29445 6.729752,-1.66093 1.910833,-0.36647 5.584843,-0.68715 8.164467,-0.71261 4.044937,-0.0399 4.88142,0.064 6.079922,0.75519 1.288888,0.74334 1.383929,0.91279 1.310174,2.3359 -0.04373,0.84394 -0.506888,2.44087 -1.029226,3.54876 -0.522342,1.10788 -1.715306,2.80893 -2.651033,3.78012 -0.935728,0.97119 -2.693253,2.3123 -3.905614,2.98023 -1.212357,0.66794 -3.423108,1.58197 -4.912776,2.0312 -1.658363,0.50009 -4.257568,0.88268 -6.703868,0.98677 -2.705784,0.11513 -4.696114,-0.0147 -6.166375,-0.40213 z"
         style="fill:#505868;fill-opacity:1;stroke-width:0.373281"
         id="path4572" />
      <path
         style="fill:#e6e6e6;fill-opacity:1;stroke-width:0.320848"
         d="m 68.073481,200.7058 c -1.676433,-0.13107 -3.672928,-0.4912 -4.436653,-0.80029 -0.844082,-0.34162 -1.500242,-0.85564 -1.673314,-1.31086 -0.278779,-0.73324 -0.387033,-0.7509 -5.188799,-0.8465 -4.904078,-0.0976 -4.904078,-0.0976 0.149284,-0.16884 3.111328,-0.0438 5.053363,-0.19465 5.053363,-0.39241 0,-0.17666 0.597188,-0.90076 1.327083,-1.6091 0.729898,-0.70834 2.532267,-2.01586 4.005266,-2.90559 1.473002,-0.88973 3.893011,-2.18698 5.377798,-2.88278 1.48479,-0.69579 2.894916,-1.26417 3.133611,-1.26305 0.238698,9.6e-4 0.678905,0.43244 0.978238,0.9585 0.299332,0.52606 1.74315,1.735 3.208484,2.68654 1.465334,0.95154 3.741448,2.26993 5.058037,2.92977 1.316588,0.65985 2.963923,1.40087 3.660748,1.64672 1.157625,0.40844 1.385661,0.38955 2.642549,-0.2189 0.899656,-0.43552 1.797769,-0.62202 2.595792,-0.53904 1.220203,0.12687 1.220203,0.12687 -0.09294,0.1808 -0.722226,0.0297 -1.894982,0.3788 -2.606123,0.77585 -0.711138,0.39705 -1.780616,1.10506 -2.376614,1.57335 -0.595998,0.46829 -1.877733,1.08709 -2.8483,1.3751 -0.970566,0.28801 -3.930392,0.65909 -6.577392,0.82464 -2.646999,0.16554 -5.606825,0.28375 -6.577392,0.26268 -0.970566,-0.021 -3.136293,-0.14553 -4.812726,-0.27659 z m 6.532008,-29.00114 c -0.709017,-0.31364 -1.12603,-0.80371 -1.406159,-1.65251 -0.255267,-0.77347 -0.328838,-2.02249 -0.204936,-3.47925 0.10631,-1.24993 0.608528,-3.64423 1.116036,-5.32067 0.507508,-1.67643 1.395893,-4.17725 1.974183,-5.55737 0.578291,-1.38012 1.502944,-3.17929 2.054787,-3.99815 0.551843,-0.81886 1.747832,-2.09263 2.657751,-2.8306 0.90992,-0.73797 2.437816,-1.63488 3.395324,-1.99313 0.957508,-0.35825 2.306566,-0.74544 2.997901,-0.86042 0.915978,-0.15235 1.126416,-0.11863 0.775706,0.12428 -0.338129,0.2342 -0.461069,0.81575 -0.413349,1.95526 0.03736,0.89205 0.369268,2.30315 0.737579,3.13578 0.368315,0.83263 0.952865,1.81534 1.299006,2.18379 0.627458,0.66789 0.6268,0.67127 -0.219033,1.12395 -0.466614,0.24972 -1.634293,1.32169 -2.594846,2.38214 -1.273839,1.40633 -2.360196,3.1871 -4.014365,6.58041 -1.24735,2.55877 -2.671862,5.24396 -3.16559,5.96711 -0.493725,0.72314 -1.251771,1.54681 -1.684544,1.83038 -0.432776,0.28356 -1.126762,0.59191 -1.542193,0.68522 -0.415431,0.0933 -1.208896,-0.031 -1.763258,-0.27622 z m -1.288841,-35.63244 c -1.263222,-0.22922 -3.067994,-0.66728 -4.010605,-0.97345 -0.942608,-0.30618 -2.813825,-1.12249 -4.15826,-1.81404 -1.464682,-0.75339 -3.180551,-1.98763 -4.281032,-3.07937 -1.010133,-1.00211 -2.115003,-2.36772 -2.45527,-3.0347 -0.340266,-0.66697 -0.850835,-2.11486 -1.1346,-3.21752 -0.418145,-1.62483 -0.467271,-2.73462 -0.259184,-5.85502 0.141211,-2.1176 0.231469,-4.49989 0.200572,-5.29399 -0.04169,-1.07162 -0.712781,-2.80855 -2.603242,-6.73782 -1.400885,-2.9117 -2.718784,-6.106584 -2.928662,-7.099744 -0.215759,-1.020985 -0.286061,-2.442831 -0.161766,-3.271688 0.120907,-0.806266 0.652694,-2.332176 1.181749,-3.390909 0.585446,-1.171581 1.655327,-2.558705 2.733638,-3.54422 1.257411,-1.149205 2.282127,-1.767634 3.529993,-2.130398 1.222246,-0.355317 2.258128,-0.442395 3.3979,-0.285638 0.901793,0.12403 3.553046,0.858427 5.891669,1.631992 2.350695,0.77756 4.864389,1.406487 5.621446,1.406487 0.75317,0 1.998042,-0.304318 2.766381,-0.676265 0.768339,-0.371947 2.806397,-2.079784 4.529019,-3.795194 2.160121,-2.15108 3.722547,-3.407836 5.034978,-4.049947 1.35457,-0.662732 2.5141,-0.965555 4.023801,-1.050859 1.166473,-0.06591 2.901801,0.04246 3.85628,0.240819 0.954476,0.198365 2.472076,0.702168 3.372438,1.119562 0.900364,0.417395 2.182196,1.304069 2.848519,1.970391 0.66631,0.666319 1.6227,2.090572 2.1253,3.165006 0.52351,1.119145 1.06997,3.049825 1.27942,4.520305 0.21614,1.51742 0.2913,4.289859 0.18384,6.781481 -0.10692,2.479179 -0.0473,4.701559 0.14469,5.397049 0.17956,0.6503 1.04119,2.2772 1.91474,3.61534 0.87354,1.33815 1.82588,3.24093 2.11629,4.22841 0.32947,1.12025 0.51968,2.88129 0.50583,4.68305 -0.0153,1.9884 -0.23147,3.5494 -0.6942,5.01271 -0.36961,1.16879 -1.36929,3.19013 -2.22152,4.49188 -0.85223,1.30173 -2.16433,2.91943 -2.91578,3.59488 -0.75145,0.67544 -2.32803,1.84359 -3.503514,2.59588 -1.175486,0.75229 -3.220108,1.80915 -4.543608,2.34857 -1.323499,0.53942 -3.633608,1.27986 -5.133574,1.64543 -1.499966,0.36556 -3.950667,0.81351 -5.446007,0.99544 -1.495336,0.18193 -4.022018,0.31775 -5.614847,0.30182 -1.592826,-0.0159 -3.929597,-0.21651 -5.192822,-0.44573 z m 13.140137,-8.15779 c 1.375718,-0.35938 3.41736,-1.0906 4.53698,-1.62495 1.119623,-0.53434 2.742708,-1.60722 3.606859,-2.38416 0.86415,-0.77695 1.96586,-2.13778 2.448246,-3.02408 0.482383,-0.8863 0.910106,-2.16384 0.950497,-2.83898 0.06811,-1.13848 -0.01967,-1.27404 -1.209954,-1.86871 -1.106824,-0.55298 -1.879322,-0.63609 -5.614847,-0.60415 -2.382299,0.0204 -5.775271,0.27691 -7.539937,0.57009 -1.764667,0.29318 -4.561403,0.89111 -6.214969,1.32873 -1.653569,0.43762 -4.211071,1.36016 -5.683338,2.05009 -1.472268,0.68993 -3.04308,1.62064 -3.490696,2.06826 -0.447612,0.44761 -0.813842,1.17633 -0.813842,1.61938 0,0.44305 0.423206,1.28754 0.940455,1.87666 0.517249,0.58911 1.672471,1.46953 2.567156,1.95648 0.894689,0.48695 2.528924,1.09132 3.631638,1.34305 1.357796,0.30996 3.195878,0.41379 5.694687,0.3217 2.259174,-0.0833 4.659556,-0.38934 6.191065,-0.78941 z m -43.928394,-2.90168 c -0.550103,-0.13133 -1.662716,-0.5595 -2.472475,-0.9515 -0.809757,-0.39199 -1.932618,-1.23701 -2.495245,-1.87781 -0.562626,-0.64079 -1.319896,-1.82213 -1.68282,-2.6252 -0.48401,-1.071 -0.663153,-2.14416 -0.67221,-4.0269 -0.0099,-2.05521 0.13027,-2.83487 0.703213,-3.91181 0.393558,-0.73976 1.223151,-1.73218 1.843539,-2.20537 0.678875,-0.5178 1.695597,-0.92433 2.55362,-1.02104 1.298438,-0.14635 1.441169,-0.0927 1.599673,0.60113 0.09572,0.419 0.524835,2.27782 0.953592,4.13072 0.428757,1.8529 1.213151,4.74054 1.743097,6.41697 0.529945,1.67643 1.10438,3.57956 1.276521,4.22918 0.252199,0.95173 0.220625,1.21656 -0.162575,1.3636 -0.261557,0.10037 -0.8608,0.16771 -1.33165,0.14965 -0.470851,-0.0181 -1.306177,-0.14029 -1.85628,-0.27162 z m 74.501939,-20.91263 c -0.0786,-0.2421 -0.3699,-2.53371 -0.64742,-5.092476 -0.27752,-2.558766 -0.85762,-6.096119 -1.28911,-7.860786 -0.73333,-2.999098 -0.74898,-3.235579 -0.23985,-3.623674 0.29957,-0.228355 1.32282,-0.641505 2.27389,-0.918111 0.95106,-0.27661 2.63367,-0.497707 3.73913,-0.491328 1.15117,0.0066 2.414,0.220551 2.95567,0.500661 0.52016,0.268987 1.38217,0.986125 1.91558,1.593638 0.56397,0.642326 1.13811,1.806066 1.37196,2.780851 0.22117,0.921952 0.33081,2.564718 0.24365,3.650584 -0.0973,1.212628 -0.4734,2.595773 -0.97477,3.585176 -0.44896,0.885981 -1.48973,2.231635 -2.31284,2.990345 -0.8231,0.7587 -2.25278,1.72569 -3.17708,2.14884 -0.92429,0.42316 -2.1385,0.86097 -2.69825,0.97292 -0.71939,0.14388 -1.05959,0.0745 -1.16056,-0.23664 z"
         id="path187"
         sodipodi:nodetypes="sssscsssscssssssssssscsssssssssssssssssssssssssssssssssssssssssssssssscsssssssssssssssssscsssssssscsssssssssssssscscsssscssscssssc" />
      <path
         style="fill:#939cac;fill-opacity:1;stroke-width:0.320848"
         d="m 111.80295,197.50816 c -0.91882,-0.13609 -2.62427,-0.69372 -3.78989,-1.23918 -1.32794,-0.62142 -2.90257,-1.74337 -4.21687,-3.00459 -1.15365,-1.10706 -2.78564,-3.13027 -3.62665,-4.49603 -1.529092,-2.4832 -1.529092,-2.4832 -2.64645,-0.80034 -0.614546,0.92558 -1.368116,2.1874 -1.6746,2.80405 -0.306481,0.61665 -1.158635,2.02735 -1.893673,3.13489 -0.936178,1.41061 -1.729492,2.20452 -2.648835,2.65083 -1.192099,0.57873 -1.428532,0.59616 -2.579355,0.19012 -0.696825,-0.24585 -2.34416,-0.98687 -3.660748,-1.64672 -1.316589,-0.65984 -3.592703,-1.97823 -5.058037,-2.92977 -1.465334,-0.95154 -2.909152,-2.16048 -3.208484,-2.68654 -0.299333,-0.52606 -0.688624,-0.9596 -0.865091,-0.96342 -0.2139,-0.005 -0.2139,-0.0855 0,-0.24266 0.176467,-0.12965 0.589572,-0.95763 0.918015,-1.83997 0.328439,-0.88233 1.102759,-3.26042 1.72071,-5.28464 0.61795,-2.02423 1.989757,-5.99001 3.048454,-8.81284 1.0587,-2.82284 2.480129,-6.30108 3.158736,-7.72943 0.678608,-1.42835 1.835013,-3.27998 2.569791,-4.11473 0.734775,-0.83474 1.931995,-1.82798 2.660487,-2.20718 1.004927,-0.5231 2.068757,-0.72199 4.408826,-0.82426 2.269881,-0.0992 3.583056,0.008 4.973151,0.40727 1.038873,0.29813 2.538573,0.91528 3.332673,1.37143 0.7941,0.45616 2.30609,1.4886 3.35998,2.2943 1.05388,0.80571 3.9135,3.39163 6.35469,5.7465 2.59454,2.50279 4.99759,4.53538 5.7842,4.8925 0.74012,0.33601 1.82147,0.6141 2.40301,0.61798 0.71378,0.005 1.32488,-0.26049 1.88073,-0.81634 0.666,-0.666 0.7846,-1.01737 0.62043,-1.8382 -0.11163,-0.55814 -0.73635,-1.56105 -1.38827,-2.22867 -0.65192,-0.66763 -3.78922,-2.90855 -6.97177,-4.97983 -3.18255,-2.07129 -7.52592,-4.64347 -9.65194,-5.71596 -2.12601,-1.0725 -4.86927,-2.21028 -6.09612,-2.52841 -1.22685,-0.31813 -3.733924,-0.63056 -5.571275,-0.69429 -2.469214,-0.0856 -3.486737,-0.24809 -3.900724,-0.62274 -0.308047,-0.27878 -0.86804,-1.22272 -1.244424,-2.09766 -0.376387,-0.87493 -0.714597,-2.31363 -0.751578,-3.19711 -0.04745,-1.13345 0.07444,-1.69742 0.414033,-1.91575 0.2647,-0.17019 1.0588,-0.47129 1.764666,-0.66913 0.787375,-0.22067 2.461437,-0.28692 4.331453,-0.17139 1.676433,0.10357 3.914351,0.41717 4.973151,0.6969 1.058798,0.27972 3.152338,1.01689 4.652298,1.63815 1.49997,0.62126 2.93098,1.21585 3.18003,1.32132 0.24904,0.10546 -0.35831,-0.79161 -1.34968,-1.9935 -0.99138,-1.20189 -2.10862,-2.8365 -2.48278,-3.63248 -0.37415,-0.79597 -0.82852,-2.28881 -1.0097,-3.31741 -0.32942,-1.87018 -0.32942,-1.87018 -1.6598,-1.09369 -0.731701,0.42707 -2.473137,1.23285 -3.869855,1.79062 -1.396717,0.55777 -3.923398,1.38558 -5.614847,1.83959 -2.870627,0.77051 -3.614694,0.8304 -11.176782,0.89962 -4.455783,0.0408 -8.101422,-0.0402 -8.101422,-0.17996 0,-0.13976 -0.53798,-0.35505 -1.195507,-0.4784 -0.657528,-0.12335 -2.354014,-0.58971 -3.769969,-1.03636 -1.415955,-0.44664 -3.657325,-1.35916 -4.980825,-2.0278 -1.323499,-0.66865 -3.458139,-1.95822 -4.743644,-2.86571 -1.285505,-0.90748 -3.322014,-2.57892 -4.525579,-3.7143 -2.1883,-2.06433 -2.1883,-2.06433 -5.844354,-2.2039 -2.01083,-0.0768 -4.522345,-0.37218 -5.581144,-0.65648 -1.0588,-0.2843 -2.690425,-0.88767 -3.625834,-1.34083 -0.935409,-0.45315 -2.379226,-1.50333 -3.208484,-2.33373 -0.829257,-0.8304 -1.906173,-2.32594 -2.393146,-3.32342 -0.486972,-0.99748 -1.117956,-2.72134 -1.402186,-3.83079 -0.376503,-1.46964 -0.474122,-2.88867 -0.359628,-5.22771 0.109283,-2.23258 0.373567,-3.77564 0.867632,-5.06577 0.390764,-1.02038 1.167602,-2.44943 1.726306,-3.17566 0.558705,-0.72624 1.762445,-1.73975 2.67498,-2.25225 1.070262,-0.60109 2.371491,-1.01132 3.666109,-1.15579 2.006956,-0.22396 2.006956,-0.22396 2.109958,-3.913714 0.05665,-2.029366 0.336257,-5.061384 0.621345,-6.737817 0.285088,-1.676433 0.926029,-4.296381 1.424313,-5.822108 0.498285,-1.525727 1.476868,-3.908027 2.174629,-5.293999 0.697761,-1.385972 1.910115,-3.38624 2.694118,-4.44504 0.784004,-1.0588 2.275088,-2.771065 3.313521,-3.805033 1.038433,-1.033968 2.686782,-2.493901 3.662999,-3.244295 0.976216,-0.750395 2.785611,-1.985337 4.020878,-2.744317 1.235266,-0.758981 3.271203,-1.856261 4.524302,-2.4384 1.253099,-0.58214 3.418826,-1.434104 4.812726,-1.893254 1.393901,-0.45915 3.905989,-1.14037 5.582422,-1.513824 2.447313,-0.54518 4.154698,-0.681593 8.662907,-0.692131 4.140199,-0.0097 6.36262,0.136535 8.462056,0.556715 1.565965,0.313412 4.020455,0.938313 5.454423,1.388668 1.433967,0.450355 3.762272,1.368469 5.174002,2.040254 1.41173,0.671784 3.64965,1.936921 4.97315,2.811416 1.3235,0.874494 3.32168,2.39211 4.44039,3.372478 1.11871,0.980368 2.8956,2.767815 3.94864,3.972105 1.05303,1.204289 2.43442,3.055909 3.06976,4.114708 1.15515,1.925091 1.15515,1.925091 3.75172,1.941926 1.98692,0.01287 2.98934,0.190484 4.2694,0.756419 0.96746,0.427726 2.2958,1.405582 3.15024,2.319044 0.81257,0.868707 1.80962,2.333091 2.21568,3.254189 0.40605,0.921098 0.9737,2.713896 1.26143,3.984 0.28774,1.270101 0.52316,3.513778 0.52316,4.985952 0,1.472171 -0.22269,3.537206 -0.49486,4.588968 -0.27217,1.05176 -0.95799,2.68708 -1.52403,3.63405 -0.56605,0.94697 -1.74022,2.34736 -2.60928,3.11198 -0.86906,0.76462 -2.42117,1.78965 -3.44912,2.27784 -1.42465,0.67659 -1.86901,1.05188 -1.86901,1.57851 0,0.37998 -0.21525,1.9252 -0.47833,3.43382 -0.26308,1.50862 -0.86343,3.78187 -1.3341,5.05168 -0.47068,1.26981 -1.56155,3.38988 -2.42416,4.71128 -0.86262,1.32139 -2.96943,3.85243 -4.68181,5.62454 -1.95149,2.01956 -2.95469,3.27764 -2.68811,3.37106 0.23392,0.082 1.49072,1.00612 2.79289,2.05366 1.30217,1.04754 3.14984,2.80055 4.10594,3.89557 0.95609,1.09502 2.41486,3.00162 3.2417,4.23689 0.82684,1.23527 2.0544,3.40186 2.72792,4.81467 0.67351,1.4128 1.66201,3.93948 2.19666,5.61484 0.53465,1.67537 1.35913,4.7787 1.83218,6.8963 0.47306,2.1176 1.11546,5.59854 1.42758,7.73543 0.31211,2.13689 0.68143,4.06962 0.8207,4.29497 0.19137,0.30965 1.04531,0.36361 3.49596,0.22091 1.7835,-0.10385 4.10902,-0.42433 5.16782,-0.71217 1.0588,-0.28783 2.84295,-0.95922 3.96478,-1.49195 1.27763,-0.60672 2.72931,-1.66902 3.88547,-2.84327 1.1019,-1.11914 2.37415,-2.89025 3.15684,-4.39469 0.72109,-1.38602 1.6872,-3.81235 2.14691,-5.39185 0.45971,-1.57949 1.04398,-4.24343 1.29837,-5.91986 0.25439,-1.67643 0.5533,-4.99721 0.66424,-7.37951 0.11376,-2.44255 0.0387,-6.43024 -0.17207,-9.14418 -0.20559,-2.647 -0.59512,-6.25655 -0.86562,-8.02121 -0.27051,-1.76467 -0.77287,-4.32831 -1.11636,-5.69697 -0.3435,-1.36868 -1.54428,-5.1226 -2.66842,-8.34206 -1.12413,-3.21947 -3.44607,-9.75162 -5.15986,-14.515903 -1.71379,-4.764281 -3.74212,-10.843915 -4.5074,-13.5103 -0.76529,-2.666382 -1.61599,-6.131804 -1.89046,-7.700939 -0.27447,-1.569132 -0.49736,-4.585549 -0.49532,-6.703149 0.002,-2.274016 0.19916,-4.679205 0.48114,-5.875281 0.26259,-1.113806 0.92061,-2.918578 1.46228,-4.010605 0.54167,-1.092028 1.58803,-2.769116 2.32526,-3.726864 0.73722,-0.957747 2.27888,-2.518917 3.42592,-3.469266 1.14703,-0.950349 3.24056,-2.298969 4.6523,-2.996934 1.41173,-0.697964 3.57746,-1.480491 4.81272,-1.738949 1.23527,-0.258457 3.48619,-0.472429 5.00204,-0.475493 1.69238,-0.0034 3.69278,0.23399 5.18302,0.615131 1.33481,0.341386 3.12658,0.976395 3.98172,1.411132 0.85514,0.434736 2.37112,1.396639 3.36885,2.137561 0.99772,0.740923 2.53344,2.235545 3.4127,3.321382 0.87926,1.085838 2.0263,2.701497 2.54899,3.590354 0.52268,0.888858 1.27891,2.477058 1.68051,3.529333 0.48762,1.277658 0.74095,2.662474 0.76258,4.168651 0.0268,1.862988 -0.12467,2.57646 -0.87032,4.100513 -0.73336,1.498931 -1.21342,2.023293 -2.55883,2.794929 -1.35023,0.774404 -2.02839,0.950396 -3.67172,0.95285 -1.10858,0.0016 -2.54463,-0.218029 -3.19121,-0.48819 -0.64659,-0.27016 -1.66451,-0.864103 -2.26206,-1.319875 -0.77221,-0.588994 -1.58874,-1.87747 -2.82306,-4.454776 -1.35903,-2.837684 -1.97193,-3.771531 -2.81888,-4.294972 -0.71987,-0.444904 -1.62048,-0.668871 -2.68965,-0.668871 -0.88407,0 -2.11294,0.211227 -2.73082,0.469394 -0.61788,0.258167 -1.58033,0.853856 -2.13877,1.323754 -0.55844,0.469897 -1.32364,1.449819 -1.70044,2.177604 -0.49233,0.950914 -0.72224,2.090623 -0.8171,4.050458 -0.0954,1.971221 0.0598,3.661082 0.56003,6.096119 0.3806,1.8529 1.39255,5.462444 2.24877,8.02121 0.85622,2.558766 2.74251,7.75651 4.19174,11.550543 1.44924,3.794029 3.46844,9.352729 4.48711,12.352659 1.01868,2.99994 2.36595,7.69234 2.99394,10.42758 0.62798,2.73523 1.4333,6.99449 1.78959,9.46502 0.35629,2.47054 0.79765,6.86365 0.9808,9.76248 0.22687,3.59071 0.22965,6.72587 0.009,9.83647 -0.17835,2.51123 -0.6771,6.30166 -1.10832,8.42317 -0.43122,2.12152 -1.29985,5.39878 -1.93028,7.2828 -0.63043,1.88403 -1.82173,4.73336 -2.64732,6.33186 -0.82559,1.5985 -2.31726,4.00155 -3.31483,5.34012 -0.99756,1.33856 -2.54871,3.11585 -3.44699,3.94953 -0.89829,0.83367 -2.72431,2.22802 -4.05784,3.09856 -1.33353,0.87053 -3.40113,1.95018 -4.59467,2.39921 -1.19354,0.44904 -3.32512,1.10565 -4.73686,1.45915 -1.41173,0.3535 -4.27066,0.86577 -6.35319,1.13838 -2.08251,0.27261 -5.06465,0.49565 -6.62697,0.49565 -2.84057,0 -2.84057,0 -3.8311,1.75511 -0.55793,0.98861 -1.692,2.3096 -2.59674,3.02476 -0.88342,0.6983 -2.42286,1.57519 -3.42097,1.94863 -0.99811,0.37344 -2.47833,0.80813 -3.28937,0.96598 -0.81104,0.15785 -2.12433,0.35163 -2.91843,0.43062 -0.7941,0.079 -2.19558,0.0323 -3.1144,-0.10383 z M 84.124317,136.21613 c 1.49534,-0.18193 3.946041,-0.62988 5.446007,-0.99544 1.499966,-0.36557 3.810075,-1.10601 5.133574,-1.64543 1.3235,-0.53942 3.368122,-1.59628 4.543608,-2.34857 1.175484,-0.75229 2.752064,-1.92044 3.503514,-2.59588 0.75145,-0.67545 2.06355,-2.29315 2.91578,-3.59488 0.85223,-1.30175 1.85191,-3.32309 2.22152,-4.49188 0.46273,-1.46331 0.67891,-3.02431 0.6942,-5.01271 0.0139,-1.80176 -0.17636,-3.5628 -0.50583,-4.68305 -0.29041,-0.98748 -1.24275,-2.89026 -2.11629,-4.22841 -0.87355,-1.33814 -1.73518,-2.96504 -1.91474,-3.61534 -0.19203,-0.69549 -0.25161,-2.91787 -0.14469,-5.397049 0.10746,-2.491622 0.0323,-5.264061 -0.18384,-6.781481 -0.20945,-1.47048 -0.75591,-3.40116 -1.27942,-4.520305 -0.5026,-1.074434 -1.45899,-2.498687 -2.1253,-3.165006 -0.666323,-0.666322 -1.948155,-1.552996 -2.848519,-1.970391 -0.900362,-0.417394 -2.417962,-0.921197 -3.372438,-1.119562 -0.954479,-0.198361 -2.689807,-0.306731 -3.85628,-0.240819 -1.509701,0.0853 -2.669231,0.388127 -4.023801,1.050859 -1.312431,0.642111 -2.874857,1.898867 -5.034978,4.049947 -1.722622,1.71541 -3.76068,3.423247 -4.529019,3.795194 -0.768339,0.371947 -2.013211,0.676265 -2.766381,0.676265 -0.757057,0 -3.270751,-0.628927 -5.621446,-1.406487 -2.338623,-0.773565 -4.989876,-1.507962 -5.891669,-1.631992 -1.139772,-0.156757 -2.175654,-0.06968 -3.3979,0.285638 -1.247866,0.362764 -2.272582,0.981193 -3.529993,2.130398 -1.078311,0.985515 -2.148192,2.372639 -2.733638,3.54422 -0.529055,1.058733 -1.060842,2.584643 -1.181749,3.390909 -0.124295,0.828857 -0.05399,2.250703 0.161766,3.271688 0.209878,0.99316 1.527777,4.188044 2.928662,7.099744 1.890461,3.92927 2.561547,5.6662 2.603242,6.73782 0.0309,0.7941 -0.05936,3.17639 -0.200572,5.29399 -0.208087,3.1204 -0.158961,4.23019 0.259184,5.85502 0.283765,1.10266 0.794334,2.55055 1.1346,3.21752 0.340267,0.66698 1.445137,2.03259 2.45527,3.0347 1.100481,1.09174 2.81635,2.32598 4.281032,3.07937 1.344435,0.69155 3.215652,1.50786 4.15826,1.81404 0.942611,0.30617 2.747383,0.74423 4.010605,0.97345 1.263225,0.22922 3.599996,0.4298 5.192822,0.44573 1.592829,0.0159 4.119511,-0.11989 5.614847,-0.30182 z M 45.716321,125.13472 c 0.3832,-0.14704 0.414774,-0.41187 0.162575,-1.3636 -0.172141,-0.64962 -0.746576,-2.55275 -1.276521,-4.22918 -0.529946,-1.67643 -1.31434,-4.56407 -1.743097,-6.41697 -0.428757,-1.8529 -0.857874,-3.71172 -0.953592,-4.13072 -0.158504,-0.69385 -0.301235,-0.74748 -1.599673,-0.60113 -0.858023,0.0967 -1.874745,0.50324 -2.55362,1.02104 -0.620388,0.47319 -1.449981,1.46561 -1.843539,2.20537 -0.572943,1.07694 -0.7131,1.8566 -0.703213,3.91181 0.0091,1.88274 0.1882,2.9559 0.67221,4.0269 0.362924,0.80307 1.120194,1.98441 1.68282,2.6252 0.562627,0.6408 1.685488,1.48582 2.495245,1.87781 0.809759,0.392 1.922372,0.82017 2.472475,0.9515 0.550103,0.13133 1.385429,0.25356 1.85628,0.27162 0.47085,0.0181 1.070093,-0.0493 1.33165,-0.14965 z m 75.172819,-21.77088 c 0.9243,-0.42315 2.35398,-1.39014 3.17708,-2.14884 0.82311,-0.75871 1.86388,-2.104364 2.31284,-2.990345 0.50137,-0.989403 0.87743,-2.372548 0.97477,-3.585176 0.0872,-1.085866 -0.0225,-2.728632 -0.24365,-3.650584 -0.23385,-0.974785 -0.80799,-2.138525 -1.37196,-2.780851 -0.53341,-0.607513 -1.39542,-1.324651 -1.91558,-1.593638 -0.54167,-0.28011 -1.8045,-0.49402 -2.95567,-0.500661 -1.10546,-0.0064 -2.78807,0.214718 -3.73913,0.491328 -0.95107,0.276606 -1.97432,0.689756 -2.27389,0.918111 -0.50913,0.388095 -0.49348,0.624576 0.23985,3.623674 0.43149,1.764667 1.01159,5.30202 1.28911,7.860786 0.27752,2.558766 0.56886,4.850376 0.64742,5.092476 0.10097,0.31115 0.44117,0.38052 1.16056,0.23664 0.55975,-0.11195 1.77396,-0.54976 2.69825,-0.97292 z m -70.384716,93.81245 c -0.398484,-0.16013 -0.896755,-0.66916 -1.107269,-1.13119 -0.32637,-0.7163 -0.274775,-1.04359 0.350251,-2.22177 0.447946,-0.84439 1.502424,-1.95664 2.711511,-2.86008 1.088179,-0.81309 3.422325,-2.18286 5.186991,-3.04393 1.764666,-0.86107 4.110947,-1.89067 5.213957,-2.288 2.005472,-0.72241 2.005472,-0.72241 2.659194,0.10866 0.359546,0.45709 1.550619,1.26813 2.64683,1.80231 1.096207,0.53419 2.749484,1.16097 3.673948,1.39286 1.680841,0.42161 1.680841,0.42161 -0.160424,1.3204 -1.012697,0.49433 -3.012754,1.60429 -4.444575,2.46657 -1.431818,0.86228 -3.200495,2.14734 -3.930393,2.85568 -0.729895,0.70834 -1.327083,1.43244 -1.327083,1.6091 0,0.2024 -1.987785,0.31368 -5.374211,0.30086 -2.955816,-0.0112 -5.700243,-0.15134 -6.098727,-0.31147 z m 17.947934,-25.33735 c -0.762185,-0.34589 -2.13881,-1.4126 -3.059164,-2.37047 -0.920354,-0.95787 -2.302947,-2.87351 -3.072425,-4.257 -1.271853,-2.28672 -1.400141,-2.71961 -1.411043,-4.76136 -0.0089,-1.66288 0.179749,-2.68253 0.726603,-3.92771 0.406226,-0.92498 1.295223,-2.18465 1.975543,-2.79928 0.680321,-0.61463 1.565445,-1.18904 1.966946,-1.27646 0.401496,-0.0874 1.090951,-0.20065 1.532118,-0.25161 0.566195,-0.0654 1.203262,0.27748 2.165951,1.16576 0.750109,0.69213 1.718913,1.86432 2.152899,2.60487 0.43399,0.74054 1.142872,2.41344 1.575295,3.71756 0.749165,2.25936 0.765208,2.46941 0.340363,4.45663 -0.245225,1.14703 -0.448873,2.74978 -0.45255,3.56167 -0.0037,0.81188 0.160125,1.95466 0.364002,2.53951 0.333618,0.95702 0.297975,1.12225 -0.356392,1.65212 -0.413346,0.33471 -1.230919,0.58572 -1.894719,0.58171 -0.6422,-0.004 -1.791245,-0.29005 -2.553427,-0.63594 z"
         id="path185"
         sodipodi:nodetypes="sssssssssssscsssssssscsssscsssssscsssssssssssssssssssssscssssssssssssssssssssscsssssssssssssssssssssssssssssssssssssssssssssscssssssssssssscsscssssssssscsssssscsssssssssssssssssssssssscsssssssssssssssssssssssssssssssssssssssscsssscsssscssssssssssssssssssssssssssssssssssssssssscs" />
      <path
         style="fill:#737d94;fill-opacity:1;stroke-width:0.320848"
         d="m 92.778808,195.74418 c 0,-0.0878 0.488055,-0.84583 1.084567,-1.68446 0.596512,-0.83862 1.408171,-2.16706 1.803688,-2.95208 0.395516,-0.78502 1.22633,-2.19123 1.846254,-3.1249 1.127131,-1.69758 1.127131,-1.69758 2.670463,0.81024 0.87664,1.42449 2.50468,3.41472 3.76879,4.60722 2.22546,2.09939 2.22546,2.09939 0.29151,2.30152 -1.06367,0.11118 -4.0785,0.20214 -6.699611,0.20214 -2.621114,0 -4.765661,-0.0719 -4.765661,-0.15968 z m -22.64445,-7.33646 c -1.072353,-0.39869 -2.480184,-1.05273 -3.128513,-1.45342 -0.648328,-0.40069 -1.373269,-1.0062 -1.61098,-1.34558 -0.325872,-0.46524 -0.363534,-1.05491 -0.153089,-2.39691 0.25365,-1.6175 0.177092,-2.05225 -0.839221,-4.76572 -0.615082,-1.64222 -1.471834,-4.20571 -1.903895,-5.69666 -0.432058,-1.49095 -0.953189,-3.56879 -1.158067,-4.61743 -0.204874,-1.04864 -0.325895,-2.62853 -0.268929,-3.51086 0.103577,-1.60424 0.103577,-1.60424 1.344512,0.71812 0.682515,1.27731 2.008062,3.12076 2.945661,4.09658 0.937603,0.97581 2.328336,2.05721 3.090521,2.4031 0.762182,0.34589 1.907749,0.63207 2.545701,0.63594 0.662706,0.004 1.491852,-0.25406 1.934277,-0.60207 0.676877,-0.53243 0.851618,-0.55263 1.387986,-0.16042 0.337495,0.24678 0.983077,0.44815 1.434632,0.44749 0.451556,-6.4e-4 1.285884,-0.28464 1.854065,-0.63108 0.568177,-0.34643 1.485983,-1.24828 2.039562,-2.0041 0.553582,-0.75583 1.907832,-3.25119 3.009446,-5.54526 1.101614,-2.29406 2.678224,-5.07902 3.503581,-6.18879 0.82536,-1.10977 2.182635,-2.45845 3.016167,-2.99707 1.480125,-0.95644 1.586698,-0.97556 4.563578,-0.81904 1.676433,0.0882 4.051847,0.41496 5.278697,0.72624 1.22685,0.31128 3.97011,1.44345 6.09612,2.51595 2.12602,1.07249 6.46939,3.64467 9.65194,5.71596 3.18255,2.07128 6.31985,4.3122 6.97177,4.97983 0.65192,0.66762 1.27664,1.67053 1.38827,2.22867 0.16417,0.82083 0.0456,1.1722 -0.62043,1.8382 -0.55585,0.55585 -1.16695,0.82109 -1.88073,0.81634 -0.58154,-0.004 -1.66289,-0.28197 -2.40301,-0.61798 -0.78661,-0.35712 -3.18966,-2.38971 -5.7842,-4.8925 -2.44119,-2.35487 -5.30081,-4.94079 -6.35469,-5.7465 -1.05389,-0.8057 -2.56588,-1.83814 -3.35998,-2.2943 -0.7941,-0.45615 -2.2938,-1.0733 -3.332673,-1.37143 -1.390095,-0.39893 -2.70327,-0.50648 -4.973151,-0.40727 -2.340069,0.10227 -3.403899,0.30116 -4.408826,0.82426 -0.728492,0.3792 -1.925712,1.37244 -2.660487,2.20718 -0.734778,0.83475 -1.891183,2.68638 -2.569791,4.11473 -0.678607,1.42835 -2.100036,4.90659 -3.158736,7.72943 -1.058697,2.82283 -2.434655,6.78861 -3.057682,8.81284 -0.623023,2.02422 -1.397346,4.43158 -1.72071,5.34969 -0.511468,1.45217 -0.756262,1.73387 -1.882058,2.16573 -0.711767,0.27304 -1.650249,0.48891 -2.085515,0.47972 -0.435266,-0.009 -1.668774,-0.34292 -2.741123,-0.74161 z m 3.117818,-28.04377 c -0.223098,-0.83495 -0.849571,-2.42025 -1.392154,-3.5229 -0.542587,-1.10265 -1.616524,-2.58554 -2.386532,-3.2953 -0.770004,-0.70977 -1.400009,-1.34289 -1.400009,-1.40693 0,-0.064 0.936964,-0.21677 2.082139,-0.33941 1.145176,-0.12264 2.136533,-0.31994 2.203016,-0.43844 0.06648,-0.1185 -0.08272,-1.58474 -0.331549,-3.25831 -0.24883,-1.67356 -0.409992,-3.38602 -0.358137,-3.80546 0.09429,-0.76261 0.09429,-0.76261 8.115498,-0.83177 7.486593,-0.0645 8.226184,-0.12421 11.09657,-0.89515 1.691449,-0.4543 4.21813,-1.28235 5.614847,-1.84012 1.396718,-0.55777 3.138154,-1.36355 3.869855,-1.79062 1.33038,-0.77649 1.33038,-0.77649 1.6598,1.09369 0.18118,1.0286 0.63555,2.52144 1.0097,3.31741 0.37416,0.79598 1.4914,2.43059 2.48278,3.63248 0.99137,1.20189 1.59872,2.09896 1.34968,1.9935 -0.24905,-0.10547 -1.68006,-0.70006 -3.18003,-1.32132 -1.49996,-0.62126 -3.5935,-1.35518 -4.652298,-1.63093 -1.0588,-0.27575 -3.123241,-0.59367 -4.587645,-0.70649 -1.594417,-0.12284 -3.589498,-0.0504 -4.97315,0.18055 -1.270829,0.21212 -3.272936,0.67149 -4.449128,1.02082 -1.274223,0.37844 -2.870284,1.17728 -3.949079,1.97653 -0.995798,0.73776 -2.368769,2.17733 -3.051043,3.19904 -0.682272,1.02172 -1.82892,3.36265 -2.548101,5.20209 -0.719182,1.83943 -1.309816,3.53578 -1.312517,3.76966 -0.0026,0.23388 -0.117854,0.60304 -0.255896,0.82035 -0.15814,0.24895 -0.401029,-0.16644 -0.656617,-1.12297 z"
         id="path183" />
      <path
         style="fill:#505868;fill-opacity:1;stroke-width:0.320848"
         d="m 78.485066,113.25953 c -0.697072,-0.4554 -1.520228,-1.16858 -1.829237,-1.58484 -0.309006,-0.41627 -0.597769,-1.09044 -0.641696,-1.49817 -0.0644,-0.59777 0.219367,-0.88967 1.465606,-1.50759 0.990324,-0.49102 2.335253,-0.82279 3.744144,-0.92359 1.209271,-0.0865 2.57125,-0.0638 3.026617,0.0505 0.615266,0.15442 0.827946,0.41493 0.827946,1.01412 0,0.44347 -0.223891,1.3431 -0.497533,1.99919 -0.273645,0.65608 -0.951684,1.66212 -1.506759,2.23563 -0.771207,0.79683 -1.281908,1.04276 -2.165453,1.04276 -0.701632,0 -1.654539,-0.32554 -2.423635,-0.82799 z m -12.513007,-2.17334 c -0.538146,-0.24362 -1.357128,-0.89298 -1.819952,-1.44302 -0.462827,-0.55004 -1.158561,-1.83251 -1.546078,-2.84995 -0.46584,-1.22307 -0.751899,-2.82832 -0.844229,-4.73752 -0.09715,-2.00882 -0.01101,-3.131746 0.283055,-3.689753 0.232487,-0.441166 0.926033,-1.054564 1.541212,-1.363108 0.615178,-0.308541 1.799295,-0.561209 2.63137,-0.561485 1.230476,-3.21e-4 1.721612,0.182784 2.631191,0.981405 0.668835,0.587242 1.37995,1.681165 1.769255,2.721671 0.358012,0.95688 0.813193,3.0056 1.011516,4.55274 0.289964,2.26205 0.275545,3.0583 -0.07364,4.06571 -0.23882,0.68901 -0.807675,1.52978 -1.26412,1.86837 -0.456442,0.3386 -1.394924,0.67914 -2.085515,0.75676 -0.693145,0.0779 -1.693925,-0.0573 -2.234067,-0.30182 z m 23.919113,-4.92563 c -0.2647,-0.0968 -0.820181,-0.48241 -1.234406,-0.857 -0.414222,-0.37459 -1.014702,-1.19099 -1.334399,-1.81422 -0.319693,-0.62323 -0.738789,-1.98528 -0.93132,-3.02677 -0.192532,-1.041497 -0.350056,-2.593659 -0.350056,-3.449249 0,-0.85559 0.199077,-2.032077 0.442393,-2.614414 0.243315,-0.582336 0.840314,-1.371797 1.326663,-1.75436 0.637192,-0.501217 1.329005,-0.695568 2.475952,-0.695568 0.906984,0 1.979522,0.229105 2.493274,0.532586 0.495878,0.292922 1.200278,1.064017 1.565333,1.713549 0.365058,0.649529 0.881868,2.10635 1.14847,3.237383 0.266603,1.131029 0.486865,2.891253 0.489474,3.911603 0.0026,1.02035 -0.200457,2.34629 -0.451254,2.94654 -0.253528,0.60677 -0.887531,1.31451 -1.427885,1.59393 -0.53454,0.27642 -1.592682,0.49119 -2.351427,0.47726 -0.758746,-0.0139 -1.596112,-0.1045 -1.860812,-0.20127 z"
         id="path181" />
    </g>
  </g>
</svg>
