<svg width="2em" height="2em" viewBox="0 0 18 20" fill="none" xmlns="http://www.w3.org/2000/svg">
<path d="M9 6.4V1M9 1L7.22222 2.8M9 1L10.7778 2.8M2.77778 10V8.2C2.77778 6.391 2.77778 4.897 5.44444 4.636M15.2222 10V8.2C15.2222 6.391 15.2222 4.897 12.5556 4.636M4.55556 10C1 10 1 11.611 1 13.6V14.5C1 16.984 1 19 5.44444 19H12.5556C16.1111 19 17 16.984 17 14.5V13.6C17 11.611 17 10 13.4444 10C12.5556 10 12.3067 10.189 11.8444 10.54L10.9378 11.512C10.6885 11.7805 10.3876 11.9944 10.0536 12.1406C9.71954 12.2869 9.35947 12.3623 8.99556 12.3623C8.63164 12.3623 8.27158 12.2869 7.93755 12.1406C7.60352 11.9944 7.3026 11.7805 7.05333 11.512L6.15556 10.54C5.69333 10.189 5.44444 10 4.55556 10Z" stroke="currentColor" stroke-width="1.5" stroke-miterlimit="10" stroke-linecap="round" stroke-linejoin="round"/>
</svg>
