<svg width="2em" height="2em" viewBox="0 0 12 14" fill="none" xmlns="http://www.w3.org/2000/svg">
<path d="M11.7604 9.27924L7.57416 1.91612C7.40488 1.63527 7.17167 1.40413 6.89601 1.24403C6.62034 1.08392 6.31111 1 5.99682 1C5.68253 1 5.3733 1.08392 5.09764 1.24403C4.82198 1.40413 4.58876 1.63527 4.41949 1.91612L0.233274 9.27924C0.0853935 9.54068 0.00501781 9.83882 0.00022742 10.1437C-0.00456297 10.4485 0.0664008 10.7493 0.205984 11.0158C0.367363 11.3158 0.600951 11.565 0.882874 11.7379C1.1648 11.9108 1.48495 12.0012 1.81061 11.9999H10.183C10.5066 12.0036 10.8253 11.9166 11.107 11.7479C11.3887 11.5792 11.6235 11.3347 11.7877 11.039C11.9313 10.7697 12.0046 10.4646 11.9998 10.1552C11.995 9.84579 11.9123 9.54338 11.7604 9.27924Z" fill="currentColor"/>
<path d="M6 9.54541V9.61103" stroke="white" stroke-width="1.3" stroke-linecap="round" stroke-linejoin="round"/>
<path d="M6 4C6 4 6 6.09983 6 7.44531" stroke="white" stroke-linecap="round" stroke-linejoin="round"/>
</svg>
