<svg width="4em" height="4em" viewBox="0 0 214 214" fill="none" xmlns="http://www.w3.org/2000/svg">
<path fill-rule="evenodd" clip-rule="evenodd" d="M107 206C161.708 206 206 161.846 206 107.451C206 53.0554 161.708 8.90155 107 8.90155C52.2919 8.90155 8 53.0554 8 107.451C8 161.846 52.2919 206 107 206ZM107 214C166.094 214 214 166.296 214 107.451C214 48.6053 166.094 0.90155 107 0.90155C47.9055 0.90155 0 48.6053 0 107.451C0 166.296 47.9055 214 107 214Z" fill="currentColor"/>
<path d="M183.925 91.69C180.516 90.7834 177.063 90.1031 173.608 89.6507C161.655 87.9733 149.61 88.6084 138.475 91.3733C134.43 82.943 127.158 76.3255 118.294 73.061C123.567 64.9941 130.112 58.0133 137.52 52.6193C144.065 47.8152 151.202 44.0985 158.565 41.6954C160.11 41.1977 161.791 41.5596 163.019 42.6472C175.836 53.9782 185.289 69.0731 189.563 86.2057C190.379 89.5604 187.289 92.5514 183.925 91.69Z" fill="currentColor"/>
<path d="M86.9807 174.23C94.4345 164.755 99.8416 154.059 103.024 143C103.933 143.09 104.888 143.135 105.842 143.135C114.614 143.135 122.75 140.009 129.022 134.705C133.476 143.316 136.204 152.427 137.249 161.583C138.158 169.652 137.75 177.718 136.158 185.334C135.841 186.831 134.703 188.099 133.295 188.644C124.341 191.953 116.479 192.996 105.797 192.996C97.5249 192.996 89.5249 191.818 81.9803 189.641C78.6618 188.689 77.662 184.564 80.0715 182.117C82.5718 179.579 84.8437 176.95 86.9807 174.23Z" fill="currentColor"/>
<path d="M124.658 39.7878C117.204 49.2623 111.796 59.9129 108.615 70.9724C107.706 70.9272 106.797 70.882 105.842 70.882C97.0239 70.882 88.8897 74.054 82.6171 79.3122C78.1628 70.7009 75.4356 61.5903 74.3904 52.4341C73.5267 44.3655 73.935 36.2518 75.5262 28.6829C75.8455 27.1429 76.9814 25.918 78.3894 25.3751C87.3436 22.0656 95.1604 21.0231 105.842 21.0231C114.16 21.0231 122.16 22.1558 129.704 24.3326C133.023 25.2844 134.023 29.455 131.613 31.9019C129.113 34.3953 126.796 37.0231 124.658 39.7878Z" fill="currentColor"/>
<path d="M27.761 122.328C31.1703 123.189 34.6233 123.869 38.0327 124.367C49.9864 126.044 62.0308 125.409 73.2114 122.644C77.2559 131.03 84.4828 137.647 93.3466 140.911C88.1194 149.025 81.5289 155.959 74.1659 161.398C67.6667 166.202 60.5304 169.829 53.1674 172.277C51.6215 172.776 49.9412 172.412 48.7131 171.37C35.8505 160.039 26.3969 144.944 22.1242 127.812C21.3076 124.457 24.3972 121.466 27.761 122.328Z" fill="currentColor"/>
<path d="M69.6196 107.009C69.6196 109.139 69.8011 111.225 70.1657 113.219C60.531 112.767 51.2134 110.499 42.713 106.873C35.3044 103.609 28.5329 99.2589 22.7593 94.091C21.5781 93.0487 21.032 91.3713 21.3496 89.8297C24.8496 72.4243 33.6207 56.9677 45.9391 45.1386C48.4394 42.7357 52.5747 43.9154 53.4836 47.2232C54.4397 50.6232 55.5756 53.9329 56.8476 57.1502C61.3475 68.3002 67.9375 78.3628 75.9827 86.6125C71.9819 92.459 69.6196 99.4395 69.6196 107.009Z" fill="currentColor"/>
<path d="M142.067 107.009C142.067 104.879 141.885 102.793 141.521 100.798C151.155 101.298 160.474 103.518 168.928 107.144C176.382 110.407 183.153 114.759 188.925 119.881C190.106 120.969 190.653 122.601 190.335 124.188C186.835 141.546 178.018 157.003 165.702 168.831C163.201 171.234 159.066 170.01 158.157 166.702C157.201 163.347 156.11 160.083 154.793 156.865C150.293 145.715 143.703 135.653 135.703 127.358C139.704 121.557 142.066 114.576 142.066 107.007L142.067 107.009Z" fill="currentColor"/>
<path d="M105.89 134.15C120.87 134.15 133.054 121.995 133.054 107.056C133.054 92.1172 120.87 79.9617 105.89 79.9617C90.9107 79.9617 78.7217 92.1172 78.7217 107.056C78.7234 121.995 90.9107 134.15 105.89 134.15Z" fill="currentColor"/>

</svg>
