<svg width="10" height="15" viewBox="0 0 10 15" fill="none" xmlns="http://www.w3.org/2000/svg">
<g clip-path="url(#clip0_1690_12325)">
<path d="M8.78788 0H8.48485C8.31749 0 8.18182 0.129149 8.18182 0.288462V0.865385H7.57576C7.4084 0.865385 7.27273 0.994533 7.27273 1.15385V1.44231C7.27273 1.60162 7.4084 1.73077 7.57576 1.73077H8.18182V2.30769C8.18182 2.46701 8.31749 2.59615 8.48485 2.59615H8.78788C8.95524 2.59615 9.09091 2.46701 9.09091 2.30769V1.73077H9.69697C9.86433 1.73077 10 1.60162 10 1.44231V1.15385C10 0.994533 9.86433 0.865385 9.69697 0.865385H9.09091V0.288462C9.09091 0.129149 8.95524 0 8.78788 0Z" fill="black"/>
<path fill-rule="evenodd" clip-rule="evenodd" d="M9.09091 4.83173V14.351C9.09091 14.7094 8.78565 15 8.40909 15H0.681818C0.30526 15 0 14.7094 0 14.351V4.83173C0 4.47328 0.30526 4.18269 0.681818 4.18269H2.27273V2.66827C2.27273 2.30982 2.57799 2.01923 2.95455 2.01923H6.13636C6.51292 2.01923 6.81818 2.30982 6.81818 2.66827V4.18269H8.40909C8.78565 4.18269 9.09091 4.47328 9.09091 4.83173ZM1.51515 5.19231C1.34779 5.19231 1.21212 5.32146 1.21212 5.48077V8H7.87879V5.48077C7.87879 5.32146 7.74312 5.19231 7.57576 5.19231H1.51515Z" fill="black"/>
</g>
<defs>
<clipPath id="clip0_1690_12325">
<rect width="10" height="15" fill="white"/>
</clipPath>
</defs>
</svg>
