<svg width="138" height="212" viewBox="0 0 138 212" fill="none" xmlns="http://www.w3.org/2000/svg">
<g clip-path="url(#clip0_1698_6141)">
<rect x="58.5713" y="202" width="16" height="30.8571" transform="rotate(-90 58.5713 202)" fill="#C4D7E5"/>
<path d="M90 183C90 183.5 87.7143 205 87.7143 205C87.657 203.897 87.5501 202.5 87.5501 202M58 183C58 183.5 58.813 185.5 58.813 186M60.1215 202C60.1215 202.5 60.2284 203.897 60.2857 205C60.2857 205 61.4286 194 62 183C62.086 184.103 62.2415 185.5 62.2415 186M63.5501 202C63.5501 202.5 63.657 203.897 63.7143 205C63.7143 205 64.8571 194 65.4286 183C65.5145 184.103 65.6701 185.5 65.6701 186M66.9787 202C66.9787 202.5 67.0855 203.897 67.1429 205C67.1429 205 68.2857 194 68.8571 183C68.9431 184.103 69.0987 185.5 69.0987 186M70.4073 202C70.4073 202.5 70.5141 203.897 70.5714 205C70.5714 205 71.7143 194 72.2857 183C72.3717 184.103 72.5272 185.5 72.5272 186M73.8358 202C73.8358 202.5 73.9427 203.897 74 205C74 205 75.1429 194 75.7143 183C75.8003 184.103 75.9558 185.5 75.9558 186M77.2644 202C77.2644 202.5 77.3713 203.897 77.4286 205C77.4286 205 78.5714 194 79.1429 183C79.2288 184.103 79.3844 185 79.3844 186M80.693 202C80.693 202.5 80.7998 203.897 80.8571 205C80.8571 205 82 194 82.5714 183C82.6574 184.103 82.813 185.5 82.813 186M84.1215 202C84.1215 202.5 84.2284 203.897 84.2857 205C84.2857 205 85.4286 194 86 183C86.086 184.103 86.2415 185.5 86.2415 186" stroke="#5894A7" stroke-width="3" stroke-linejoin="round"/>
<rect x="58.3684" y="150" width="16" height="13.2632" transform="rotate(-90 58.3684 150)" fill="#C4D7E5"/>
<path d="M72 131C72 131.5 70.5263 153 70.5263 153C70.4894 151.897 70.4205 150.5 70.4205 150M58 131C58 131.5 58.5241 133.5 58.5241 134M59.3678 150C59.3678 150.5 59.4367 151.897 59.4737 153C59.4737 153 60.2105 142 60.5789 131C60.6344 132.103 60.7347 133.5 60.7347 134M61.5784 150C61.5784 150.5 61.6473 151.897 61.6842 153C61.6842 153 62.4211 142 62.7895 131C62.8449 132.103 62.9452 133.5 62.9452 134M63.7889 150C63.7889 150.5 63.8578 151.897 63.8947 153C63.8947 153 64.6316 142 65 131C65.0554 132.103 65.1071 133.096 65.1557 134M65.9994 150C65.9994 150.5 66.0683 151.897 66.1053 153C66.1053 153 66.8421 142 67.2105 131C67.266 132.103 67.3662 133.5 67.3662 134M68.2099 150C68.2099 150.5 68.2788 151.897 68.3158 153C68.3158 153 69.0526 142 69.4211 131C69.4765 132.103 69.5768 133.5 69.5768 134" stroke="#5894A7" stroke-width="3" stroke-linejoin="round"/>
<path fill-rule="evenodd" clip-rule="evenodd" d="M71 165C71 167.209 72.7909 169 75 169H85C87.2091 169 89 170.791 89 173V206C89 207.105 89.8954 208 91 208H100C101.105 208 102 207.105 102 206V173C102 170.791 103.791 169 106 169H116V115H71L71 165Z" fill="#C4D7E5"/>
<rect width="16" height="30.8571" transform="matrix(0 1 1 0 58.5714 14)" fill="#C4D7E5"/>
<path d="M90 11C90 11.5 87.7143 33 87.7143 33C87.657 31.8967 87.5501 30.5 87.5501 30M58 11C58 11.5 58.813 13.5 58.813 14M60.1215 30C60.1215 30.5 60.2284 31.8967 60.2857 33C60.2857 33 61.4286 22 62 11C62.086 12.1033 62.2415 13.5 62.2415 14M63.5501 30C63.5501 30.5 63.657 31.8967 63.7143 33C63.7143 33 64.8571 22 65.4286 11C65.5145 12.1033 65.6701 13.5 65.6701 14M66.9787 30C66.9787 30.5 67.0855 31.8967 67.1429 33C67.1429 33 68.2857 22 68.8571 11C68.9431 12.1033 69.0987 13.5 69.0987 14M70.4073 30C70.4073 30.5 70.5141 31.8967 70.5714 33C70.5714 33 71.7143 22 72.2857 11C72.3717 12.1033 72.5272 13.5 72.5272 14M73.8358 30C73.8358 30.5 73.9427 31.8967 74 33C74 33 75.1429 22 75.7143 11C75.8003 12.1033 75.9558 13.5 75.9558 14M77.2644 30C77.2644 30.5 77.3713 31.8967 77.4286 33C77.4286 33 78.5714 22 79.1429 11C79.2288 12.1033 79.3844 13 79.3844 14M80.693 30C80.693 30.5 80.7998 31.8967 80.8571 33C80.8571 33 82 22 82.5714 11C82.6574 12.1033 82.813 13.5 82.813 14M84.1215 30C84.1215 30.5 84.2284 31.8967 84.2857 33C84.2857 33 85.4286 22 86 11C86.086 12.1033 86.2415 13.5 86.2415 14" stroke="#5894A7" stroke-width="3" stroke-linejoin="round"/>
<rect width="16" height="13.2632" transform="matrix(0 1 1 0 58.3684 66)" fill="#C4D7E5"/>
<path d="M72 63C72 63.5 70.5263 85 70.5263 85C70.4894 83.8967 70.4205 82.5 70.4205 82M58 63C58 63.5 58.5241 65.5 58.5241 66M59.3678 82C59.3678 82.5 59.4367 83.8967 59.4737 85C59.4737 85 60.2105 74 60.5789 63C60.6344 64.1033 60.7347 65.5 60.7347 66M61.5784 82C61.5784 82.5 61.6473 83.8967 61.6842 85C61.6842 85 62.4211 74 62.7895 63C62.8449 64.1033 62.9452 65.5 62.9452 66M63.7889 82C63.7889 82.5 63.8578 83.8967 63.8947 85C63.8947 85 64.6316 74 65 63C65.0554 64.1033 65.1071 65.0959 65.1557 66M65.9994 82C65.9994 82.5 66.0683 83.8967 66.1053 85C66.1053 85 66.8421 74 67.2105 63C67.266 64.1033 67.3662 65.5 67.3662 66M68.2099 82C68.2099 82.5 68.2788 83.8967 68.3158 85C68.3158 85 69.0526 74 69.4211 63C69.4765 64.1033 69.5768 65.5 69.5768 66" stroke="#5894A7" stroke-width="3" stroke-linejoin="round"/>
<path d="M71 51V101H116V47L106 47C103.791 47 102 45.2091 102 43V12C102 10.8954 101.105 10 100 10H91C89.8954 10 89 10.8954 89 12V43C89 45.2091 87.2091 47 85 47H75C72.7909 47 71 48.7909 71 51Z" fill="#C4D7E5"/>
<path d="M71 115L71 101H112C114.209 101 116 99.2091 116 97L116 47H134C136.209 47 138 48.7909 138 51V165C138 167.209 136.209 169 134 169H116V119C116 116.791 114.209 115 112 115H71Z" fill="#5894A7"/>
<rect x="45" y="212" width="212" height="14" rx="4" transform="rotate(-90 45 212)" fill="#C4D7E5"/>
<path d="M41 125C39.8954 125 39 124.105 39 123V93C39 91.8954 39.8954 91 41 91H45V125H41Z" fill="#5894A7"/>
<path d="M41 60C39.8954 60 39 59.1046 39 58V28C39 26.8954 39.8954 26 41 26H45V60H41Z" fill="#5894A7"/>
<path d="M41 190C39.8954 190 39 189.105 39 188V158C39 156.895 39.8954 156 41 156H45V190H41Z" fill="#5894A7"/>
<rect x="119" y="158" width="32" height="4" rx="2" transform="rotate(-90 119 158)" fill="#C4D7E5"/>
<rect x="125" y="158" width="32" height="4" rx="2" transform="rotate(-90 125 158)" fill="#C4D7E5"/>
<rect x="131" y="158" width="32" height="4" rx="2" transform="rotate(-90 131 158)" fill="#C4D7E5"/>
<rect x="119" y="90" width="32" height="4" rx="2" transform="rotate(-90 119 90)" fill="#C4D7E5"/>
<rect x="125" y="90" width="32" height="4" rx="2" transform="rotate(-90 125 90)" fill="#C4D7E5"/>
<rect x="131" y="90" width="32" height="4" rx="2" transform="rotate(-90 131 90)" fill="#C4D7E5"/>
<rect y="212" width="212" height="14" rx="2" transform="rotate(-90 0 212)" fill="#C4D7E5"/>
</g>
<defs>
<clipPath id="clip0_1698_6141">
<rect width="212" height="138" fill="white" transform="matrix(0 -1 1 0 0 212)"/>
</clipPath>
</defs>
</svg>
