<svg width="139" height="212" viewBox="0 0 139 212" fill="none" xmlns="http://www.w3.org/2000/svg">
<g clip-path="url(#clip0_1698_6143)">
<rect x="36" y="202" width="16" height="54" transform="rotate(-90 36 202)" fill="#EF9A87"/>
<path d="M91 183C91 183.5 87 205 87 205C86.8997 203.897 86.7127 202.5 86.7127 202M35 183C35 183.5 36.4227 185.5 36.4227 186M38.7127 202C38.7127 202.5 38.8997 203.897 39 205C39 205 41 194 42 183C42.1504 184.103 42.4227 185.5 42.4227 186M44.7127 202C44.7127 202.5 44.8997 203.897 45 205C45 205 47 194 48 183C48.1504 184.103 48.4227 185.5 48.4227 186M50.7127 202C50.7127 202.5 50.8997 203.897 51 205C51 205 53 194 54 183C54.1504 184.103 54.4227 185.5 54.4227 186M56.7127 202C56.7127 202.5 56.8997 203.897 57 205C57 205 59 194 60 183C60.1504 184.103 60.4227 185.5 60.4227 186M62.7127 202C62.7127 202.5 62.8997 203.897 63 205C63 205 65 194 66 183C66.1504 184.103 66.4227 185.5 66.4227 186M68.7127 202C68.7127 202.5 68.8997 203.897 69 205C69 205 71 194 72 183C72.1504 184.103 72.4227 185 72.4227 186M74.7127 202C74.7127 202.5 74.8997 203.897 75 205C75 205 77 194 78 183C78.1504 184.103 78.4227 185.5 78.4227 186M80.7127 202C80.7127 202.5 80.8997 203.897 81 205C81 205 83 194 84 183C84.1504 184.103 84.4227 185.5 84.4227 186" stroke="#A85C57" stroke-width="3" stroke-linejoin="round"/>
<rect x="36" y="150" width="16" height="36" transform="rotate(-90 36 150)" fill="#EF9A87"/>
<path d="M73 131C73 131.5 69 153 69 153C68.8997 151.897 68.7127 150.5 68.7127 150M35 131C35 131.5 36.4227 133.5 36.4227 134M38.7127 150C38.7127 150.5 38.8997 151.897 39 153C39 153 41 142 42 131C42.1504 132.103 42.4227 133.5 42.4227 134M44.7127 150C44.7127 150.5 44.8997 151.897 45 153C45 153 47 142 48 131C48.1504 132.103 48.4227 133.5 48.4227 134M50.7127 150C50.7127 150.5 50.8997 151.897 51 153C51 153 53 142 54 131C54.1504 132.103 54.4227 133 54.4227 134M56.7127 150C56.7127 150.5 56.8997 151.897 57 153C57 153 59 142 60 131C60.1504 132.103 60.4227 133.5 60.4227 134M62.7127 150C62.7127 150.5 62.8997 151.897 63 153C63 153 65 142 66 131C66.1504 132.103 66.4227 133.5 66.4227 134" stroke="#A85C57" stroke-width="3" stroke-linejoin="round"/>
<path fill-rule="evenodd" clip-rule="evenodd" d="M72 165C72 167.209 73.7909 169 76 169H86C88.2091 169 90 170.791 90 173V206C90 207.105 90.8954 208 92 208H101C102.105 208 103 207.105 103 206V173C103 170.791 104.791 169 107 169H117V115H72V165Z" fill="#EF9A87"/>
<rect width="16" height="54" transform="matrix(0 1 1 0 36 14)" fill="#EF9A87"/>
<path d="M91 11C91 11.5 87 33 87 33C86.8997 31.8967 86.7127 30.5 86.7127 30M35 11C35 11.5 36.4227 13.5 36.4227 14M38.7127 30C38.7127 30.5 38.8997 31.8967 39 33C39 33 41 22 42 11C42.1504 12.1033 42.4227 13.5 42.4227 14M44.7127 30C44.7127 30.5 44.8997 31.8967 45 33C45 33 47 22 48 11C48.1504 12.1033 48.4227 13.5 48.4227 14M50.7127 30C50.7127 30.5 50.8997 31.8967 51 33C51 33 53 22 54 11C54.1504 12.1033 54.4227 13.5 54.4227 14M56.7127 30C56.7127 30.5 56.8997 31.8967 57 33C57 33 59 22 60 11C60.1504 12.1033 60.4227 13.5 60.4227 14M62.7127 30C62.7127 30.5 62.8997 31.8967 63 33C63 33 65 22 66 11C66.1504 12.1033 66.4227 13.5 66.4227 14M68.7127 30C68.7127 30.5 68.8997 31.8967 69 33C69 33 71 22 72 11C72.1504 12.1033 72.4227 13 72.4227 14M74.7127 30C74.7127 30.5 74.8997 31.8967 75 33C75 33 77 22 78 11C78.1504 12.1033 78.4227 13.5 78.4227 14M80.7127 30C80.7127 30.5 80.8997 31.8967 81 33C81 33 83 22 84 11C84.1504 12.1033 84.4227 13.5 84.4227 14" stroke="#A85C57" stroke-width="3" stroke-linejoin="round"/>
<rect width="16" height="36" transform="matrix(0 1 1 0 36 66)" fill="#EF9A87"/>
<path d="M73 63C73 63.5 69 85 69 85C68.8997 83.8967 68.7127 82.5 68.7127 82M35 63C35 63.5 36.4227 65.5 36.4227 66M38.7127 82C38.7127 82.5 38.8997 83.8967 39 85C39 85 41 74 42 63C42.1504 64.1033 42.4227 65.5 42.4227 66M44.7127 82C44.7127 82.5 44.8997 83.8967 45 85C45 85 47 74 48 63C48.1504 64.1033 48.4227 65.5 48.4227 66M50.7127 82C50.7127 82.5 50.8997 83.8967 51 85C51 85 53 74 54 63C54.1504 64.1033 54.4227 65 54.4227 66M56.7127 82C56.7127 82.5 56.8997 83.8967 57 85C57 85 59 74 60 63C60.1504 64.1033 60.4227 65.5 60.4227 66M62.7127 82C62.7127 82.5 62.8997 83.8967 63 85C63 85 65 74 66 63C66.1504 64.1033 66.4227 65.5 66.4227 66" stroke="#A85C57" stroke-width="3" stroke-linejoin="round"/>
<path d="M72 51V101H117V47H107C104.791 47 103 45.2091 103 43V12C103 10.8954 102.105 10 101 10H92C90.8954 10 90 10.8954 90 12V43C90 45.2091 88.2091 47 86 47H76C73.7909 47 72 48.7909 72 51Z" fill="#EF9A87"/>
<rect x="22" y="212" width="212" height="14" rx="4" transform="rotate(-90 22 212)" fill="#EF9A87"/>
<path d="M72 115L72 101H113C115.209 101 117 99.2091 117 97L117 47H135C137.209 47 139 48.7909 139 51V165C139 167.209 137.209 169 135 169H117V119C117 116.791 115.209 115 113 115H72Z" fill="#A85C57"/>
<path d="M18 125C16.8954 125 16 124.105 16 123L16 93C16 91.8954 16.8954 91 18 91H22V125H18Z" fill="#A85C57"/>
<path d="M18 60C16.8954 60 16 59.1046 16 58L16 28C16 26.8954 16.8954 26 18 26H22V60H18Z" fill="#A85C57"/>
<path d="M18 190C16.8954 190 16 189.105 16 188L16 158C16 156.895 16.8954 156 18 156H22V190H18Z" fill="#A85C57"/>
<rect x="120" y="158" width="32" height="4" rx="2" transform="rotate(-90 120 158)" fill="#EF9A87"/>
<rect x="126" y="158" width="32" height="4" rx="2" transform="rotate(-90 126 158)" fill="#EF9A87"/>
<rect x="132" y="158" width="32" height="4" rx="2" transform="rotate(-90 132 158)" fill="#EF9A87"/>
<rect x="120" y="90" width="32" height="4" rx="2" transform="rotate(-90 120 90)" fill="#EF9A87"/>
<rect x="126" y="90" width="32" height="4" rx="2" transform="rotate(-90 126 90)" fill="#EF9A87"/>
<rect x="132" y="90" width="32" height="4" rx="2" transform="rotate(-90 132 90)" fill="#EF9A87"/>
<rect y="212" width="212" height="14" rx="2" transform="rotate(-90 0 212)" fill="#EF9A87"/>
</g>
<defs>
<clipPath id="clip0_1698_6143">
<rect width="212" height="139" fill="white" transform="matrix(0 -1 1 0 0 212)"/>
</clipPath>
</defs>
</svg>
