<svg width="3em" height="3em" viewBox="0 0 45 55" fill="none" xmlns="http://www.w3.org/2000/svg">
<path d="M42.4682 39.5937L42.3781 40.7566C42.1634 44.1527 40.3139 47.1141 37.6081 49.1937C37.5484 49.2402 37.4872 49.2864 37.4359 49.3251L37.4185 49.3383C37.3988 49.3541 37.3645 49.3808 37.3199 49.4115C37.2214 49.483 37.122 49.5529 37.019 49.6228C34.4027 51.4308 31.0519 52.5 27.4213 52.5C24.9021 52.5 22.5145 51.9852 20.4145 51.064V51.3464L18.0851 49.8005L18.085 49.8004L18.0849 49.8004L18.0845 49.8001L18.0826 49.7989L18.0754 49.794L18.0476 49.7756L17.9481 49.7096C17.8655 49.6549 17.7552 49.5819 17.6441 49.5085L17.6432 49.5079L17.3354 49.3045L17.2317 49.2358L17.1989 49.214L17.1838 49.2039L17.1828 49.2032C16.1036 48.4855 14.7028 47.0591 13.9151 46.2232C13.5456 45.8443 13.1757 45.4386 12.8126 45.0024L8.7707 40.2889L7.97138 39.4052L7.97073 39.4045L3.60161 34.5806C3.60134 34.5803 3.60107 34.58 3.60079 34.5797C3.60076 34.5797 3.60073 34.5797 3.60069 34.5796C1.89251 32.696 2.22239 29.8731 4.23757 28.3652C5.09941 27.7184 6.1249 27.418 7.12275 27.418C8.02139 27.418 8.92938 27.6597 9.71406 28.1544L9.82768 28.226L9.86913 28.264C9.91028 28.2948 9.97586 28.3448 10.042 28.3996C10.1058 28.4507 10.16 28.4998 10.2028 28.5408L12.3146 30.4612L11.3054 31.5709L12.3146 30.4612L12.4499 30.5842L12.4499 30.5842L12.4562 30.5899L12.7861 30.8934V10.8338C12.7861 8.42229 14.9025 6.69822 17.1885 6.69822H17.2689C18.1551 6.69822 19.0152 6.95801 19.7362 7.41661V5.63553C19.7362 3.22542 21.851 1.5 24.1344 1.5H24.2168C26.5012 1.5 28.6171 3.22466 28.6171 5.63553V6.00308C29.3361 5.54901 30.1915 5.29195 31.0717 5.29195H31.1541C33.4387 5.29195 35.5523 7.02064 35.5523 9.42965V11.1201C36.2745 10.661 37.1361 10.4009 38.0236 10.4009H38.1018C40.3924 10.4009 42.5 12.131 42.5 14.5384V34.857L42.8749 34.3455L42.4682 39.5937Z" fill="#EE8735" stroke="white" stroke-width="3"/>
</svg>
