<svg width="37" height="48" viewBox="0 0 37 48" fill="none" xmlns="http://www.w3.org/2000/svg">
    <path
        d="M37 35.7055C37 35.967 36.9875 36.2262 36.9684 36.4836L36.9727 36.4778L36.8817 37.6515C36.7022 40.5446 35.1242 43.138 32.6906 45.0071C32.6315 45.0531 32.5702 45.0992 32.509 45.1455C32.4923 45.1568 32.4795 45.1703 32.4604 45.1819C32.3655 45.2511 32.2703 45.3182 32.1711 45.3855C29.8158 47.0146 26.7632 48 23.4213 48C20.1956 48 17.234 47.0819 14.9145 45.5487V45.5507C14.9145 45.5507 14.6947 45.4047 14.4708 45.2569C14.247 45.1088 14.0208 44.9591 14.0208 44.9591C13.1042 44.352 11.805 43.042 10.9979 42.1851C10.6473 41.826 10.2988 41.4437 9.95858 41.0345L5.89643 36.2974L5.08315 35.3983L0.712462 30.5727C-0.383908 29.3644 -0.193781 27.5607 1.13709 26.5656C1.71797 26.1293 2.42144 25.918 3.12275 25.918C3.7565 25.918 4.3839 26.089 4.91413 26.4233C4.91835 26.4272 4.92681 26.4329 4.93524 26.4387C4.97115 26.4655 5.03666 26.5137 5.0958 26.5637C5.12537 26.5866 5.15282 26.6117 5.17607 26.6346L7.30543 28.5709L7.44069 28.6939L9.6565 30.7321C9.88909 30.9453 10.2861 30.7955 10.2861 30.4957V7.83375C10.2861 6.38359 11.5915 5.19822 13.1885 5.19822H13.2689C14.8617 5.19822 16.165 6.38359 16.165 7.83375V21.2193H16.1735V21.6611C16.1735 21.9686 16.4946 22.2105 16.8474 22.1242C17.0797 22.0685 17.2319 21.863 17.2319 21.644V21.2193H17.2362V2.63553C17.2362 1.18536 18.5415 -1.19209e-06 20.1344 -1.19209e-06H20.2168C21.8115 -1.19209e-06 23.1171 1.18536 23.1171 2.63553V21.7226C23.153 21.9802 23.4171 22.1779 23.7255 22.1377C23.9897 22.1029 24.1735 21.8801 24.1735 21.6363V6.42965C24.1735 4.97924 25.4809 3.79195 27.0717 3.79195H27.1541C28.7467 3.79195 30.0523 4.97924 30.0523 6.42965V21.6611C30.0523 21.9686 30.3754 22.2105 30.7262 22.1242C30.9607 22.0685 31.1126 21.863 31.1126 21.644V21.2193H31.1211V11.5384C31.1211 10.0882 32.4268 8.90094 34.0236 8.90094H34.1018C35.6989 8.90094 37 10.0882 37 11.5384V35.7055Z"
        fill="currentColor" />
</svg>