<svg width="2em" height="2em" viewBox="0 0 29 34" fill="currentColor" xmlns="http://www.w3.org/2000/svg">
<path d="M25 25.2914C25 25.4766 24.9916 25.6602 24.9787 25.8425L24.9815 25.8384L24.9201 26.6698C24.7988 28.7191 23.7326 30.5561 22.0883 31.88C22.0483 31.9126 22.0069 31.9453 21.9655 31.9781C21.9542 31.9861 21.9456 31.9956 21.9327 32.0038C21.8686 32.0529 21.8042 32.1004 21.7372 32.148C20.1458 33.302 18.0833 34 15.8252 34C13.6457 34 11.6446 33.3496 10.0774 32.2637V32.265C10.0774 32.265 9.92883 32.1617 9.77759 32.057C9.62635 31.9521 9.47493 31.8474 9.47349 31.846C8.8542 31.416 7.97632 30.4881 7.43103 29.8811C7.19414 29.6267 6.95868 29.356 6.72877 29.0661L3.98408 25.7106L3.43456 25.0738L0.481393 21.6556C-0.259398 20.7998 -0.130933 19.5221 0.768302 18.8173C1.16079 18.5083 1.63611 18.3586 2.10997 18.3586C2.53817 18.3586 2.96209 18.4797 3.32036 18.7165C3.32321 18.7192 3.32892 18.7233 3.33462 18.7274C3.35888 18.7464 3.40315 18.7806 3.44311 18.8159C3.46309 18.8322 3.48163 18.8499 3.49735 18.8661L4.9361 20.2377L5.02749 20.3249L6.52466 21.7686C6.68182 21.9196 6.95007 21.8135 6.95007 21.6011V5.54891C6.95007 4.52171 7.83207 3.68208 8.91118 3.68208H8.96548C10.0417 3.68208 10.9223 4.52171 10.9223 5.54891V15.0303H10.928V15.3433C10.928 15.5611 11.145 15.7324 11.3834 15.6713C11.5403 15.6318 11.6432 15.4863 11.6432 15.3312V15.0303H11.6461V1.86683C11.6461 0.83963 12.528 0 13.6043 0H13.66C14.7375 0 15.6197 0.83963 15.6197 1.86683V15.3869C15.6439 15.5693 15.8224 15.7094 16.0308 15.6809C16.2092 15.6563 16.3334 15.4984 16.3334 15.3257V4.55433C16.3334 3.52696 17.2169 2.68596 18.2917 2.68596H18.3474C19.4235 2.68596 20.3056 3.52696 20.3056 4.55433V15.3433C20.3056 15.5611 20.5239 15.7324 20.761 15.6713C20.9194 15.6318 21.0221 15.4863 21.0221 15.3312V15.0303H21.0278V8.17303C21.0278 7.14583 21.91 6.30483 22.9889 6.30483H23.0418C24.1209 6.30483 25 7.14583 25 8.17303V25.2914Z" fill="currentColor"/>
</svg>
