<svg width="212" height="139" viewBox="0 0 212 139" fill="none" xmlns="http://www.w3.org/2000/svg">
<g clip-path="url(#clip0_1698_6143)">
<rect x="10" y="36" width="16" height="54" fill="#EF9A87"/>
<path d="M29 91C28.5 91 7 87 7 87C8.10325 86.8997 9.5 86.7127 10 86.7127M29 35C28.5 35 26.5 36.4227 26 36.4227M10 38.7127C9.5 38.7127 8.10325 38.8997 7 39C7 39 18 41 29 42C27.8967 42.1504 26.5 42.4227 26 42.4227M10 44.7127C9.5 44.7127 8.10325 44.8997 7 45C7 45 18 47 29 48C27.8967 48.1504 26.5 48.4227 26 48.4227M10 50.7127C9.5 50.7127 8.10325 50.8997 7 51C7 51 18 53 29 54C27.8967 54.1504 26.5 54.4227 26 54.4227M10 56.7127C9.5 56.7127 8.10325 56.8997 7 57C7 57 18 59 29 60C27.8967 60.1504 26.5 60.4227 26 60.4227M10 62.7127C9.5 62.7127 8.10325 62.8997 7 63C7 63 18 65 29 66C27.8967 66.1504 26.5 66.4227 26 66.4227M10 68.7127C9.5 68.7127 8.10325 68.8997 7 69C7 69 18 71 29 72C27.8967 72.1504 27 72.4227 26 72.4227M10 74.7127C9.5 74.7127 8.10325 74.8997 7 75C7 75 18 77 29 78C27.8967 78.1504 26.5 78.4227 26 78.4227M10 80.7127C9.5 80.7127 8.10325 80.8997 7 81C7 81 18 83 29 84C27.8967 84.1504 26.5 84.4227 26 84.4227" stroke="#A85C57" stroke-width="3" stroke-linejoin="round"/>
<rect x="62" y="36" width="16" height="36" fill="#EF9A87"/>
<path d="M81 73C80.5 73 59 69 59 69C60.1033 68.8997 61.5 68.7127 62 68.7127M81 35C80.5 35 78.5 36.4227 78 36.4227M62 38.7127C61.5 38.7127 60.1033 38.8997 59 39C59 39 70 41 81 42C79.8967 42.1504 78.5 42.4227 78 42.4227M62 44.7127C61.5 44.7127 60.1033 44.8997 59 45C59 45 70 47 81 48C79.8967 48.1504 78.5 48.4227 78 48.4227M62 50.7127C61.5 50.7127 60.1033 50.8997 59 51C59 51 70 53 81 54C79.8967 54.1504 79 54.4227 78 54.4227M62 56.7127C61.5 56.7127 60.1033 56.8997 59 57C59 57 70 59 81 60C79.8967 60.1504 78.5 60.4227 78 60.4227M62 62.7127C61.5 62.7127 60.1033 62.8997 59 63C59 63 70 65 81 66C79.8967 66.1504 78.5 66.4227 78 66.4227" stroke="#A85C57" stroke-width="3" stroke-linejoin="round"/>
<path fill-rule="evenodd" clip-rule="evenodd" d="M47 72C44.7909 72 43 73.7909 43 76V86C43 88.2091 41.2091 90 39 90H6C4.89543 90 4 90.8954 4 92V101C4 102.105 4.89543 103 6 103H39C41.2091 103 43 104.791 43 107V117H97V72H47Z" fill="#EF9A87"/>
<rect width="16" height="54" transform="matrix(-1 0 0 1 198 36)" fill="#EF9A87"/>
<path d="M201 91C200.5 91 179 87 179 87C180.103 86.8997 181.5 86.7127 182 86.7127M201 35C200.5 35 198.5 36.4227 198 36.4227M182 38.7127C181.5 38.7127 180.103 38.8997 179 39C179 39 190 41 201 42C199.897 42.1504 198.5 42.4227 198 42.4227M182 44.7127C181.5 44.7127 180.103 44.8997 179 45C179 45 190 47 201 48C199.897 48.1504 198.5 48.4227 198 48.4227M182 50.7127C181.5 50.7127 180.103 50.8997 179 51C179 51 190 53 201 54C199.897 54.1504 198.5 54.4227 198 54.4227M182 56.7127C181.5 56.7127 180.103 56.8997 179 57C179 57 190 59 201 60C199.897 60.1504 198.5 60.4227 198 60.4227M182 62.7127C181.5 62.7127 180.103 62.8997 179 63C179 63 190 65 201 66C199.897 66.1504 198.5 66.4227 198 66.4227M182 68.7127C181.5 68.7127 180.103 68.8997 179 69C179 69 190 71 201 72C199.897 72.1504 199 72.4227 198 72.4227M182 74.7127C181.5 74.7127 180.103 74.8997 179 75C179 75 190 77 201 78C199.897 78.1504 198.5 78.4227 198 78.4227M182 80.7127C181.5 80.7127 180.103 80.8997 179 81C179 81 190 83 201 84C199.897 84.1504 198.5 84.4227 198 84.4227" stroke="#A85C57" stroke-width="3" stroke-linejoin="round"/>
<rect width="16" height="36" transform="matrix(-1 0 0 1 146 36)" fill="#EF9A87"/>
<path d="M149 73C148.5 73 127 69 127 69C128.103 68.8997 129.5 68.7127 130 68.7127M149 35C148.5 35 146.5 36.4227 146 36.4227M130 38.7127C129.5 38.7127 128.103 38.8997 127 39C127 39 138 41 149 42C147.897 42.1504 146.5 42.4227 146 42.4227M130 44.7127C129.5 44.7127 128.103 44.8997 127 45C127 45 138 47 149 48C147.897 48.1504 146.5 48.4227 146 48.4227M130 50.7127C129.5 50.7127 128.103 50.8997 127 51C127 51 138 53 149 54C147.897 54.1504 147 54.4227 146 54.4227M130 56.7127C129.5 56.7127 128.103 56.8997 127 57C127 57 138 59 149 60C147.897 60.1504 146.5 60.4227 146 60.4227M130 62.7127C129.5 62.7127 128.103 62.8997 127 63C127 63 138 65 149 66C147.897 66.1504 146.5 66.4227 146 66.4227" stroke="#A85C57" stroke-width="3" stroke-linejoin="round"/>
<path d="M161 72H111V117H165V107C165 104.791 166.791 103 169 103H200C201.105 103 202 102.105 202 101V92C202 90.8954 201.105 90 200 90H169C166.791 90 165 88.2091 165 86V76C165 73.7909 163.209 72 161 72Z" fill="#EF9A87"/>
<rect y="22" width="212" height="14" rx="4" fill="#EF9A87"/>
<path d="M97 72L111 72V113C111 115.209 112.791 117 115 117L165 117V135C165 137.209 163.209 139 161 139H47C44.7909 139 43 137.209 43 135V117H93C95.2091 117 97 115.209 97 113V72Z" fill="#A85C57"/>
<path d="M87 18C87 16.8954 87.8954 16 89 16H119C120.105 16 121 16.8954 121 18V22H87V18Z" fill="#A85C57"/>
<path d="M152 18C152 16.8954 152.895 16 154 16H184C185.105 16 186 16.8954 186 18V22H152V18Z" fill="#A85C57"/>
<path d="M22 18C22 16.8954 22.8954 16 24 16H54C55.1046 16 56 16.8954 56 18V22H22V18Z" fill="#A85C57"/>
<rect x="54" y="120" width="32" height="4" rx="2" fill="#EF9A87"/>
<rect x="54" y="126" width="32" height="4" rx="2" fill="#EF9A87"/>
<rect x="54" y="132" width="32" height="4" rx="2" fill="#EF9A87"/>
<rect x="122" y="120" width="32" height="4" rx="2" fill="#EF9A87"/>
<rect x="122" y="126" width="32" height="4" rx="2" fill="#EF9A87"/>
<rect x="122" y="132" width="32" height="4" rx="2" fill="#EF9A87"/>
<rect width="212" height="14" rx="2" fill="#EF9A87"/>
</g>
<defs>
<clipPath id="clip0_1698_6143">
<rect width="212" height="139" fill="white"/>
</clipPath>
</defs>
</svg>
