<svg width="212" height="138" viewBox="0 0 212 138" fill="none" xmlns="http://www.w3.org/2000/svg">
<g clip-path="url(#clip0_1698_6141)">
<rect x="10" y="58.5713" width="16" height="30.8571" fill="#C4D7E5"/>
<path d="M29 90C28.5 90 7 87.7143 7 87.7143C8.10325 87.657 9.5 87.5501 10 87.5501M29 58C28.5 58 26.5 58.813 26 58.813M10 60.1215C9.5 60.1215 8.10325 60.2284 7 60.2857C7 60.2857 18 61.4286 29 62C27.8967 62.086 26.5 62.2415 26 62.2415M10 63.5501C9.5 63.5501 8.10325 63.657 7 63.7143C7 63.7143 18 64.8571 29 65.4286C27.8967 65.5145 26.5 65.6701 26 65.6701M10 66.9787C9.5 66.9787 8.10325 67.0855 7 67.1429C7 67.1429 18 68.2857 29 68.8571C27.8967 68.9431 26.5 69.0987 26 69.0987M10 70.4073C9.5 70.4073 8.10325 70.5141 7 70.5714C7 70.5714 18 71.7143 29 72.2857C27.8967 72.3717 26.5 72.5272 26 72.5272M10 73.8358C9.5 73.8358 8.10325 73.9427 7 74C7 74 18 75.1429 29 75.7143C27.8967 75.8003 26.5 75.9558 26 75.9558M10 77.2644C9.5 77.2644 8.10325 77.3713 7 77.4286C7 77.4286 18 78.5714 29 79.1429C27.8967 79.2288 27 79.3844 26 79.3844M10 80.693C9.5 80.693 8.10325 80.7998 7 80.8571C7 80.8571 18 82 29 82.5714C27.8967 82.6574 26.5 82.813 26 82.813M10 84.1215C9.5 84.1215 8.10325 84.2284 7 84.2857C7 84.2857 18 85.4286 29 86C27.8967 86.086 26.5 86.2415 26 86.2415" stroke="#5894A7" stroke-width="3" stroke-linejoin="round"/>
<rect x="62" y="58.3684" width="16" height="13.2632" fill="#C4D7E5"/>
<path d="M81 72C80.5 72 59 70.5263 59 70.5263C60.1033 70.4894 61.5 70.4205 62 70.4205M81 58C80.5 58 78.5 58.5241 78 58.5241M62 59.3678C61.5 59.3678 60.1033 59.4367 59 59.4737C59 59.4737 70 60.2105 81 60.5789C79.8967 60.6344 78.5 60.7347 78 60.7347M62 61.5784C61.5 61.5784 60.1033 61.6473 59 61.6842C59 61.6842 70 62.4211 81 62.7895C79.8967 62.8449 78.5 62.9452 78 62.9452M62 63.7889C61.5 63.7889 60.1033 63.8578 59 63.8947C59 63.8947 70 64.6316 81 65C79.8967 65.0554 78.9041 65.1071 78 65.1557M62 65.9994C61.5 65.9994 60.1033 66.0683 59 66.1053C59 66.1053 70 66.8421 81 67.2105C79.8967 67.266 78.5 67.3662 78 67.3662M62 68.2099C61.5 68.2099 60.1033 68.2788 59 68.3158C59 68.3158 70 69.0526 81 69.4211C79.8967 69.4765 78.5 69.5768 78 69.5768" stroke="#5894A7" stroke-width="3" stroke-linejoin="round"/>
<path fill-rule="evenodd" clip-rule="evenodd" d="M47 71C44.7909 71 43 72.7909 43 75V85C43 87.2091 41.2091 89 39 89H6C4.89543 89 4 89.8954 4 91V100C4 101.105 4.89543 102 6 102H39C41.2091 102 43 103.791 43 106V116H97V71H47Z" fill="#C4D7E5"/>
<rect width="16" height="30.8571" transform="matrix(-1 0 0 1 198 58.5714)" fill="#C4D7E5"/>
<path d="M201 90C200.5 90 179 87.7143 179 87.7143C180.103 87.657 181.5 87.5501 182 87.5501M201 58C200.5 58 198.5 58.813 198 58.813M182 60.1215C181.5 60.1215 180.103 60.2284 179 60.2857C179 60.2857 190 61.4286 201 62C199.897 62.086 198.5 62.2415 198 62.2415M182 63.5501C181.5 63.5501 180.103 63.657 179 63.7143C179 63.7143 190 64.8571 201 65.4286C199.897 65.5145 198.5 65.6701 198 65.6701M182 66.9787C181.5 66.9787 180.103 67.0855 179 67.1429C179 67.1429 190 68.2857 201 68.8571C199.897 68.9431 198.5 69.0987 198 69.0987M182 70.4073C181.5 70.4073 180.103 70.5141 179 70.5714C179 70.5714 190 71.7143 201 72.2857C199.897 72.3717 198.5 72.5272 198 72.5272M182 73.8358C181.5 73.8358 180.103 73.9427 179 74C179 74 190 75.1429 201 75.7143C199.897 75.8003 198.5 75.9558 198 75.9558M182 77.2644C181.5 77.2644 180.103 77.3713 179 77.4286C179 77.4286 190 78.5714 201 79.1429C199.897 79.2288 199 79.3844 198 79.3844M182 80.693C181.5 80.693 180.103 80.7998 179 80.8571C179 80.8571 190 82 201 82.5714C199.897 82.6574 198.5 82.813 198 82.813M182 84.1215C181.5 84.1215 180.103 84.2284 179 84.2857C179 84.2857 190 85.4286 201 86C199.897 86.086 198.5 86.2415 198 86.2415" stroke="#5894A7" stroke-width="3" stroke-linejoin="round"/>
<rect width="16" height="13.2632" transform="matrix(-1 0 0 1 146 58.3684)" fill="#C4D7E5"/>
<path d="M149 72C148.5 72 127 70.5263 127 70.5263C128.103 70.4894 129.5 70.4205 130 70.4205M149 58C148.5 58 146.5 58.5241 146 58.5241M130 59.3678C129.5 59.3678 128.103 59.4367 127 59.4737C127 59.4737 138 60.2105 149 60.5789C147.897 60.6344 146.5 60.7347 146 60.7347M130 61.5784C129.5 61.5784 128.103 61.6473 127 61.6842C127 61.6842 138 62.4211 149 62.7895C147.897 62.8449 146.5 62.9452 146 62.9452M130 63.7889C129.5 63.7889 128.103 63.8578 127 63.8947C127 63.8947 138 64.6316 149 65C147.897 65.0554 146.904 65.1071 146 65.1557M130 65.9994C129.5 65.9994 128.103 66.0683 127 66.1053C127 66.1053 138 66.8421 149 67.2105C147.897 67.266 146.5 67.3662 146 67.3662M130 68.2099C129.5 68.2099 128.103 68.2788 127 68.3158C127 68.3158 138 69.0526 149 69.4211C147.897 69.4765 146.5 69.5768 146 69.5768" stroke="#5894A7" stroke-width="3" stroke-linejoin="round"/>
<path d="M161 71H111V116H165V106C165 103.791 166.791 102 169 102H200C201.105 102 202 101.105 202 100V91C202 89.8954 201.105 89 200 89H169C166.791 89 165 87.2091 165 85V75C165 72.7909 163.209 71 161 71Z" fill="#C4D7E5"/>
<path d="M97 71L111 71V112C111 114.209 112.791 116 115 116L165 116V134C165 136.209 163.209 138 161 138H47C44.7909 138 43 136.209 43 134V116H93C95.2091 116 97 114.209 97 112V71Z" fill="#5894A7"/>
<rect y="45" width="212" height="14" rx="4" fill="#C4D7E5"/>
<path d="M87 41C87 39.8954 87.8954 39 89 39H119C120.105 39 121 39.8954 121 41V45H87V41Z" fill="#5894A7"/>
<path d="M152 41C152 39.8954 152.895 39 154 39H184C185.105 39 186 39.8954 186 41V45H152V41Z" fill="#5894A7"/>
<path d="M22 41C22 39.8954 22.8954 39 24 39H54C55.1046 39 56 39.8954 56 41V45H22V41Z" fill="#5894A7"/>
<rect x="54" y="119" width="32" height="4" rx="2" fill="#C4D7E5"/>
<rect x="54" y="125" width="32" height="4" rx="2" fill="#C4D7E5"/>
<rect x="54" y="131" width="32" height="4" rx="2" fill="#C4D7E5"/>
<rect x="122" y="119" width="32" height="4" rx="2" fill="#C4D7E5"/>
<rect x="122" y="125" width="32" height="4" rx="2" fill="#C4D7E5"/>
<rect x="122" y="131" width="32" height="4" rx="2" fill="#C4D7E5"/>
<rect width="212" height="14" rx="2" fill="#C4D7E5"/>
</g>
<defs>
<clipPath id="clip0_1698_6141">
<rect width="212" height="138" fill="white"/>
</clipPath>
</defs>
</svg>
