<?xml version="1.0" encoding="iso-8859-1"?>
<!-- Uploaded to: SVG Repo, www.svgrepo.com, Generator: SVG Repo Mixer Tools -->
<svg fill="currentColor" height="2em" width="2em" version="1.1" id="Layer_1" xmlns="http://www.w3.org/2000/svg" xmlns:xlink="http://www.w3.org/1999/xlink" 
	 viewBox="0 0 512 512" xml:space="preserve">
<g>
	<g>
		<polygon points="271.209,455.625 240.791,455.625 26.205,455.625 26.205,503.158 485.795,503.158 485.795,455.625 		"/>
	</g>
</g>
<g>
	<g>
		<path d="M0,8.842v416.365h30.417h26.205h184.169V39.259V8.842H0z M189.8,255.119c-14.162,0-25.644-11.481-25.644-25.644
			s11.482-25.644,25.644-25.644c14.162,0,25.644,11.481,25.644,25.644S203.962,255.119,189.8,255.119z"/>
	</g>
</g>
<g>
	<g>
		<path d="M271.209,8.842v30.417v385.948h184.169h26.205H512V8.842H271.209z M322.2,255.119c-14.162,0-25.644-11.481-25.644-25.644
			s11.482-25.644,25.644-25.644s25.644,11.481,25.644,25.644C347.843,243.637,336.361,255.119,322.2,255.119z"/>
	</g>
</g>
</svg>