<svg width="671" height="52" viewBox="0 0 671 52" fill="none" xmlns="http://www.w3.org/2000/svg">
<rect x="11.1104" y="19" width="50" height="15" rx="2" fill="#FFCAA6"/>
<rect width="7" height="2" transform="matrix(-1 0 0 1 16.1104 50)" fill="#5894A7"/>
<rect width="12" height="2" transform="matrix(-1 0 0 1 42.1104 50)" fill="#5894A7"/>
<rect width="12" height="2" transform="matrix(-1 0 0 1 68.1104 50)" fill="#5894A7"/>
<rect width="12" height="2" transform="matrix(-1 0 0 1 94.1104 50)" fill="#5894A7"/>
<rect width="12" height="2" transform="matrix(-1 0 0 1 120.11 50)" fill="#5894A7"/>
<rect width="12" height="2" transform="matrix(-1 0 0 1 146.11 50)" fill="#5894A7"/>
<rect width="12" height="2" transform="matrix(-1 0 0 1 172.11 50)" fill="#5894A7"/>
<rect width="12" height="2" transform="matrix(-1 0 0 1 198.11 50)" fill="#5894A7"/>
<rect width="12" height="2" transform="matrix(-1 0 0 1 224.11 50)" fill="#5894A7"/>
<rect width="12" height="2" transform="matrix(-1 0 0 1 250.11 50)" fill="#5894A7"/>
<rect width="12" height="2" transform="matrix(-1 0 0 1 276.11 50)" fill="#5894A7"/>
<rect width="12" height="2" transform="matrix(-1 0 0 1 302.11 50)" fill="#5894A7"/>
<rect width="12" height="2" transform="matrix(-1 0 0 1 328.11 50)" fill="#5894A7"/>
<rect width="12" height="2" transform="matrix(-1 0 0 1 354.11 50)" fill="#5894A7"/>
<rect width="12" height="2" transform="matrix(-1 0 0 1 380.11 50)" fill="#5894A7"/>
<rect width="12" height="2" transform="matrix(-1 0 0 1 406.11 50)" fill="#5894A7"/>
<rect width="12" height="2" transform="matrix(-1 0 0 1 432.11 50)" fill="#5894A7"/>
<rect width="12" height="2" transform="matrix(-1 0 0 1 458.11 50)" fill="#5894A7"/>
<rect width="12" height="2" transform="matrix(-1 0 0 1 484.11 50)" fill="#5894A7"/>
<rect width="12" height="2" transform="matrix(-1 0 0 1 510.11 50)" fill="#5894A7"/>
<rect width="12" height="2" transform="matrix(-1 0 0 1 536.11 50)" fill="#5894A7"/>
<rect width="12" height="2" transform="matrix(-1 0 0 1 562.11 50)" fill="#5894A7"/>
<rect width="12" height="2" transform="matrix(-1 0 0 1 588.11 50)" fill="#5894A7"/>
<rect width="12" height="2" transform="matrix(-1 0 0 1 614.11 50)" fill="#5894A7"/>
<rect width="12" height="2" transform="matrix(-1 0 0 1 640.11 50)" fill="#5894A7"/>
<rect width="7" height="2" transform="matrix(-1 0 0 1 661.11 50)" fill="#5894A7"/>
<rect x="89.1104" y="35" width="50" height="15" rx="2" fill="#FFCAA6"/>
<rect x="37.1104" y="35" width="50" height="15" rx="2" fill="#FAA76E"/>
<rect x="115.11" y="19" width="50" height="15" rx="2" fill="#FAA76E"/>
<rect x="63.1104" y="19" width="50" height="15" rx="2" fill="#E28D52"/>
<rect x="141.11" y="35" width="50" height="15" rx="2" fill="#E28D52"/>
<rect x="167.11" y="19" width="50" height="15" rx="2" fill="#FFCAA6"/>
<rect x="245.11" y="35" width="50" height="15" rx="2" fill="#FFCAA6"/>
<rect x="193.11" y="35" width="50" height="15" rx="2" fill="#FAA76E"/>
<rect x="271.11" y="19" width="50" height="15" rx="2" fill="#FAA76E"/>
<rect x="219.11" y="19" width="50" height="15" rx="2" fill="#E28D52"/>
<rect x="297.11" y="35" width="50" height="15" rx="2" fill="#E28D52"/>
<rect x="323.11" y="19" width="50" height="15" rx="2" fill="#FFCAA6"/>
<rect x="401.11" y="35" width="50" height="15" rx="2" fill="#FFCAA6"/>
<rect x="349.11" y="35" width="50" height="15" rx="2" fill="#FAA76E"/>
<rect x="427.11" y="19" width="50" height="15" rx="2" fill="#FAA76E"/>
<rect x="375.11" y="19" width="50" height="15" rx="2" fill="#E28D52"/>
<rect x="453.11" y="35" width="50" height="15" rx="2" fill="#E28D52"/>
<rect x="479.11" y="19" width="50" height="15" rx="2" fill="#FFCAA6"/>
<rect x="557.11" y="35" width="50" height="15" rx="2" fill="#FFCAA6"/>
<rect x="505.11" y="35" width="50" height="15" rx="2" fill="#FAA76E"/>
<rect x="583.11" y="19" width="50" height="15" rx="2" fill="#FAA76E"/>
<rect x="531.11" y="19" width="50" height="15" rx="2" fill="#E28D52"/>
<rect x="609.11" y="35" width="50" height="15" rx="2" fill="#E28D52"/>
<path d="M16.1104 34H30.1104V52H16.1104V34Z" fill="#9CBDD7"/>
<path d="M42.1104 34H56.1104V35H42.1104V34Z" fill="#9CBDD7"/>
<path d="M68.1104 34H82.1104V35H68.1104V34Z" fill="#9CBDD7"/>
<path d="M94.1104 34H108.11V35H94.1104V34Z" fill="#9CBDD7"/>
<path d="M120.11 34H134.11V35H120.11V34Z" fill="#9CBDD7"/>
<path d="M146.11 34H160.11V35H146.11V34Z" fill="#9CBDD7"/>
<path d="M172.11 34H186.11V35H172.11V34Z" fill="#9CBDD7"/>
<path d="M198.11 34H212.11V35H198.11V34Z" fill="#9CBDD7"/>
<path d="M224.11 34H238.11V35H224.11V34Z" fill="#9CBDD7"/>
<path d="M250.11 34H264.11V35H250.11V34Z" fill="#9CBDD7"/>
<path d="M276.11 34H290.11V35H276.11V34Z" fill="#9CBDD7"/>
<path d="M302.11 34H316.11V35H302.11V34Z" fill="#9CBDD7"/>
<path d="M328.11 34H342.11V35H328.11V34Z" fill="#9CBDD7"/>
<path d="M354.11 34H368.11V35H354.11V34Z" fill="#9CBDD7"/>
<path d="M380.11 34H394.11V35H380.11V34Z" fill="#9CBDD7"/>
<path d="M406.11 34H420.11V35H406.11V34Z" fill="#9CBDD7"/>
<path d="M432.11 34H446.11V35H432.11V34Z" fill="#9CBDD7"/>
<path d="M458.11 34H472.11V35H458.11V34Z" fill="#9CBDD7"/>
<path d="M484.11 34H498.11V35H484.11V34Z" fill="#9CBDD7"/>
<path d="M510.11 34H524.11V35H510.11V34Z" fill="#9CBDD7"/>
<path d="M536.11 34H550.11V35H536.11V34Z" fill="#9CBDD7"/>
<path d="M562.11 34H576.11V35H562.11V34Z" fill="#9CBDD7"/>
<path d="M588.11 34H602.11V35H588.11V34Z" fill="#9CBDD7"/>
<path d="M614.11 34H628.11V35H614.11V34Z" fill="#9CBDD7"/>
<path d="M42.1104 50H56.1104V52H42.1104V50Z" fill="#9CBDD7"/>
<path d="M68.1104 50H82.1104V52H68.1104V50Z" fill="#9CBDD7"/>
<path d="M94.1104 50H108.11V52H94.1104V50Z" fill="#9CBDD7"/>
<path d="M120.11 50H134.11V52H120.11V50Z" fill="#9CBDD7"/>
<path d="M146.11 50H160.11V52H146.11V50Z" fill="#9CBDD7"/>
<path d="M172.11 50H186.11V52H172.11V50Z" fill="#9CBDD7"/>
<path d="M198.11 50H212.11V52H198.11V50Z" fill="#9CBDD7"/>
<path d="M224.11 50H238.11V52H224.11V50Z" fill="#9CBDD7"/>
<path d="M250.11 50H264.11V52H250.11V50Z" fill="#9CBDD7"/>
<path d="M276.11 50H290.11V52H276.11V50Z" fill="#9CBDD7"/>
<path d="M302.11 50H316.11V52H302.11V50Z" fill="#9CBDD7"/>
<path d="M328.11 50H342.11V52H328.11V50Z" fill="#9CBDD7"/>
<path d="M354.11 50H368.11V52H354.11V50Z" fill="#9CBDD7"/>
<path d="M380.11 50H394.11V52H380.11V50Z" fill="#9CBDD7"/>
<path d="M406.11 50H420.11V52H406.11V50Z" fill="#9CBDD7"/>
<path d="M432.11 50H446.11V52H432.11V50Z" fill="#9CBDD7"/>
<path d="M458.11 50H472.11V52H458.11V50Z" fill="#9CBDD7"/>
<path d="M484.11 50H498.11V52H484.11V50Z" fill="#9CBDD7"/>
<path d="M510.11 50H524.11V52H510.11V50Z" fill="#9CBDD7"/>
<path d="M536.11 50H550.11V52H536.11V50Z" fill="#9CBDD7"/>
<path d="M562.11 50H576.11V52H562.11V50Z" fill="#9CBDD7"/>
<path d="M588.11 50H602.11V52H588.11V50Z" fill="#9CBDD7"/>
<path d="M614.11 50H628.11V52H614.11V50Z" fill="#9CBDD7"/>
<path d="M640.11 50H654.11V52H640.11V50Z" fill="#9CBDD7"/>
<path fill-rule="evenodd" clip-rule="evenodd" d="M9.11035 18V52H0.110352V9H47.1104L56.1104 0H86.1104L94.1104 9H312.11L321.11 0H351.11L359.11 9H577.11L586.11 0H616.11L624.11 9H670.11V52H661.11V18H654.11V35H640.11V18H628.11V19H614.11V18H602.11V19H588.11V18H576.11V19H562.11V18H550.11V19H536.11V18H524.11V19H510.11V18H498.11V19H484.11V18H472.11V19H458.11V18H446.11V19H432.11V18H420.11V19H406.11V18H394.11V19H380.11V18H368.11V19H354.11V18H342.11V19H328.11V18H316.11V19H302.11V18H290.11V19H276.11V18H264.11V19H250.11V18H238.11V19H224.11V18H212.11V19H198.11V18H186.11V19H172.11V18H160.11V19H146.11V18H134.11V19H120.11V18H108.11V19H94.1104V18H82.1104V19H68.1104V18H56.1104V19H42.1104V18H30.1104V19H16.1104V18H9.11035ZM61.1104 6C62.2149 6 63.1104 5.10457 63.1104 4C63.1104 2.89543 62.2149 2 61.1104 2C60.0058 2 59.1104 2.89543 59.1104 4C59.1104 5.10457 60.0058 6 61.1104 6ZM81.1104 6C82.2149 6 83.1104 5.10457 83.1104 4C83.1104 2.89543 82.2149 2 81.1104 2C80.0058 2 79.1104 2.89543 79.1104 4C79.1104 5.10457 80.0058 6 81.1104 6ZM326.11 6C327.215 6 328.11 5.10457 328.11 4C328.11 2.89543 327.215 2 326.11 2C325.006 2 324.11 2.89543 324.11 4C324.11 5.10457 325.006 6 326.11 6ZM346.11 6C347.215 6 348.11 5.10457 348.11 4C348.11 2.89543 347.215 2 346.11 2C345.006 2 344.11 2.89543 344.11 4C344.11 5.10457 345.006 6 346.11 6ZM591.11 6C592.215 6 593.11 5.10457 593.11 4C593.11 2.89543 592.215 2 591.11 2C590.006 2 589.11 2.89543 589.11 4C589.11 5.10457 590.006 6 591.11 6ZM611.11 6C612.215 6 613.11 5.10457 613.11 4C613.11 2.89543 612.215 2 611.11 2C610.006 2 609.11 2.89543 609.11 4C609.11 5.10457 610.006 6 611.11 6Z" fill="#9CBDD7"/>
</svg>
