<svg width="43" height="42" viewBox="0 0 43 42" fill="none" xmlns="http://www.w3.org/2000/svg">
    <path
        d="M3.05816 11.8992L4.11005 12.9511L3.05815 11.8992C2.41388 12.5435 2.05193 13.4173 2.05193 14.3285L2.05193 27.5386C2.05193 28.4498 2.41388 29.3236 3.05816 29.9679L12.3991 39.3089C13.0434 39.9531 13.9173 40.3151 14.8284 40.3151H28.0385C28.9497 40.3151 29.8235 39.9531 30.4678 39.3089L39.8088 29.9679C40.4531 29.3236 40.815 28.4498 40.815 27.5386V14.3285C40.815 13.4173 40.4531 12.5435 39.8088 11.8992L30.4678 2.55823C29.8235 1.91395 28.9497 1.552 28.0385 1.552L14.8284 1.552C13.9172 1.552 13.0434 1.91395 12.3991 2.55823L3.05816 11.8992Z"
        stroke="currentColor" stroke-width="3" />
    <rect x="9.21599" y="17.2322" width="24.7742" height="7.74194" fill="currentColor" />
</svg>