<svg width="109" height="152" viewBox="0 0 109 152" fill="none" xmlns="http://www.w3.org/2000/svg">
<g opacity="0.9" clip-path="url(#clip0_1797_7693)">
<path d="M85.5 138.714V116.571H87.7C89.0807 116.571 90.2 115.452 90.2 114.071V34.9286C90.2 33.5479 89.0807 32.4286 87.7 32.4286H85.5L85.5 10.2857H90.2C100.583 10.2857 109 20.1994 109 32.4286V116.571C109 128.801 100.583 138.714 90.2 138.714H85.5Z" fill="#C4D7E5"/>
<mask id="mask0_1797_7693" style="mask-type:alpha" maskUnits="userSpaceOnUse" x="62" y="103" width="24" height="49">
<rect x="62" y="152" width="49" height="24" rx="2.5" transform="rotate(-90 62 152)" fill="#A66223"/>
</mask>
<g mask="url(#mask0_1797_7693)">
<rect x="62" y="152" width="49" height="24" rx="2.5" transform="rotate(-90 62 152)" fill="#FFD1B0"/>
<path d="M85 152V103C84.4477 103 84 103.448 84 104V151C84 151.552 84.4477 152 85 152Z" fill="#EE7623" fill-opacity="0.5"/>
<path d="M83 152V103C82.4477 103 82 103.448 82 104V151C82 151.552 82.4477 152 83 152Z" fill="#EE7623" fill-opacity="0.5"/>
<path d="M81 152V103C80.4477 103 80 103.448 80 104V151C80 151.552 80.4477 152 81 152Z" fill="#EE7623" fill-opacity="0.5"/>
<path d="M79 152V103C78.4477 103 78 103.448 78 104V151C78 151.552 78.4477 152 79 152Z" fill="#EE7623" fill-opacity="0.5"/>
<path d="M77 152V103C76.4477 103 76 103.448 76 104V151C76 151.552 76.4477 152 77 152Z" fill="#EE7623" fill-opacity="0.5"/>
<path d="M75 152V103C74.4477 103 74 103.448 74 104V151C74 151.552 74.4477 152 75 152Z" fill="#EE7623" fill-opacity="0.5"/>
<path d="M73 152V103C72.4477 103 72 103.448 72 104V151C72 151.552 72.4477 152 73 152Z" fill="#EE7623" fill-opacity="0.5"/>
<path d="M71 152V103C70.4477 103 70 103.448 70 104V151C70 151.552 70.4477 152 71 152Z" fill="#EE7623" fill-opacity="0.5"/>
<path d="M69 152V103C68.4477 103 68 103.448 68 104V151C68 151.552 68.4477 152 69 152Z" fill="#EE7623" fill-opacity="0.5"/>
<path d="M67 152V103C66.4477 103 66 103.448 66 104V151C66 151.552 66.4477 152 67 152Z" fill="#EE7623" fill-opacity="0.5"/>
<path d="M65 152V103C64.4477 103 64 103.448 64 104V151C64 151.552 64.4477 152 65 152Z" fill="#EE7623" fill-opacity="0.5"/>
<path d="M63 152V103C62.4477 103 62 103.448 62 104V151C62 151.552 62.4477 152 63 152Z" fill="#EE7623" fill-opacity="0.5"/>
</g>
<mask id="mask1_1797_7693" style="mask-type:alpha" maskUnits="userSpaceOnUse" x="62" y="-4" width="24" height="50">
<rect x="62" y="45.7144" width="49" height="24" rx="2.5" transform="rotate(-90 62 45.7144)" fill="#A66223"/>
</mask>
<g mask="url(#mask1_1797_7693)">
<rect x="62" y="45.7144" width="49" height="24" rx="2.5" transform="rotate(-90 62 45.7144)" fill="#FFD1B0"/>
<path d="M85 45.7144V-3.28564C84.4477 -3.28564 84 -2.83793 84 -2.28564V44.7144C84 45.2666 84.4477 45.7144 85 45.7144Z" fill="#EE7623" fill-opacity="0.5"/>
<path d="M83 45.7144V-3.28564C82.4477 -3.28564 82 -2.83793 82 -2.28564V44.7144C82 45.2666 82.4477 45.7144 83 45.7144Z" fill="#EE7623" fill-opacity="0.5"/>
<path d="M81 45.7144V-3.28564C80.4477 -3.28564 80 -2.83793 80 -2.28564V44.7144C80 45.2666 80.4477 45.7144 81 45.7144Z" fill="#EE7623" fill-opacity="0.5"/>
<path d="M79 45.7144V-3.28564C78.4477 -3.28564 78 -2.83793 78 -2.28564V44.7144C78 45.2666 78.4477 45.7144 79 45.7144Z" fill="#EE7623" fill-opacity="0.5"/>
<path d="M77 45.7144V-3.28564C76.4477 -3.28564 76 -2.83793 76 -2.28564V44.7144C76 45.2666 76.4477 45.7144 77 45.7144Z" fill="#EE7623" fill-opacity="0.5"/>
<path d="M75 45.7144V-3.28564C74.4477 -3.28564 74 -2.83793 74 -2.28564V44.7144C74 45.2666 74.4477 45.7144 75 45.7144Z" fill="#EE7623" fill-opacity="0.5"/>
<path d="M73 45.7144V-3.28564C72.4477 -3.28564 72 -2.83793 72 -2.28564V44.7144C72 45.2666 72.4477 45.7144 73 45.7144Z" fill="#EE7623" fill-opacity="0.5"/>
<path d="M71 45.7144V-3.28564C70.4477 -3.28564 70 -2.83793 70 -2.28564V44.7144C70 45.2666 70.4477 45.7144 71 45.7144Z" fill="#EE7623" fill-opacity="0.5"/>
<path d="M69 45.7144V-3.28564C68.4477 -3.28564 68 -2.83793 68 -2.28564V44.7144C68 45.2666 68.4477 45.7144 69 45.7144Z" fill="#EE7623" fill-opacity="0.5"/>
<path d="M67 45.7144V-3.28564C66.4477 -3.28564 66 -2.83793 66 -2.28564V44.7144C66 45.2666 66.4477 45.7144 67 45.7144Z" fill="#EE7623" fill-opacity="0.5"/>
<path d="M65 45.7144V-3.28564C64.4477 -3.28564 64 -2.83793 64 -2.28564V44.7144C64 45.2666 64.4477 45.7144 65 45.7144Z" fill="#EE7623" fill-opacity="0.5"/>
<path d="M63 45.7144V-3.28564C62.4477 -3.28564 62 -2.83793 62 -2.28564V44.7144C62 45.2666 62.4477 45.7144 63 45.7144Z" fill="#EE7623" fill-opacity="0.5"/>
</g>
<rect y="152" width="155" height="15" rx="5" transform="rotate(-90 0 152)" fill="#5894A7"/>
</g>
<defs>
<clipPath id="clip0_1797_7693">
<rect width="155" height="109" fill="white" transform="matrix(0 -1 1 0 0 152)"/>
</clipPath>
</defs>
</svg>
