<svg width="35" height="117" viewBox="0 0 35 117" fill="none" xmlns="http://www.w3.org/2000/svg">
<path d="M17.8301 106.971V90.2572H18.764C20.1448 90.2572 21.264 89.1379 21.264 87.7571L21.264 29.2429C21.264 27.8622 20.1448 26.7429 18.764 26.7429H17.8301V10.0286H21.264C28.8501 10.0286 34.9999 17.5118 34.9999 26.7429L34.9999 90.2572C34.9999 99.4882 28.8501 106.971 21.264 106.971H17.8301Z" fill="#C4D7E5"/>
<mask id="mask0_2144_8760" style="mask-type:alpha" maskUnits="userSpaceOnUse" x="0" y="80" width="19" height="37">
<rect x="0.660156" y="117" width="36.9871" height="17.5351" rx="2.5" transform="rotate(-90 0.660156 117)" fill="#A66223"/>
</mask>
<g mask="url(#mask0_2144_8760)">
<rect x="0.660156" y="117" width="36.9871" height="17.5351" rx="2.5" transform="rotate(-90 0.660156 117)" fill="#FFD1B0"/>
<path d="M17.4648 117L17.4648 80.0129C17.0613 80.0129 16.7342 80.34 16.7342 80.7435L16.7342 116.269C16.7342 116.673 17.0613 117 17.4648 117Z" fill="#EE7623" fill-opacity="0.5"/>
<path d="M16.0034 117L16.0034 80.0129C15.5999 80.0129 15.2728 80.34 15.2728 80.7435L15.2728 116.269C15.2728 116.673 15.5999 117 16.0034 117Z" fill="#EE7623" fill-opacity="0.5"/>
<path d="M14.542 117L14.542 80.0129C14.1385 80.0129 13.8114 80.34 13.8114 80.7435L13.8114 116.269C13.8114 116.673 14.1385 117 14.542 117Z" fill="#EE7623" fill-opacity="0.5"/>
<path d="M13.0811 117L13.0811 80.0129C12.6775 80.0129 12.3504 80.34 12.3504 80.7435L12.3504 116.269C12.3504 116.673 12.6775 117 13.0811 117Z" fill="#EE7623" fill-opacity="0.5"/>
<path d="M11.6196 117L11.6196 80.0129C11.2161 80.0129 10.889 80.34 10.889 80.7435L10.889 116.269C10.889 116.673 11.2161 117 11.6196 117Z" fill="#EE7623" fill-opacity="0.5"/>
<path d="M10.1582 117L10.1582 80.0129C9.75469 80.0129 9.42757 80.34 9.42757 80.7435L9.42757 116.269C9.42757 116.673 9.75469 117 10.1582 117Z" fill="#EE7623" fill-opacity="0.5"/>
<path d="M8.69727 117L8.69727 80.0129C8.29375 80.0129 7.96664 80.34 7.96664 80.7435L7.96664 116.269C7.96664 116.673 8.29375 117 8.69727 117Z" fill="#EE7623" fill-opacity="0.5"/>
<path d="M7.23584 117L7.23584 80.0129C6.83232 80.0129 6.50521 80.34 6.50521 80.7435L6.50521 116.269C6.50521 116.673 6.83232 117 7.23584 117Z" fill="#EE7623" fill-opacity="0.5"/>
<path d="M5.77441 117L5.77441 80.0129C5.3709 80.0129 5.04378 80.34 5.04378 80.7435L5.04378 116.269C5.04378 116.673 5.3709 117 5.77441 117Z" fill="#EE7623" fill-opacity="0.5"/>
<path d="M4.31348 117L4.31348 80.0129C3.90996 80.0129 3.58285 80.34 3.58285 80.7435L3.58285 116.269C3.58285 116.673 3.90996 117 4.31348 117Z" fill="#EE7623" fill-opacity="0.5"/>
<path d="M2.85205 117L2.85205 80.0129C2.44854 80.0129 2.12142 80.34 2.12142 80.7435L2.12142 116.269C2.12142 116.673 2.44854 117 2.85205 117Z" fill="#EE7623" fill-opacity="0.5"/>
<path d="M1.39062 117L1.39063 80.0129C0.987109 80.0129 0.659995 80.34 0.659995 80.7435L0.659995 116.269C0.659995 116.673 0.987109 117 1.39062 117Z" fill="#EE7623" fill-opacity="0.5"/>
</g>
<mask id="mask1_2144_8760" style="mask-type:alpha" maskUnits="userSpaceOnUse" x="0" y="-1" width="19" height="38">
<rect x="0.660156" y="36.7715" width="36.9871" height="17.5351" rx="2.5" transform="rotate(-90 0.660156 36.7715)" fill="#A66223"/>
</mask>
<g mask="url(#mask1_2144_8760)">
<rect x="0.660156" y="36.7715" width="36.9871" height="17.5351" rx="2.5" transform="rotate(-90 0.660156 36.7715)" fill="#FFD1B0"/>
<path d="M17.4648 36.7715L17.4648 -0.215614C17.0613 -0.215614 16.7342 0.1115 16.7342 0.515018L16.7342 36.0409C16.7342 36.4444 17.0613 36.7715 17.4648 36.7715Z" fill="#EE7623" fill-opacity="0.5"/>
<path d="M16.0034 36.7715L16.0034 -0.215614C15.5999 -0.215614 15.2728 0.1115 15.2728 0.515015L15.2728 36.0409C15.2728 36.4444 15.5999 36.7715 16.0034 36.7715Z" fill="#EE7623" fill-opacity="0.5"/>
<path d="M14.542 36.7715L14.542 -0.215614C14.1385 -0.215614 13.8114 0.1115 13.8114 0.515015L13.8114 36.0409C13.8114 36.4444 14.1385 36.7715 14.542 36.7715Z" fill="#EE7623" fill-opacity="0.5"/>
<path d="M13.0811 36.7715L13.0811 -0.215614C12.6775 -0.215614 12.3504 0.1115 12.3504 0.515015L12.3504 36.0409C12.3504 36.4444 12.6775 36.7715 13.0811 36.7715Z" fill="#EE7623" fill-opacity="0.5"/>
<path d="M11.6196 36.7715L11.6196 -0.215614C11.2161 -0.215614 10.889 0.1115 10.889 0.515015L10.889 36.0409C10.889 36.4444 11.2161 36.7715 11.6196 36.7715Z" fill="#EE7623" fill-opacity="0.5"/>
<path d="M10.1582 36.7715L10.1582 -0.215614C9.75469 -0.215614 9.42757 0.1115 9.42757 0.515015L9.42757 36.0409C9.42757 36.4444 9.75469 36.7715 10.1582 36.7715Z" fill="#EE7623" fill-opacity="0.5"/>
<path d="M8.69727 36.7715L8.69727 -0.215614C8.29375 -0.215614 7.96664 0.1115 7.96664 0.515015L7.96664 36.0409C7.96664 36.4444 8.29375 36.7715 8.69727 36.7715Z" fill="#EE7623" fill-opacity="0.5"/>
<path d="M7.23584 36.7715L7.23584 -0.215614C6.83232 -0.215614 6.50521 0.1115 6.50521 0.515015L6.50521 36.0409C6.50521 36.4444 6.83232 36.7715 7.23584 36.7715Z" fill="#EE7623" fill-opacity="0.5"/>
<path d="M5.77441 36.7715L5.77441 -0.215614C5.3709 -0.215614 5.04378 0.1115 5.04378 0.515015L5.04378 36.0409C5.04378 36.4444 5.3709 36.7715 5.77441 36.7715Z" fill="#EE7623" fill-opacity="0.5"/>
<path d="M4.31348 36.7715L4.31348 -0.215614C3.90996 -0.215614 3.58285 0.1115 3.58285 0.515015L3.58285 36.0409C3.58285 36.4444 3.90996 36.7715 4.31348 36.7715Z" fill="#EE7623" fill-opacity="0.5"/>
<path d="M2.85205 36.7715L2.85205 -0.215614C2.44854 -0.215614 2.12142 0.1115 2.12142 0.515015L2.12142 36.0409C2.12142 36.4444 2.44854 36.7715 2.85205 36.7715Z" fill="#EE7623" fill-opacity="0.5"/>
<path d="M1.39062 36.7715L1.39063 -0.215614C0.987109 -0.215614 0.659995 0.1115 0.659995 0.515015L0.659995 36.0409C0.659995 36.4444 0.987109 36.7715 1.39062 36.7715Z" fill="#EE7623" fill-opacity="0.5"/>
</g>
</svg>
