<svg width="120" height="30" viewBox="0 0 120 30" fill="none" xmlns="http://www.w3.org/2000/svg">
<mask id="mask0_2144_8649" style="mask-type:alpha" maskUnits="userSpaceOnUse" x="0" y="0" width="60" height="18">
<rect y="0.657959" width="59.027" height="16.8533" rx="2.5" fill="#A66223"/>
</mask>
<g mask="url(#mask0_2144_8649)">
<rect y="0.657959" width="59.027" height="16.8533" rx="2.5" fill="#FFD1B0"/>
<path d="M0 16.863H59.027C59.027 17.221 58.7368 17.5112 58.3788 17.5112H0.648202C0.290209 17.5112 0 17.221 0 16.863Z" fill="#EE7623" fill-opacity="0.5"/>
<path d="M0 15.5667H59.027C59.027 15.9246 58.7368 16.2149 58.3788 16.2149H0.648205C0.290212 16.2149 0 15.9246 0 15.5667Z" fill="#EE7623" fill-opacity="0.5"/>
<path d="M0 14.2703H59.027C59.027 14.6283 58.7368 14.9185 58.3788 14.9185H0.648205C0.290212 14.9185 0 14.6283 0 14.2703Z" fill="#EE7623" fill-opacity="0.5"/>
<path d="M0 12.9739H59.027C59.027 13.3319 58.7368 13.6221 58.3788 13.6221H0.648205C0.290212 13.6221 0 13.3319 0 12.9739Z" fill="#EE7623" fill-opacity="0.5"/>
<path d="M0 11.6775H59.027C59.027 12.0355 58.7368 12.3257 58.3788 12.3257H0.648205C0.290212 12.3257 0 12.0355 0 11.6775Z" fill="#EE7623" fill-opacity="0.5"/>
<path d="M0 10.3811H59.027C59.027 10.7391 58.7368 11.0293 58.3788 11.0293H0.648205C0.290212 11.0293 0 10.7391 0 10.3811Z" fill="#EE7623" fill-opacity="0.5"/>
<path d="M0 9.08472H59.027C59.027 9.44271 58.7368 9.73292 58.3788 9.73292H0.648205C0.290212 9.73292 0 9.44271 0 9.08472Z" fill="#EE7623" fill-opacity="0.5"/>
<path d="M0 7.78809H59.027C59.027 8.14608 58.7368 8.43629 58.3788 8.43629H0.648205C0.290213 8.43629 0 8.14608 0 7.78809Z" fill="#EE7623" fill-opacity="0.5"/>
<path d="M0 6.4917H59.027C59.027 6.84969 58.7368 7.1399 58.3788 7.1399H0.648205C0.290212 7.1399 0 6.84969 0 6.4917Z" fill="#EE7623" fill-opacity="0.5"/>
<path d="M0 5.19531H59.027C59.027 5.55331 58.7368 5.84352 58.3788 5.84352H0.648205C0.290212 5.84352 0 5.55331 0 5.19531Z" fill="#EE7623" fill-opacity="0.5"/>
<path d="M0 3.89893H59.027C59.027 4.25692 58.7368 4.54713 58.3788 4.54713H0.648205C0.290212 4.54713 0 4.25692 0 3.89893Z" fill="#EE7623" fill-opacity="0.5"/>
<path d="M0 2.60254H59.027C59.027 2.96053 58.7368 3.25074 58.3788 3.25074H0.648205C0.290212 3.25074 0 2.96053 0 2.60254Z" fill="#EE7623" fill-opacity="0.5"/>
<path d="M0 1.30615H59.027C59.027 1.66415 58.7368 1.95436 58.3788 1.95436H0.648205C0.290212 1.95436 0 1.66415 0 1.30615Z" fill="#EE7623" fill-opacity="0.5"/>
</g>
<mask id="mask1_2144_8649" style="mask-type:alpha" maskUnits="userSpaceOnUse" x="60" y="0" width="60" height="18">
<rect x="60.9731" y="0.657959" width="59.027" height="16.8533" rx="2.5" fill="#A66223"/>
</mask>
<g mask="url(#mask1_2144_8649)">
<rect x="60.9731" y="0.657959" width="59.027" height="16.8533" rx="2.5" fill="#FFD1B0"/>
<path d="M60.9731 16.863H120C120 17.221 119.71 17.5112 119.352 17.5112H61.6213C61.2634 17.5112 60.9731 17.221 60.9731 16.863Z" fill="#EE7623" fill-opacity="0.5"/>
<path d="M60.9731 15.5667H120C120 15.9246 119.71 16.2149 119.352 16.2149H61.6213C61.2634 16.2149 60.9731 15.9246 60.9731 15.5667Z" fill="#EE7623" fill-opacity="0.5"/>
<path d="M60.9731 14.2703H120C120 14.6283 119.71 14.9185 119.352 14.9185H61.6213C61.2634 14.9185 60.9731 14.6283 60.9731 14.2703Z" fill="#EE7623" fill-opacity="0.5"/>
<path d="M60.9731 12.9739H120C120 13.3319 119.71 13.6221 119.352 13.6221H61.6213C61.2634 13.6221 60.9731 13.3319 60.9731 12.9739Z" fill="#EE7623" fill-opacity="0.5"/>
<path d="M60.9731 11.6775H120C120 12.0355 119.71 12.3257 119.352 12.3257H61.6213C61.2634 12.3257 60.9731 12.0355 60.9731 11.6775Z" fill="#EE7623" fill-opacity="0.5"/>
<path d="M60.9731 10.3811H120C120 10.7391 119.71 11.0293 119.352 11.0293H61.6213C61.2634 11.0293 60.9731 10.7391 60.9731 10.3811Z" fill="#EE7623" fill-opacity="0.5"/>
<path d="M60.9731 9.08472H120C120 9.44271 119.71 9.73292 119.352 9.73292H61.6213C61.2634 9.73292 60.9731 9.44271 60.9731 9.08472Z" fill="#EE7623" fill-opacity="0.5"/>
<path d="M60.9731 7.78809H120C120 8.14608 119.71 8.43629 119.352 8.43629H61.6213C61.2634 8.43629 60.9731 8.14608 60.9731 7.78809Z" fill="#EE7623" fill-opacity="0.5"/>
<path d="M60.9731 6.4917H120C120 6.84969 119.71 7.1399 119.352 7.1399H61.6213C61.2634 7.1399 60.9731 6.84969 60.9731 6.4917Z" fill="#EE7623" fill-opacity="0.5"/>
<path d="M60.9731 5.19531H120C120 5.55331 119.71 5.84352 119.352 5.84352H61.6213C61.2634 5.84352 60.9731 5.55331 60.9731 5.19531Z" fill="#EE7623" fill-opacity="0.5"/>
<path d="M60.9731 3.89893H120C120 4.25692 119.71 4.54713 119.352 4.54713H61.6213C61.2634 4.54713 60.9731 4.25692 60.9731 3.89893Z" fill="#EE7623" fill-opacity="0.5"/>
<path d="M60.9731 2.60254H120C120 2.96053 119.71 3.25074 119.352 3.25074H61.6213C61.2634 3.25074 60.9731 2.96053 60.9731 2.60254Z" fill="#EE7623" fill-opacity="0.5"/>
<path d="M60.9731 1.30615H120C120 1.66415 119.71 1.95436 119.352 1.95436H61.6213C61.2634 1.95436 60.9731 1.66415 60.9731 1.30615Z" fill="#EE7623" fill-opacity="0.5"/>
</g>
<path fill-rule="evenodd" clip-rule="evenodd" d="M107.027 17.5112H12.9731V25.9379L16.865 29.8271H103.135L107.027 25.9379V17.5112ZM19.6542 26.975C20.8364 26.975 21.7948 26.0173 21.7948 24.8359C21.7948 23.6546 20.8364 22.6969 19.6542 22.6969C18.472 22.6969 17.5137 23.6546 17.5137 24.8359C17.5137 26.0173 18.472 26.975 19.6542 26.975ZM100.346 26.975C99.1639 26.975 98.2056 26.0173 98.2056 24.8359C98.2056 23.6546 99.1639 22.6969 100.346 22.6969C101.528 22.6969 102.487 23.6546 102.487 24.8359C102.487 26.0173 101.528 26.975 100.346 26.975Z" fill="#C4D7E5"/>
</svg>
