<svg width="185" height="109" viewBox="0 0 185 109" fill="none" xmlns="http://www.w3.org/2000/svg">
<g clip-path="url(#clip0_1797_7696)">
<mask id="mask0_1797_7696" style="mask-type:alpha" maskUnits="userSpaceOnUse" x="0" y="64" width="91" height="26">
<rect y="64" width="91" height="26" rx="2.5" fill="#A66223"/>
</mask>
<g mask="url(#mask0_1797_7696)">
<rect y="64" width="91" height="26" rx="2.5" fill="#FFD1B0"/>
<path d="M0 89H91C91 89.5523 90.5523 90 90 90H1C0.447715 90 0 89.5523 0 89Z" fill="#EE7623" fill-opacity="0.5"/>
<path d="M0 87H91C91 87.5523 90.5523 88 90 88H1C0.447715 88 0 87.5523 0 87Z" fill="#EE7623" fill-opacity="0.5"/>
<path d="M0 85H91C91 85.5523 90.5523 86 90 86H1C0.447715 86 0 85.5523 0 85Z" fill="#EE7623" fill-opacity="0.5"/>
<path d="M0 83H91C91 83.5523 90.5523 84 90 84H1C0.447715 84 0 83.5523 0 83Z" fill="#EE7623" fill-opacity="0.5"/>
<path d="M0 81H91C91 81.5523 90.5523 82 90 82H1C0.447715 82 0 81.5523 0 81Z" fill="#EE7623" fill-opacity="0.5"/>
<path d="M0 79H91C91 79.5523 90.5523 80 90 80H1C0.447715 80 0 79.5523 0 79Z" fill="#EE7623" fill-opacity="0.5"/>
<path d="M0 77H91C91 77.5523 90.5523 78 90 78H1C0.447715 78 0 77.5523 0 77Z" fill="#EE7623" fill-opacity="0.5"/>
<path d="M0 75H91C91 75.5523 90.5523 76 90 76H1C0.447715 76 0 75.5523 0 75Z" fill="#EE7623" fill-opacity="0.5"/>
<path d="M0 73H91C91 73.5523 90.5523 74 90 74H1C0.447715 74 0 73.5523 0 73Z" fill="#EE7623" fill-opacity="0.5"/>
<path d="M0 71H91C91 71.5523 90.5523 72 90 72H1C0.447715 72 0 71.5523 0 71Z" fill="#EE7623" fill-opacity="0.5"/>
<path d="M0 69H91C91 69.5523 90.5523 70 90 70H1C0.447715 70 0 69.5523 0 69Z" fill="#EE7623" fill-opacity="0.5"/>
<path d="M0 67H91C91 67.5523 90.5523 68 90 68H1C0.447715 68 0 67.5523 0 67Z" fill="#EE7623" fill-opacity="0.5"/>
<path d="M0 65H91C91 65.5523 90.5523 66 90 66H1C0.447715 66 0 65.5523 0 65Z" fill="#EE7623" fill-opacity="0.5"/>
</g>
<mask id="mask1_1797_7696" style="mask-type:alpha" maskUnits="userSpaceOnUse" x="94" y="64" width="91" height="26">
<rect x="94" y="64" width="91" height="26" rx="2.5" fill="#A66223"/>
</mask>
<g mask="url(#mask1_1797_7696)">
<rect x="94" y="64" width="91" height="26" rx="2.5" fill="#FFD1B0"/>
<path d="M94 89H185C185 89.5523 184.552 90 184 90H95C94.4477 90 94 89.5523 94 89Z" fill="#EE7623" fill-opacity="0.5"/>
<path d="M94 87H185C185 87.5523 184.552 88 184 88H95C94.4477 88 94 87.5523 94 87Z" fill="#EE7623" fill-opacity="0.5"/>
<path d="M94 85H185C185 85.5523 184.552 86 184 86H95C94.4477 86 94 85.5523 94 85Z" fill="#EE7623" fill-opacity="0.5"/>
<path d="M94 83H185C185 83.5523 184.552 84 184 84H95C94.4477 84 94 83.5523 94 83Z" fill="#EE7623" fill-opacity="0.5"/>
<path d="M94 81H185C185 81.5523 184.552 82 184 82H95C94.4477 82 94 81.5523 94 81Z" fill="#EE7623" fill-opacity="0.5"/>
<path d="M94 79H185C185 79.5523 184.552 80 184 80H95C94.4477 80 94 79.5523 94 79Z" fill="#EE7623" fill-opacity="0.5"/>
<path d="M94 77H185C185 77.5523 184.552 78 184 78H95C94.4477 78 94 77.5523 94 77Z" fill="#EE7623" fill-opacity="0.5"/>
<path d="M94 75H185C185 75.5523 184.552 76 184 76H95C94.4477 76 94 75.5523 94 75Z" fill="#EE7623" fill-opacity="0.5"/>
<path d="M94 73H185C185 73.5523 184.552 74 184 74H95C94.4477 74 94 73.5523 94 73Z" fill="#EE7623" fill-opacity="0.5"/>
<path d="M94 71H185C185 71.5523 184.552 72 184 72H95C94.4477 72 94 71.5523 94 71Z" fill="#EE7623" fill-opacity="0.5"/>
<path d="M94 69H185C185 69.5523 184.552 70 184 70H95C94.4477 70 94 69.5523 94 69Z" fill="#EE7623" fill-opacity="0.5"/>
<path d="M94 67H185C185 67.5523 184.552 68 184 68H95C94.4477 68 94 67.5523 94 67Z" fill="#EE7623" fill-opacity="0.5"/>
<path d="M94 65H185C185 65.5523 184.552 66 184 66H95C94.4477 66 94 65.5523 94 65Z" fill="#EE7623" fill-opacity="0.5"/>
</g>
<path fill-rule="evenodd" clip-rule="evenodd" d="M165 90H20V103L26 109H159L165 103V90ZM30.3 104.6C32.1225 104.6 33.6 103.123 33.6 101.3C33.6 99.4775 32.1225 98 30.3 98C28.4775 98 27 99.4775 27 101.3C27 103.123 28.4775 104.6 30.3 104.6ZM154.7 104.6C152.877 104.6 151.4 103.123 151.4 101.3C151.4 99.4775 152.877 98 154.7 98C156.523 98 158 99.4775 158 101.3C158 103.123 156.523 104.6 154.7 104.6Z" fill="#C4D7E5"/>
<rect width="185" height="15" rx="5" fill="#5894A7"/>
</g>
<defs>
<clipPath id="clip0_1797_7696">
<rect width="185" height="109" fill="white"/>
</clipPath>
</defs>
</svg>
