<svg xmlns="http://www.w3.org/2000/svg" viewBox="0 0 698.76 199.65"><defs><style>.cls-1{fill:#130e4a;}.cls-2{fill:#bcd6f1;}</style></defs><g id="Capa_2" data-name="Capa 2"><g id="Capa_1-2" data-name="Capa 1"><rect class="cls-1" width="698.76" height="199.64" rx="95.37"/><polygon class="cls-2" points="111.35 62.16 131.42 62.16 98.71 118.81 164.35 118.85 153.47 137.7 67.81 137.58 111.35 62.16"/><polygon class="cls-2" points="201.92 81.04 212.82 62.16 297.81 62.16 270.84 81.04 201.92 81.04"/><path class="cls-2" d="M316.69,62.16h18.89l-32.73,56.69h23.72a18.89,18.89,0,0,0,16.35-9.44L370.31,62H389.2l-32.83,56.84a37.75,37.75,0,0,1-32.71,18.89H273.11Z"/><polygon class="cls-2" points="414.38 61.97 433.15 61.97 389.54 137.7 370.65 137.7 414.38 61.97"/><path class="cls-2" d="M517.52,62.16H483.28A37.79,37.79,0,0,0,450.57,81L426,123.54a9.44,9.44,0,0,0,8.18,14.16h34.23a37.78,37.78,0,0,0,32.71-18.89l24.53-42.49A9.44,9.44,0,0,0,517.52,62.16Zm-29.79,47.21a18.9,18.9,0,0,1-16.36,9.44H447.65L464,90.48A18.89,18.89,0,0,1,480.36,81h23.72Z"/><path class="cls-2" d="M565.46,62h56a9.44,9.44,0,0,1,8.17,14.16L594.13,137.7H575.24l28.62-49.57A4.72,4.72,0,0,0,599.77,81H573.33l-32.65,56.54H521.73Z"/><polygon class="cls-2" points="196.47 90.49 257.35 90.49 230.38 109.37 185.56 109.37 196.47 90.49"/><polygon class="cls-2" points="180.09 118.85 265.07 118.85 254.19 137.7 169.21 137.7 180.09 118.85"/><polygon class="cls-2" points="509.86 52.31 536.83 33.42 504.69 33.87 494.04 52.31 509.86 52.31"/></g></g></svg>