<svg width="677" height="26" viewBox="0 0 677 26" fill="none" xmlns="http://www.w3.org/2000/svg">
<rect x="224.705" y="12.4197" width="7.25609" height="11.9228" rx="2" fill="#FFCAA6"/>
<rect x="232.195" y="12.4197" width="7.25609" height="11.9228" rx="2" fill="#FAA76E"/>
<rect x="239.686" y="12.4197" width="7.25609" height="11.9228" rx="2" fill="#E28D52"/>
<rect x="247.176" y="12.4197" width="7.25609" height="11.9228" rx="2" fill="#FFCAA6"/>
<rect x="254.666" y="12.4197" width="7.25609" height="11.9228" rx="2" fill="#FAA76E"/>
<rect x="262.156" y="12.4197" width="7.25609" height="11.9228" rx="2" fill="#E28D52"/>
<rect x="269.646" y="12.4197" width="7.25609" height="11.9228" rx="2" fill="#FFCAA6"/>
<rect x="277.136" y="12.4197" width="7.25609" height="11.9228" rx="2" fill="#FAA76E"/>
<rect x="284.626" y="12.4197" width="7.25608" height="11.9228" rx="2" fill="#E28D52"/>
<rect x="292.116" y="12.4197" width="7.25609" height="11.9228" rx="2" fill="#FFCAA6"/>
<rect x="299.606" y="12.4197" width="7.25609" height="11.9228" rx="2" fill="#FAA76E"/>
<rect x="307.097" y="12.4197" width="7.25609" height="11.9228" rx="2" fill="#E28D52"/>
<rect x="314.587" y="12.4197" width="7.2561" height="11.9228" rx="2" fill="#FFCAA6"/>
<rect x="322.077" y="12.4197" width="7.25609" height="11.9228" rx="2" fill="#FAA76E"/>
<rect x="329.567" y="12.4197" width="7.25609" height="11.9228" rx="2" fill="#E28D52"/>
<rect x="226.812" y="24.3425" width="3.04288" height="0.99357" fill="#9CBDD7"/>
<rect x="229.854" y="24.3425" width="4.44728" height="0.99357" fill="#5894A7"/>
<rect x="237.345" y="24.3425" width="4.44728" height="0.99357" fill="#5894A7"/>
<rect x="244.835" y="24.3425" width="4.44728" height="0.99357" fill="#5894A7"/>
<rect x="252.325" y="24.3425" width="4.44728" height="0.99357" fill="#5894A7"/>
<rect x="259.815" y="24.3425" width="4.44728" height="0.99357" fill="#5894A7"/>
<rect x="267.306" y="24.3425" width="4.44728" height="0.99357" fill="#5894A7"/>
<rect x="274.796" y="24.3425" width="4.44728" height="0.99357" fill="#5894A7"/>
<rect x="282.286" y="24.3425" width="4.44728" height="0.99357" fill="#5894A7"/>
<rect x="289.775" y="24.3425" width="4.44728" height="0.99357" fill="#5894A7"/>
<rect x="297.266" y="24.3425" width="4.44728" height="0.99357" fill="#5894A7"/>
<rect x="304.756" y="24.3425" width="4.44728" height="0.99357" fill="#5894A7"/>
<rect x="312.246" y="24.3425" width="4.44728" height="0.99357" fill="#5894A7"/>
<rect x="319.736" y="24.3425" width="4.44728" height="0.99357" fill="#5894A7"/>
<rect x="327.227" y="24.3425" width="4.44728" height="0.99357" fill="#5894A7"/>
<rect x="334.717" y="24.3425" width="4.44728" height="0.99357" fill="#5894A7"/>
<rect x="234.302" y="24.3425" width="3.04288" height="0.99357" fill="#9CBDD7"/>
<rect x="241.792" y="24.3425" width="3.04288" height="0.99357" fill="#9CBDD7"/>
<rect x="249.282" y="24.3425" width="3.04288" height="0.99357" fill="#9CBDD7"/>
<rect x="256.772" y="24.3425" width="3.04287" height="0.99357" fill="#9CBDD7"/>
<rect x="264.263" y="24.3425" width="3.04288" height="0.99357" fill="#9CBDD7"/>
<rect x="271.753" y="24.3425" width="3.04287" height="0.99357" fill="#9CBDD7"/>
<rect x="279.243" y="24.3425" width="3.04288" height="0.99357" fill="#9CBDD7"/>
<rect x="286.733" y="24.3425" width="3.04287" height="0.99357" fill="#9CBDD7"/>
<rect x="294.223" y="24.3425" width="3.04288" height="0.99357" fill="#9CBDD7"/>
<rect x="301.713" y="24.3425" width="3.04288" height="0.99357" fill="#9CBDD7"/>
<rect x="309.203" y="24.3425" width="3.04288" height="0.99357" fill="#9CBDD7"/>
<rect x="316.693" y="24.3425" width="3.04287" height="0.99357" fill="#9CBDD7"/>
<rect x="324.184" y="24.3425" width="3.04288" height="0.99357" fill="#9CBDD7"/>
<rect x="331.674" y="24.3425" width="3.04288" height="0.99357" fill="#9CBDD7"/>
<path fill-rule="evenodd" clip-rule="evenodd" d="M339.164 5.96142V11.9228H334.717V12.4196H331.674V11.9228H327.226V12.4196H324.184V11.9228H319.736V12.4196H316.693V11.9228H312.246V12.4196H309.203V11.9228H304.756V12.4196H301.713V11.9228H297.266V12.4196H294.223V11.9228H289.776V12.4196H286.733V11.9228H282.285V12.4196H279.243V11.9228H274.795V12.4196H271.752V11.9228H267.305V12.4196H264.262V11.9228H259.815V12.4196H256.772V11.9228H252.325V12.4196H249.282V11.9228H244.835V12.4196H241.792V11.9228H237.345V12.4196H234.302V11.9228H229.854V12.4196H226.812V11.9228V5.96142H250.218L253.027 0H256.538L259.347 5.96142H306.629L309.437 0H312.948L315.757 5.96142H339.164ZM254.783 4.47107C255.106 4.47107 255.368 3.91502 255.368 3.2291C255.368 2.54319 255.106 1.98714 254.783 1.98714C254.459 1.98714 254.197 2.54319 254.197 3.2291C254.197 3.91502 254.459 4.47107 254.783 4.47107ZM311.193 4.47107C310.87 4.47107 310.608 3.91502 310.608 3.2291C310.608 2.54319 310.87 1.98714 311.193 1.98714C311.516 1.98714 311.778 2.54319 311.778 3.2291C311.778 3.91502 311.516 4.47107 311.193 4.47107Z" fill="#9CBDD7"/>
<rect x="112.353" y="12.4197" width="7.25609" height="11.9228" rx="2" fill="#FFCAA6"/>
<rect x="119.843" y="12.4197" width="7.25609" height="11.9228" rx="2" fill="#FAA76E"/>
<rect x="127.333" y="12.4197" width="7.25609" height="11.9228" rx="2" fill="#E28D52"/>
<rect x="134.823" y="12.4197" width="7.25609" height="11.9228" rx="2" fill="#FFCAA6"/>
<rect x="142.313" y="12.4197" width="7.25609" height="11.9228" rx="2" fill="#FAA76E"/>
<rect x="149.804" y="12.4197" width="7.25609" height="11.9228" rx="2" fill="#E28D52"/>
<rect x="157.294" y="12.4197" width="7.25609" height="11.9228" rx="2" fill="#FFCAA6"/>
<rect x="164.783" y="12.4197" width="7.25609" height="11.9228" rx="2" fill="#FAA76E"/>
<rect x="172.273" y="12.4197" width="7.25608" height="11.9228" rx="2" fill="#E28D52"/>
<rect x="179.764" y="12.4197" width="7.25609" height="11.9228" rx="2" fill="#FFCAA6"/>
<rect x="187.254" y="12.4197" width="7.25609" height="11.9228" rx="2" fill="#FAA76E"/>
<rect x="194.744" y="12.4197" width="7.25609" height="11.9228" rx="2" fill="#E28D52"/>
<rect x="202.234" y="12.4197" width="7.2561" height="11.9228" rx="2" fill="#FFCAA6"/>
<rect x="209.725" y="12.4197" width="7.25609" height="11.9228" rx="2" fill="#FAA76E"/>
<rect x="217.215" y="12.4197" width="7.25609" height="11.9228" rx="2" fill="#E28D52"/>
<rect x="114.459" y="24.3425" width="3.04288" height="0.99357" fill="#9CBDD7"/>
<rect x="117.502" y="24.3425" width="4.44728" height="0.99357" fill="#5894A7"/>
<rect x="124.992" y="24.3425" width="4.44728" height="0.99357" fill="#5894A7"/>
<rect x="132.482" y="24.3425" width="4.44728" height="0.99357" fill="#5894A7"/>
<rect x="139.973" y="24.3425" width="4.44728" height="0.99357" fill="#5894A7"/>
<rect x="147.463" y="24.3425" width="4.44728" height="0.99357" fill="#5894A7"/>
<rect x="154.953" y="24.3425" width="4.44728" height="0.99357" fill="#5894A7"/>
<rect x="162.443" y="24.3425" width="4.44728" height="0.99357" fill="#5894A7"/>
<rect x="169.934" y="24.3425" width="4.44728" height="0.99357" fill="#5894A7"/>
<rect x="177.423" y="24.3425" width="4.44728" height="0.99357" fill="#5894A7"/>
<rect x="184.913" y="24.3425" width="4.44728" height="0.99357" fill="#5894A7"/>
<rect x="192.403" y="24.3425" width="4.44728" height="0.99357" fill="#5894A7"/>
<rect x="199.894" y="24.3425" width="4.44728" height="0.99357" fill="#5894A7"/>
<rect x="207.384" y="24.3425" width="4.44728" height="0.99357" fill="#5894A7"/>
<rect x="214.874" y="24.3425" width="4.44728" height="0.99357" fill="#5894A7"/>
<rect x="222.364" y="24.3425" width="4.44728" height="0.99357" fill="#5894A7"/>
<rect x="121.949" y="24.3425" width="3.04288" height="0.99357" fill="#9CBDD7"/>
<rect x="129.439" y="24.3425" width="3.04288" height="0.99357" fill="#9CBDD7"/>
<rect x="136.93" y="24.3425" width="3.04288" height="0.99357" fill="#9CBDD7"/>
<rect x="144.42" y="24.3425" width="3.04287" height="0.99357" fill="#9CBDD7"/>
<rect x="151.91" y="24.3425" width="3.04288" height="0.99357" fill="#9CBDD7"/>
<rect x="159.4" y="24.3425" width="3.04287" height="0.99357" fill="#9CBDD7"/>
<rect x="166.891" y="24.3425" width="3.04288" height="0.99357" fill="#9CBDD7"/>
<rect x="174.381" y="24.3425" width="3.04287" height="0.99357" fill="#9CBDD7"/>
<rect x="181.87" y="24.3425" width="3.04288" height="0.99357" fill="#9CBDD7"/>
<rect x="189.36" y="24.3425" width="3.04288" height="0.99357" fill="#9CBDD7"/>
<rect x="196.851" y="24.3425" width="3.04288" height="0.99357" fill="#9CBDD7"/>
<rect x="204.341" y="24.3425" width="3.04287" height="0.99357" fill="#9CBDD7"/>
<rect x="211.831" y="24.3425" width="3.04288" height="0.99357" fill="#9CBDD7"/>
<rect x="219.321" y="24.3425" width="3.04288" height="0.99357" fill="#9CBDD7"/>
<path fill-rule="evenodd" clip-rule="evenodd" d="M226.811 5.96142V11.9228H222.364V12.4196H219.321V11.9228H214.874V12.4196H211.831V11.9228H207.384V12.4196H204.341V11.9228H199.894V12.4196H196.851V11.9228H192.403V12.4196H189.361V11.9228H184.913V12.4196H181.87V11.9228H177.423V12.4196H174.38V11.9228H169.933V12.4196H166.89V11.9228H162.443V12.4196H159.4V11.9228H154.953V12.4196H151.91V11.9228H147.462V12.4196H144.42V11.9228H139.972V12.4196H136.929V11.9228H132.482V12.4196H129.439V11.9228H124.992V12.4196H121.949V11.9228H117.502V12.4196H114.459V11.9228V5.96142H137.866L140.675 0H144.186L146.994 5.96142H194.276L197.085 0H200.596L203.405 5.96142H226.811ZM142.43 4.47107C142.753 4.47107 143.015 3.91502 143.015 3.2291C143.015 2.54319 142.753 1.98714 142.43 1.98714C142.107 1.98714 141.845 2.54319 141.845 3.2291C141.845 3.91502 142.107 4.47107 142.43 4.47107ZM198.84 4.47107C198.517 4.47107 198.255 3.91502 198.255 3.2291C198.255 2.54319 198.517 1.98714 198.84 1.98714C199.163 1.98714 199.425 2.54319 199.425 3.2291C199.425 3.91502 199.163 4.47107 198.84 4.47107Z" fill="#9CBDD7"/>
<rect y="12.4197" width="7.25609" height="11.9228" rx="2" fill="#FFCAA6"/>
<rect x="7.49023" y="12.4197" width="7.25609" height="11.9228" rx="2" fill="#FAA76E"/>
<rect x="14.9805" y="12.4197" width="7.25609" height="11.9228" rx="2" fill="#E28D52"/>
<rect x="22.4707" y="12.4197" width="7.25609" height="11.9228" rx="2" fill="#FFCAA6"/>
<rect x="29.9609" y="12.4197" width="7.25609" height="11.9228" rx="2" fill="#FAA76E"/>
<rect x="37.4512" y="12.4197" width="7.25609" height="11.9228" rx="2" fill="#E28D52"/>
<rect x="44.9414" y="12.4197" width="7.25609" height="11.9228" rx="2" fill="#FFCAA6"/>
<rect x="52.4307" y="12.4197" width="7.25609" height="11.9228" rx="2" fill="#FAA76E"/>
<rect x="59.9209" y="12.4197" width="7.25608" height="11.9228" rx="2" fill="#E28D52"/>
<rect x="67.4111" y="12.4197" width="7.25609" height="11.9228" rx="2" fill="#FFCAA6"/>
<rect x="74.9014" y="12.4197" width="7.25609" height="11.9228" rx="2" fill="#FAA76E"/>
<rect x="82.3916" y="12.4197" width="7.25609" height="11.9228" rx="2" fill="#E28D52"/>
<rect x="89.8818" y="12.4197" width="7.2561" height="11.9228" rx="2" fill="#FFCAA6"/>
<rect x="97.3721" y="12.4197" width="7.25609" height="11.9228" rx="2" fill="#FAA76E"/>
<rect x="104.862" y="12.4197" width="7.25609" height="11.9228" rx="2" fill="#E28D52"/>
<rect x="2.10645" y="24.3425" width="3.04288" height="0.99357" fill="#9CBDD7"/>
<rect x="5.14941" y="24.3425" width="4.44728" height="0.99357" fill="#5894A7"/>
<rect x="12.6396" y="24.3425" width="4.44728" height="0.99357" fill="#5894A7"/>
<rect x="20.1299" y="24.3425" width="4.44728" height="0.99357" fill="#5894A7"/>
<rect x="27.6201" y="24.3425" width="4.44728" height="0.99357" fill="#5894A7"/>
<rect x="35.1104" y="24.3425" width="4.44728" height="0.99357" fill="#5894A7"/>
<rect x="42.6006" y="24.3425" width="4.44728" height="0.99357" fill="#5894A7"/>
<rect x="50.0908" y="24.3425" width="4.44728" height="0.99357" fill="#5894A7"/>
<rect x="57.5811" y="24.3425" width="4.44728" height="0.99357" fill="#5894A7"/>
<rect x="65.0703" y="24.3425" width="4.44728" height="0.99357" fill="#5894A7"/>
<rect x="72.5605" y="24.3425" width="4.44728" height="0.99357" fill="#5894A7"/>
<rect x="80.0508" y="24.3425" width="4.44728" height="0.99357" fill="#5894A7"/>
<rect x="87.541" y="24.3425" width="4.44728" height="0.99357" fill="#5894A7"/>
<rect x="95.0312" y="24.3425" width="4.44728" height="0.99357" fill="#5894A7"/>
<rect x="102.521" y="24.3425" width="4.44728" height="0.99357" fill="#5894A7"/>
<rect x="110.012" y="24.3425" width="4.44728" height="0.99357" fill="#5894A7"/>
<rect x="9.59668" y="24.3425" width="3.04288" height="0.99357" fill="#9CBDD7"/>
<rect x="17.0869" y="24.3425" width="3.04288" height="0.99357" fill="#9CBDD7"/>
<rect x="24.5771" y="24.3425" width="3.04288" height="0.99357" fill="#9CBDD7"/>
<rect x="32.0674" y="24.3425" width="3.04287" height="0.99357" fill="#9CBDD7"/>
<rect x="39.5576" y="24.3425" width="3.04288" height="0.99357" fill="#9CBDD7"/>
<rect x="47.0479" y="24.3425" width="3.04287" height="0.99357" fill="#9CBDD7"/>
<rect x="54.5381" y="24.3425" width="3.04288" height="0.99357" fill="#9CBDD7"/>
<rect x="62.0283" y="24.3425" width="3.04287" height="0.99357" fill="#9CBDD7"/>
<rect x="69.5176" y="24.3425" width="3.04288" height="0.99357" fill="#9CBDD7"/>
<rect x="77.0078" y="24.3425" width="3.04288" height="0.99357" fill="#9CBDD7"/>
<rect x="84.498" y="24.3425" width="3.04288" height="0.99357" fill="#9CBDD7"/>
<rect x="91.9883" y="24.3425" width="3.04287" height="0.99357" fill="#9CBDD7"/>
<rect x="99.4785" y="24.3425" width="3.04288" height="0.99357" fill="#9CBDD7"/>
<rect x="106.969" y="24.3425" width="3.04288" height="0.99357" fill="#9CBDD7"/>
<path fill-rule="evenodd" clip-rule="evenodd" d="M114.459 5.96142V11.9228H110.012V12.4196H106.969V11.9228H102.521V12.4196H99.4785V11.9228H95.0312V12.4196H91.9883V11.9228H87.541V12.4196H84.4982V11.9228H80.0509V12.4196H77.008V11.9228H72.5607V12.4196H69.5179V11.9228H65.0706V12.4196H62.0277V11.9228H57.5804V12.4196H54.5375V11.9228H50.0903V12.4196H47.0474V11.9228H42.6001V12.4196H39.5572V11.9228H35.1099V12.4196H32.0671V11.9228H27.6198V12.4196H24.5769V11.9228H20.1296V12.4196H17.0868V11.9228H12.6395V12.4196H9.5966V11.9228H5.14932V12.4196H2.10645V11.9228V5.96142H25.5132L28.322 0H31.833L34.6418 5.96142H81.9234L84.7322 0H88.2432L91.0521 5.96142H114.459ZM30.0775 4.47107C30.4007 4.47107 30.6627 3.91502 30.6627 3.2291C30.6627 2.54319 30.4007 1.98714 30.0775 1.98714C29.7543 1.98714 29.4923 2.54319 29.4923 3.2291C29.4923 3.91502 29.7543 4.47107 30.0775 4.47107ZM86.4877 4.47107C86.1646 4.47107 85.9026 3.91502 85.9026 3.2291C85.9026 2.54319 86.1646 1.98714 86.4877 1.98714C86.8109 1.98714 87.0729 2.54319 87.0729 3.2291C87.0729 3.91502 86.8109 4.47107 86.4877 4.47107Z" fill="#9CBDD7"/>
<rect x="561.762" y="12.4197" width="7.25609" height="11.9228" rx="2" fill="#FFCAA6"/>
<rect x="569.252" y="12.4197" width="7.25609" height="11.9228" rx="2" fill="#FAA76E"/>
<rect x="576.742" y="12.4197" width="7.25609" height="11.9228" rx="2" fill="#E28D52"/>
<rect x="584.232" y="12.4197" width="7.25609" height="11.9228" rx="2" fill="#FFCAA6"/>
<rect x="591.723" y="12.4197" width="7.25609" height="11.9228" rx="2" fill="#FAA76E"/>
<rect x="599.213" y="12.4197" width="7.25609" height="11.9228" rx="2" fill="#E28D52"/>
<rect x="606.703" y="12.4197" width="7.25609" height="11.9228" rx="2" fill="#FFCAA6"/>
<rect x="614.192" y="12.4197" width="7.25609" height="11.9228" rx="2" fill="#FAA76E"/>
<rect x="621.683" y="12.4197" width="7.25608" height="11.9228" rx="2" fill="#E28D52"/>
<rect x="629.173" y="12.4197" width="7.25609" height="11.9228" rx="2" fill="#FFCAA6"/>
<rect x="636.663" y="12.4197" width="7.25609" height="11.9228" rx="2" fill="#FAA76E"/>
<rect x="644.153" y="12.4197" width="7.25609" height="11.9228" rx="2" fill="#E28D52"/>
<rect x="651.644" y="12.4197" width="7.2561" height="11.9228" rx="2" fill="#FFCAA6"/>
<rect x="659.134" y="12.4197" width="7.25609" height="11.9228" rx="2" fill="#FAA76E"/>
<rect x="666.624" y="12.4197" width="7.25609" height="11.9228" rx="2" fill="#E28D52"/>
<rect x="563.868" y="24.3425" width="3.04288" height="0.99357" fill="#9CBDD7"/>
<rect x="566.911" y="24.3425" width="4.44728" height="0.99357" fill="#5894A7"/>
<rect x="574.401" y="24.3425" width="4.44728" height="0.99357" fill="#5894A7"/>
<rect x="581.892" y="24.3425" width="4.44728" height="0.99357" fill="#5894A7"/>
<rect x="589.382" y="24.3425" width="4.44728" height="0.99357" fill="#5894A7"/>
<rect x="596.872" y="24.3425" width="4.44728" height="0.99357" fill="#5894A7"/>
<rect x="604.362" y="24.3425" width="4.44728" height="0.99357" fill="#5894A7"/>
<rect x="611.853" y="24.3425" width="4.44728" height="0.99357" fill="#5894A7"/>
<rect x="619.343" y="24.3425" width="4.44728" height="0.99357" fill="#5894A7"/>
<rect x="626.832" y="24.3425" width="4.44728" height="0.99357" fill="#5894A7"/>
<rect x="634.322" y="24.3425" width="4.44728" height="0.99357" fill="#5894A7"/>
<rect x="641.812" y="24.3425" width="4.44728" height="0.99357" fill="#5894A7"/>
<rect x="649.303" y="24.3425" width="4.44728" height="0.99357" fill="#5894A7"/>
<rect x="656.793" y="24.3425" width="4.44728" height="0.99357" fill="#5894A7"/>
<rect x="664.283" y="24.3425" width="4.44728" height="0.99357" fill="#5894A7"/>
<rect x="671.773" y="24.3425" width="4.44728" height="0.99357" fill="#5894A7"/>
<rect x="571.358" y="24.3425" width="3.04288" height="0.99357" fill="#9CBDD7"/>
<rect x="578.849" y="24.3425" width="3.04288" height="0.99357" fill="#9CBDD7"/>
<rect x="586.339" y="24.3425" width="3.04288" height="0.99357" fill="#9CBDD7"/>
<rect x="593.829" y="24.3425" width="3.04287" height="0.99357" fill="#9CBDD7"/>
<rect x="601.319" y="24.3425" width="3.04288" height="0.99357" fill="#9CBDD7"/>
<rect x="608.81" y="24.3425" width="3.04287" height="0.99357" fill="#9CBDD7"/>
<rect x="616.3" y="24.3425" width="3.04288" height="0.99357" fill="#9CBDD7"/>
<rect x="623.79" y="24.3425" width="3.04287" height="0.99357" fill="#9CBDD7"/>
<rect x="631.279" y="24.3425" width="3.04288" height="0.99357" fill="#9CBDD7"/>
<rect x="638.77" y="24.3425" width="3.04288" height="0.99357" fill="#9CBDD7"/>
<rect x="646.26" y="24.3425" width="3.04288" height="0.99357" fill="#9CBDD7"/>
<rect x="653.75" y="24.3425" width="3.04287" height="0.99357" fill="#9CBDD7"/>
<rect x="661.24" y="24.3425" width="3.04288" height="0.99357" fill="#9CBDD7"/>
<rect x="668.73" y="24.3425" width="3.04288" height="0.99357" fill="#9CBDD7"/>
<path fill-rule="evenodd" clip-rule="evenodd" d="M676.221 5.96142V11.9228H671.773V12.4196H668.73V11.9228H664.283V12.4196H661.24V11.9228H656.793V12.4196H653.75V11.9228H649.303V12.4196H646.26V11.9228H641.813V12.4196H638.77V11.9228H634.322V12.4196H631.28V11.9228H626.832V12.4196H623.789V11.9228H619.342V12.4196H616.299V11.9228H611.852V12.4196H608.809V11.9228H604.362V12.4196H601.319V11.9228H596.872V12.4196H593.829V11.9228H589.382V12.4196H586.339V11.9228H581.891V12.4196H578.848V11.9228H574.401V12.4196H571.358V11.9228H566.911V12.4196H563.868V11.9228V5.96142H587.275L590.084 0H593.595L596.404 5.96142H643.685L646.494 0H650.005L652.814 5.96142H676.221ZM591.839 4.47107C592.162 4.47107 592.424 3.91502 592.424 3.2291C592.424 2.54319 592.162 1.98714 591.839 1.98714C591.516 1.98714 591.254 2.54319 591.254 3.2291C591.254 3.91502 591.516 4.47107 591.839 4.47107ZM648.249 4.47107C647.926 4.47107 647.664 3.91502 647.664 3.2291C647.664 2.54319 647.926 1.98714 648.249 1.98714C648.573 1.98714 648.835 2.54319 648.835 3.2291C648.835 3.91502 648.573 4.47107 648.249 4.47107Z" fill="#9CBDD7"/>
<rect x="449.409" y="12.4197" width="7.25609" height="11.9228" rx="2" fill="#FFCAA6"/>
<rect x="456.899" y="12.4197" width="7.25609" height="11.9228" rx="2" fill="#FAA76E"/>
<rect x="464.39" y="12.4197" width="7.25609" height="11.9228" rx="2" fill="#E28D52"/>
<rect x="471.88" y="12.4197" width="7.25609" height="11.9228" rx="2" fill="#FFCAA6"/>
<rect x="479.37" y="12.4197" width="7.25609" height="11.9228" rx="2" fill="#FAA76E"/>
<rect x="486.86" y="12.4197" width="7.25609" height="11.9228" rx="2" fill="#E28D52"/>
<rect x="494.351" y="12.4197" width="7.25609" height="11.9228" rx="2" fill="#FFCAA6"/>
<rect x="501.84" y="12.4197" width="7.25609" height="11.9228" rx="2" fill="#FAA76E"/>
<rect x="509.33" y="12.4197" width="7.25608" height="11.9228" rx="2" fill="#E28D52"/>
<rect x="516.82" y="12.4197" width="7.25609" height="11.9228" rx="2" fill="#FFCAA6"/>
<rect x="524.311" y="12.4197" width="7.25609" height="11.9228" rx="2" fill="#FAA76E"/>
<rect x="531.801" y="12.4197" width="7.25609" height="11.9228" rx="2" fill="#E28D52"/>
<rect x="539.291" y="12.4197" width="7.2561" height="11.9228" rx="2" fill="#FFCAA6"/>
<rect x="546.781" y="12.4197" width="7.25609" height="11.9228" rx="2" fill="#FAA76E"/>
<rect x="554.271" y="12.4197" width="7.25609" height="11.9228" rx="2" fill="#E28D52"/>
<rect x="451.516" y="24.3425" width="3.04288" height="0.99357" fill="#9CBDD7"/>
<rect x="454.559" y="24.3425" width="4.44728" height="0.99357" fill="#5894A7"/>
<rect x="462.049" y="24.3425" width="4.44728" height="0.99357" fill="#5894A7"/>
<rect x="469.539" y="24.3425" width="4.44728" height="0.99357" fill="#5894A7"/>
<rect x="477.029" y="24.3425" width="4.44728" height="0.99357" fill="#5894A7"/>
<rect x="484.52" y="24.3425" width="4.44728" height="0.99357" fill="#5894A7"/>
<rect x="492.01" y="24.3425" width="4.44728" height="0.99357" fill="#5894A7"/>
<rect x="499.5" y="24.3425" width="4.44728" height="0.99357" fill="#5894A7"/>
<rect x="506.99" y="24.3425" width="4.44728" height="0.99357" fill="#5894A7"/>
<rect x="514.479" y="24.3425" width="4.44728" height="0.99357" fill="#5894A7"/>
<rect x="521.97" y="24.3425" width="4.44728" height="0.99357" fill="#5894A7"/>
<rect x="529.46" y="24.3425" width="4.44728" height="0.99357" fill="#5894A7"/>
<rect x="536.95" y="24.3425" width="4.44728" height="0.99357" fill="#5894A7"/>
<rect x="544.44" y="24.3425" width="4.44728" height="0.99357" fill="#5894A7"/>
<rect x="551.931" y="24.3425" width="4.44728" height="0.99357" fill="#5894A7"/>
<rect x="559.421" y="24.3425" width="4.44728" height="0.99357" fill="#5894A7"/>
<rect x="459.006" y="24.3425" width="3.04288" height="0.99357" fill="#9CBDD7"/>
<rect x="466.496" y="24.3425" width="3.04288" height="0.99357" fill="#9CBDD7"/>
<rect x="473.986" y="24.3425" width="3.04288" height="0.99357" fill="#9CBDD7"/>
<rect x="481.477" y="24.3425" width="3.04287" height="0.99357" fill="#9CBDD7"/>
<rect x="488.967" y="24.3425" width="3.04288" height="0.99357" fill="#9CBDD7"/>
<rect x="496.457" y="24.3425" width="3.04287" height="0.99357" fill="#9CBDD7"/>
<rect x="503.947" y="24.3425" width="3.04288" height="0.99357" fill="#9CBDD7"/>
<rect x="511.438" y="24.3425" width="3.04287" height="0.99357" fill="#9CBDD7"/>
<rect x="518.927" y="24.3425" width="3.04288" height="0.99357" fill="#9CBDD7"/>
<rect x="526.417" y="24.3425" width="3.04288" height="0.99357" fill="#9CBDD7"/>
<rect x="533.907" y="24.3425" width="3.04288" height="0.99357" fill="#9CBDD7"/>
<rect x="541.397" y="24.3425" width="3.04287" height="0.99357" fill="#9CBDD7"/>
<rect x="548.888" y="24.3425" width="3.04288" height="0.99357" fill="#9CBDD7"/>
<rect x="556.378" y="24.3425" width="3.04288" height="0.99357" fill="#9CBDD7"/>
<path fill-rule="evenodd" clip-rule="evenodd" d="M563.868 5.96142V11.9228H559.421V12.4196H556.378V11.9228H551.931V12.4196H548.888V11.9228H544.44V12.4196H541.398V11.9228H536.95V12.4196H533.907V11.9228H529.46V12.4196H526.417V11.9228H521.97V12.4196H518.927V11.9228H514.48V12.4196H511.437V11.9228H506.99V12.4196H503.947V11.9228H499.499V12.4196H496.457V11.9228H492.009V12.4196H488.966V11.9228H484.519V12.4196H481.476V11.9228H477.029V12.4196H473.986V11.9228H469.539V12.4196H466.496V11.9228H462.049V12.4196H459.006V11.9228H454.559V12.4196H451.516V11.9228V5.96142H474.922L477.731 0H481.242L484.051 5.96142H531.333L534.141 0H537.652L540.461 5.96142H563.868ZM479.487 4.47107C479.81 4.47107 480.072 3.91502 480.072 3.2291C480.072 2.54319 479.81 1.98714 479.487 1.98714C479.163 1.98714 478.902 2.54319 478.902 3.2291C478.902 3.91502 479.163 4.47107 479.487 4.47107ZM535.897 4.47107C535.574 4.47107 535.312 3.91502 535.312 3.2291C535.312 2.54319 535.574 1.98714 535.897 1.98714C536.22 1.98714 536.482 2.54319 536.482 3.2291C536.482 3.91502 536.22 4.47107 535.897 4.47107Z" fill="#9CBDD7"/>
<rect x="337.057" y="12.4197" width="7.25609" height="11.9228" rx="2" fill="#FFCAA6"/>
<rect x="344.547" y="12.4197" width="7.25609" height="11.9228" rx="2" fill="#FAA76E"/>
<rect x="352.037" y="12.4197" width="7.25609" height="11.9228" rx="2" fill="#E28D52"/>
<rect x="359.527" y="12.4197" width="7.25609" height="11.9228" rx="2" fill="#FFCAA6"/>
<rect x="367.018" y="12.4197" width="7.25609" height="11.9228" rx="2" fill="#FAA76E"/>
<rect x="374.508" y="12.4197" width="7.25609" height="11.9228" rx="2" fill="#E28D52"/>
<rect x="381.998" y="12.4197" width="7.25609" height="11.9228" rx="2" fill="#FFCAA6"/>
<rect x="389.487" y="12.4197" width="7.25609" height="11.9228" rx="2" fill="#FAA76E"/>
<rect x="396.978" y="12.4197" width="7.25608" height="11.9228" rx="2" fill="#E28D52"/>
<rect x="404.468" y="12.4197" width="7.25609" height="11.9228" rx="2" fill="#FFCAA6"/>
<rect x="411.958" y="12.4197" width="7.25609" height="11.9228" rx="2" fill="#FAA76E"/>
<rect x="419.448" y="12.4197" width="7.25609" height="11.9228" rx="2" fill="#E28D52"/>
<rect x="426.938" y="12.4197" width="7.2561" height="11.9228" rx="2" fill="#FFCAA6"/>
<rect x="434.429" y="12.4197" width="7.25609" height="11.9228" rx="2" fill="#FAA76E"/>
<rect x="441.919" y="12.4197" width="7.25609" height="11.9228" rx="2" fill="#E28D52"/>
<rect x="339.163" y="24.3425" width="3.04288" height="0.99357" fill="#9CBDD7"/>
<rect x="342.206" y="24.3425" width="4.44728" height="0.99357" fill="#5894A7"/>
<rect x="349.696" y="24.3425" width="4.44728" height="0.99357" fill="#5894A7"/>
<rect x="357.187" y="24.3425" width="4.44728" height="0.99357" fill="#5894A7"/>
<rect x="364.677" y="24.3425" width="4.44728" height="0.99357" fill="#5894A7"/>
<rect x="372.167" y="24.3425" width="4.44728" height="0.99357" fill="#5894A7"/>
<rect x="379.657" y="24.3425" width="4.44728" height="0.99357" fill="#5894A7"/>
<rect x="387.147" y="24.3425" width="4.44728" height="0.99357" fill="#5894A7"/>
<rect x="394.638" y="24.3425" width="4.44728" height="0.99357" fill="#5894A7"/>
<rect x="402.127" y="24.3425" width="4.44728" height="0.99357" fill="#5894A7"/>
<rect x="409.617" y="24.3425" width="4.44728" height="0.99357" fill="#5894A7"/>
<rect x="417.107" y="24.3425" width="4.44728" height="0.99357" fill="#5894A7"/>
<rect x="424.598" y="24.3425" width="4.44728" height="0.99357" fill="#5894A7"/>
<rect x="432.088" y="24.3425" width="4.44728" height="0.99357" fill="#5894A7"/>
<rect x="439.578" y="24.3425" width="4.44728" height="0.99357" fill="#5894A7"/>
<rect x="447.068" y="24.3425" width="4.44728" height="0.99357" fill="#5894A7"/>
<rect x="346.653" y="24.3425" width="3.04288" height="0.99357" fill="#9CBDD7"/>
<rect x="354.144" y="24.3425" width="3.04288" height="0.99357" fill="#9CBDD7"/>
<rect x="361.634" y="24.3425" width="3.04288" height="0.99357" fill="#9CBDD7"/>
<rect x="369.124" y="24.3425" width="3.04287" height="0.99357" fill="#9CBDD7"/>
<rect x="376.614" y="24.3425" width="3.04288" height="0.99357" fill="#9CBDD7"/>
<rect x="384.104" y="24.3425" width="3.04287" height="0.99357" fill="#9CBDD7"/>
<rect x="391.595" y="24.3425" width="3.04288" height="0.99357" fill="#9CBDD7"/>
<rect x="399.085" y="24.3425" width="3.04287" height="0.99357" fill="#9CBDD7"/>
<rect x="406.574" y="24.3425" width="3.04288" height="0.99357" fill="#9CBDD7"/>
<rect x="414.064" y="24.3425" width="3.04288" height="0.99357" fill="#9CBDD7"/>
<rect x="421.555" y="24.3425" width="3.04288" height="0.99357" fill="#9CBDD7"/>
<rect x="429.045" y="24.3425" width="3.04287" height="0.99357" fill="#9CBDD7"/>
<rect x="436.535" y="24.3425" width="3.04288" height="0.99357" fill="#9CBDD7"/>
<rect x="444.025" y="24.3425" width="3.04288" height="0.99357" fill="#9CBDD7"/>
<path fill-rule="evenodd" clip-rule="evenodd" d="M451.515 5.96142V11.9228H447.068V12.4196H444.025V11.9228H439.578V12.4196H436.535V11.9228H432.088V12.4196H429.045V11.9228H424.598V12.4196H421.555V11.9228H417.108V12.4196H414.065V11.9228H409.617V12.4196H406.574V11.9228H402.127V12.4196H399.084V11.9228H394.637V12.4196H391.594V11.9228H387.147V12.4196H384.104V11.9228H379.657V12.4196H376.614V11.9228H372.167V12.4196H369.124V11.9228H364.676V12.4196H361.634V11.9228H357.186V12.4196H354.143V11.9228H349.696V12.4196H346.653V11.9228H342.206V12.4196H339.163V11.9228V5.96142H362.57L365.379 0H368.89L371.698 5.96142H418.98L421.789 0H425.3L428.109 5.96142H451.515ZM367.134 4.47107C367.457 4.47107 367.719 3.91502 367.719 3.2291C367.719 2.54319 367.457 1.98714 367.134 1.98714C366.811 1.98714 366.549 2.54319 366.549 3.2291C366.549 3.91502 366.811 4.47107 367.134 4.47107ZM423.544 4.47107C423.221 4.47107 422.959 3.91502 422.959 3.2291C422.959 2.54319 423.221 1.98714 423.544 1.98714C423.868 1.98714 424.13 2.54319 424.13 3.2291C424.13 3.91502 423.868 4.47107 423.544 4.47107Z" fill="#9CBDD7"/>
</svg>
