<svg width="14em" height="2.2em" viewBox="0 0 140 22" fill="none" xmlns="http://www.w3.org/2000/svg">
<rect width="14.8241" height="11" transform="translate(88)" fill="#E3B682"/>
<rect width="14.8241" height="11" transform="translate(95.2312 11)" fill="#C38741"/>
<rect width="14.8241" height="11" transform="translate(102.824)" fill="#7D5527"/>
<rect width="14.8241" height="11" transform="translate(110.055 11)" fill="#E3B682"/>
<rect width="14.8241" height="11" transform="translate(117.648)" fill="#C38741"/>
<rect width="14.8241" height="11" transform="translate(124.879 11)" fill="#7D5527"/>
<rect width="14.8241" height="11" fill="#E3B682"/>
<rect width="14.8241" height="11" transform="translate(7.2312 11)" fill="#C38741"/>
<rect width="14.8241" height="11" transform="translate(14.8242)" fill="#7D5527"/>
<rect width="14.8241" height="11" transform="translate(22.0554 11)" fill="#E3B682"/>
<rect width="14.8241" height="11" transform="translate(29.6482)" fill="#C38741"/>
<rect width="14.8241" height="11" transform="translate(36.8794 11)" fill="#7D5527"/>
<rect width="14.8241" height="11" transform="translate(44)" fill="#E3B682"/>
<rect width="14.8241" height="11" transform="translate(51.2312 11)" fill="#C38741"/>
<rect width="14.8241" height="11" transform="translate(58.8242)" fill="#7D5527"/>
<rect width="14.8241" height="11" transform="translate(66.0554 11)" fill="#E3B682"/>
<rect width="14.8241" height="11" transform="translate(73.6482)" fill="#C38741"/>
<rect width="14.8241" height="11" transform="translate(80.8794 11)" fill="#7D5527"/>
<rect width="140" height="22" fill="#1CA0FF" fill-opacity="0.12" style="mix-blend-mode:hue"/>
</svg>
