<svg width="10" height="10" viewBox="0 0 10 10" fill="none" xmlns="http://www.w3.org/2000/svg">
    <g clip-path="url(#clip0_1663_11611)">
        <path fill-rule="evenodd" clip-rule="evenodd"
            d="M10 5C10 7.76142 7.76142 10 5 10C2.23858 10 0 7.76142 0 5C0 2.23858 2.23858 0 5 0C7.76142 0 10 2.23858 10 5ZM9.33449 5.86217C9.18557 6.61081 8.84572 7.3062 8.35036 7.88204C8.23098 8.02082 8.02005 8.02005 7.89061 7.89061C7.76117 7.76117 7.76245 7.55217 7.87998 7.41182C8.28359 6.92988 8.56098 6.35284 8.68431 5.73284C8.69311 5.68858 8.70111 5.64423 8.70829 5.59979L8.51879 5.56914C8.38249 5.5471 8.29086 5.41874 8.30257 5.28116C8.31788 5.10128 8.31848 4.92045 8.30434 4.74047C8.29353 4.60282 8.386 4.47506 8.52244 4.45391L8.71215 4.4245C8.6665 4.13006 8.58576 3.84059 8.47054 3.56243C8.35849 3.29192 8.21582 3.03689 8.04625 2.80189L7.89054 2.91425C7.77857 2.99504 7.62301 2.96906 7.53402 2.8635C7.41765 2.72548 7.2902 2.59719 7.15294 2.47992C7.04796 2.39023 7.02301 2.23451 7.10453 2.12308L7.21789 1.96811C7.17497 1.93672 7.13133 1.90619 7.08699 1.87656C6.63701 1.5759 6.12944 1.37734 5.59979 1.29167L5.56914 1.48115C5.54709 1.61745 5.41873 1.70908 5.28116 1.69737C5.10127 1.68206 4.92044 1.68147 4.74046 1.6956C4.60282 1.70641 4.47506 1.61395 4.4539 1.4775L4.4245 1.28782C3.88607 1.37129 3.36985 1.5713 2.91298 1.87656C2.87545 1.90164 2.83843 1.92736 2.80192 1.9537L2.91424 2.10937C2.99503 2.22134 2.96906 2.37689 2.8635 2.46589C2.72547 2.58226 2.59718 2.70971 2.47992 2.84697C2.39023 2.95194 2.23451 2.9769 2.12307 2.89538L1.96814 2.78204C1.79223 3.02251 1.64464 3.28428 1.52943 3.56243C1.41738 3.83293 1.33794 4.11413 1.29167 4.40019L1.48118 4.43084C1.61748 4.45288 1.70911 4.58125 1.6974 4.71882C1.68209 4.8987 1.6815 5.07954 1.69563 5.25951C1.70644 5.39716 1.61398 5.52492 1.47753 5.54607L1.28783 5.57548C1.29598 5.62805 1.30525 5.68051 1.31566 5.73284C1.43899 6.35284 1.71639 6.92988 2.11999 7.41182C2.23752 7.55217 2.2388 7.76117 2.10936 7.89061C1.97992 8.02005 1.76899 8.02082 1.64961 7.88204C1.15426 7.3062 0.8144 6.61081 0.665486 5.86217C0.494962 5.00489 0.582481 4.11629 0.916976 3.30875C1.25147 2.5012 1.81792 1.81098 2.54469 1.32537C3.27146 0.839761 4.12591 0.580566 4.99999 0.580566C5.87406 0.580566 6.72851 0.839761 7.45528 1.32537C8.18205 1.81098 8.7485 2.5012 9.08299 3.30875C9.41749 4.11629 9.50501 5.00489 9.33449 5.86217ZM4.31869 4.73935C4.14267 5.1143 4.30394 5.56095 4.67889 5.73697C5.05384 5.91299 5.5005 5.75172 5.67652 5.37677C5.75425 5.21118 5.7662 5.0316 5.72302 4.86752C5.71998 4.85597 5.71938 4.84389 5.72168 4.83217L6.1084 2.86309C6.12345 2.78648 6.026 2.74073 5.97667 2.80125L4.70882 4.35669C4.70128 4.36595 4.6916 4.37321 4.68077 4.37824C4.52695 4.44983 4.39643 4.57375 4.31869 4.73935Z"
            fill="currentColor" />
    </g>
    <defs>
        <clipPath id="clip0_1663_11611">
            <rect width="10" height="10" fill="currentColor" />
        </clipPath>
    </defs>
</svg>