<svg width="15" height="25" viewBox="0 0 15 25" fill="none" xmlns="http://www.w3.org/2000/svg">
<path d="M1.59326 4.72022C5.5312 1.72786 9.46913 1.72786 13.4071 4.72022M13.4071 4.72022L10.8755 5.80835M13.4071 4.72022L12.5632 1.99989" stroke="#0F540E" stroke-width="3" stroke-linecap="round" stroke-linejoin="round"/>
<path d="M2.0858 13.7785L1.3419 16.5671C1.25903 16.8777 1.5306 16.8316 1.82676 16.9203L3.83547 17.5215C4.13164 17.6101 4.30455 17.9338 4.22168 18.2445L4.10164 18.6945C4.01876 19.0051 3.71149 19.1851 3.41532 19.0965L1.40662 18.4953C1.11045 18.4066 0.803178 18.5866 0.720305 18.8973L0.1501 21.0348C0.0672275 21.3455 0.240137 21.6692 0.536305 21.7578L4.21969 22.8602C4.44182 22.9267 4.67227 22.7917 4.73443 22.5587C4.79658 22.3257 5.02704 22.1908 5.24916 22.2572L6.56976 22.6525C6.79189 22.719 6.92157 22.9617 6.85942 23.1947C6.79726 23.4277 6.92694 23.6705 7.14907 23.737L10.8325 24.8394C11.1286 24.928 11.4359 24.7481 11.5188 24.4374L12.089 22.2999C12.1718 21.9892 11.9989 21.6655 11.7028 21.5769L9.69406 20.9757C9.3979 20.887 9.22499 20.5633 9.30786 20.2527L9.4279 19.8027C9.51077 19.492 9.81805 19.312 10.1142 19.4006L12.1229 20.0018C12.4191 20.0905 12.6277 20.2803 12.7106 19.9697L13.4545 17.181C15.015 11.331 9.31569 9.68592 9.31569 9.68592C9.31569 9.68592 3.64636 7.92839 2.0858 13.7785Z" fill="#0F540E"/>
</svg>
