<svg width="30" height="45" viewBox="0 0 30 45" fill="none" xmlns="http://www.w3.org/2000/svg">
    <path d="M3.12891 7C10.7956 1.5 18.4622 1.5 26.1289 7M26.1289 7L21.2003 9M26.1289 7L24.486 2" stroke="currentColor"
        stroke-width="3" stroke-linecap="round" stroke-linejoin="round" />
    <path
        d="M4.08817 23.6492L2.6399 28.7747C2.47856 29.3457 3.00727 29.2609 3.58386 29.4238L7.49458 30.5289C8.07118 30.6918 8.40781 31.2867 8.24647 31.8578L8.01276 32.6849C7.85142 33.2559 7.2532 33.5867 6.6766 33.4238L2.7659 32.3188C2.1893 32.1558 1.59108 32.4867 1.42973 33.0577L0.319616 36.9865C0.158274 37.5575 0.494907 38.1525 1.07151 38.3154L8.2426 40.3416C8.67505 40.4638 9.12372 40.2157 9.24472 39.7875C9.36573 39.3592 9.8144 39.1111 10.2468 39.2333L12.8179 39.9597C13.2503 40.0819 13.5028 40.5282 13.3818 40.9564C13.2608 41.3847 13.5133 41.8309 13.9457 41.9531L21.1168 43.9793C21.6934 44.1423 22.2916 43.8115 22.453 43.2404L23.5631 39.3116C23.7244 38.7406 23.3878 38.1457 22.8112 37.9827L18.9005 36.8777C18.3239 36.7148 17.9873 36.1198 18.1486 35.5488L18.3823 34.7217C18.5437 34.1507 19.1419 33.8199 19.7185 33.9828L23.6292 35.0878C24.2058 35.2507 24.612 35.5997 24.7733 35.0287L26.2215 29.9032C29.2598 19.1506 18.1639 16.127 18.1639 16.127C18.1639 16.127 7.12639 12.8967 4.08817 23.6492Z"
        fill="currentColor" />
</svg>