<svg width="10" height="17" viewBox="0 0 10 17" fill="none" xmlns="http://www.w3.org/2000/svg">
<g clip-path="url(#clip0_1663_11608)">
<path d="M7.75068 0.179386L4.10418 0.528383C3.73291 0.563916 3.41227 0.803108 3.27241 1.14886L0.606314 7.74016C0.327663 8.42906 0.871125 9.17045 1.61195 9.11204L1.78178 9.09865C2.45056 9.04593 2.98055 9.65368 2.83732 10.3091L2.31658 12.6917C2.08923 13.732 3.42898 14.3597 4.08281 13.5193L8.61123 7.69824C9.09688 7.07396 8.55365 6.1803 7.77588 6.32402C7.0638 6.4556 6.51764 5.70225 6.86415 5.0664L8.72404 1.65334C9.1076 0.949481 8.54861 0.103018 7.75068 0.179386Z" fill="black"/>
</g>
<defs>
<clipPath id="clip0_1663_11608">
<rect width="10" height="17" fill="white"/>
</clipPath>
</defs>
</svg>
