<svg width="167" height="629" viewBox="0 0 167 629" fill="none" xmlns="http://www.w3.org/2000/svg">
<rect x="7" y="22" width="24" height="24" rx="2" fill="#C4D7E5"/>
<rect x="31" y="29" width="4" height="11" fill="#C4D7E5"/>
<rect x="7" y="134" width="24" height="24" rx="2" fill="#C4D7E5"/>
<rect x="31" y="141" width="4" height="11" fill="#C4D7E5"/>
<rect y="470" width="24" height="24" rx="2" fill="#C4D7E5"/>
<rect x="24" y="477" width="4" height="11" fill="#C4D7E5"/>
<rect x="7" y="582" width="24" height="24" rx="2" fill="#C4D7E5"/>
<rect x="31" y="589" width="4" height="11" fill="#C4D7E5"/>
<rect x="7" y="246" width="24" height="24" rx="2" fill="#C4D7E5"/>
<rect x="31" y="253" width="4" height="11" fill="#C4D7E5"/>
<rect x="7" y="358" width="24" height="24" rx="2" fill="#C4D7E5"/>
<rect x="31" y="365" width="4" height="11" fill="#C4D7E5"/>
<rect width="24" height="24" rx="2" transform="matrix(-1 0 0 1 160 22)" fill="#C4D7E5"/>
<rect width="4" height="11" transform="matrix(-1 0 0 1 136 29)" fill="#C4D7E5"/>
<rect width="24" height="24" rx="2" transform="matrix(-1 0 0 1 160 134)" fill="#C4D7E5"/>
<rect width="4" height="11" transform="matrix(-1 0 0 1 136 141)" fill="#C4D7E5"/>
<rect width="24" height="24" rx="2" transform="matrix(-1 0 0 1 167 470)" fill="#C4D7E5"/>
<rect width="4" height="11" transform="matrix(-1 0 0 1 143 477)" fill="#C4D7E5"/>
<rect width="24" height="24" rx="2" transform="matrix(-1 0 0 1 160 582)" fill="#C4D7E5"/>
<rect width="4" height="11" transform="matrix(-1 0 0 1 136 589)" fill="#C4D7E5"/>
<rect width="24" height="24" rx="2" transform="matrix(-1 0 0 1 160 246)" fill="#C4D7E5"/>
<rect width="4" height="11" transform="matrix(-1 0 0 1 136 253)" fill="#C4D7E5"/>
<rect width="24" height="24" rx="2" transform="matrix(-1 0 0 1 160 358)" fill="#C4D7E5"/>
<rect width="4" height="11" transform="matrix(-1 0 0 1 136 365)" fill="#C4D7E5"/>
<line x1="82.5" y1="1.52494e-07" x2="82.5" y2="629" stroke="#C4D7E5" stroke-width="7"/>
<rect x="35" y="1" width="28" height="628" rx="3" fill="#9CBDD7"/>
<rect x="104" y="1" width="28" height="628" rx="3" fill="#9CBDD7"/>
<rect x="28" y="392" width="21" height="125" rx="4" fill="#5894A7"/>
<rect x="118" y="392" width="21" height="125" rx="4" fill="#5894A7"/>
</svg>
