<svg width="196" height="629" viewBox="0 0 196 629" fill="none" xmlns="http://www.w3.org/2000/svg">
<rect x="50.5" width="96" height="629" fill="#64849D"/>
<line x1="97" y1="1.52494e-07" x2="97" y2="629" stroke="#C4D7E5" stroke-width="7"/>
<rect x="49.5" width="28" height="629" fill="#9CBDD7"/>
<rect x="118.5" width="28" height="629" fill="#9CBDD7"/>
<rect x="49.5" y="492" width="97" height="5" fill="#64849D"/>
<path d="M36.5 3.99999C36.5 1.79085 38.2909 0 40.5 0H49.5V629H40.5C38.2909 629 36.5 627.209 36.5 625V3.99999Z" fill="#537B87"/>
<rect x="0.5" y="485" width="49" height="19" rx="4" fill="#537B87"/>
<rect x="146.5" y="485" width="49" height="19" rx="4" fill="#537B87"/>
<path d="M146.5 0H155.5C157.709 0 159.5 1.79086 159.5 4V625C159.5 627.209 157.709 629 155.5 629H146.5V0Z" fill="#537B87"/>
</svg>
