<svg width="69" height="177" viewBox="0 0 69 177" fill="none" xmlns="http://www.w3.org/2000/svg">
<path d="M19.9562 172.42C8.23288 169.514 0 158.991 0 146.913L0 30.1387C0 18.0605 8.23288 7.53745 19.9562 4.6312C29.5075 2.26341 39.4925 2.2634 49.0438 4.6312C60.7671 7.53745 69 18.0605 69 30.1387L69 146.913C69 158.991 60.7671 169.514 49.0438 172.42C39.4925 174.788 29.5075 174.788 19.9562 172.42Z" fill="#FFD1B0"/>
<path d="M41.1562 133.764L20.9062 127.734V121.863L46.5 130.775V134.643L41.1562 133.764ZM20.9062 139.318L41.1562 133.307L46.5 132.393L46.5 136.295L20.9062 145.154L20.9062 139.318ZM46.8516 111.809C46.8516 113.285 46.6172 114.609 46.1484 115.781C45.668 116.953 45.0059 117.949 44.1621 118.77C43.3184 119.578 42.3398 120.199 41.2266 120.633C40.1016 121.066 38.9062 121.283 37.6406 121.283H36.9375C35.4961 121.283 34.1777 121.078 32.9824 120.668C31.7871 120.258 30.75 119.672 29.8711 118.91C28.9922 118.137 28.3184 117.199 27.8496 116.098C27.3691 114.996 27.1289 113.754 27.1289 112.371C27.1289 111.023 27.3516 109.828 27.7969 108.785C28.2422 107.742 28.875 106.869 29.6953 106.166C30.5156 105.451 31.5 104.912 32.6484 104.549C33.7852 104.186 35.0508 104.004 36.4453 104.004H38.5547V119.121H35.1797V108.979H34.793C34.0898 108.979 33.4629 109.107 32.9121 109.365C32.3496 109.611 31.9043 109.986 31.5762 110.49C31.248 110.994 31.084 111.639 31.084 112.424C31.084 113.092 31.2305 113.666 31.5234 114.146C31.8164 114.627 32.2266 115.02 32.7539 115.324C33.2812 115.617 33.9023 115.84 34.6172 115.992C35.3203 116.133 36.0937 116.203 36.9375 116.203H37.6406C38.4023 116.203 39.1055 116.098 39.75 115.887C40.3945 115.664 40.9512 115.354 41.4199 114.955C41.8887 114.545 42.252 114.053 42.5098 113.479C42.7676 112.893 42.8965 112.23 42.8965 111.492C42.8965 110.578 42.7207 109.729 42.3691 108.943C42.0059 108.146 41.4609 107.461 40.7344 106.887L43.4062 104.426C43.9805 104.824 44.5312 105.369 45.0586 106.061C45.5859 106.74 46.0195 107.561 46.3594 108.521C46.6875 109.482 46.8516 110.578 46.8516 111.809ZM19.4824 113.936L24.8965 110.473V114.621L19.4824 119.438V113.936ZM41.2441 90.8379C40.8809 90.8379 40.5527 90.9434 40.2598 91.1543C39.9668 91.3652 39.6973 91.7578 39.4512 92.332C39.1934 92.8945 38.959 93.709 38.748 94.7754C38.5371 95.7363 38.2734 96.6328 37.957 97.4648C37.6289 98.2852 37.2363 99 36.7793 99.6094C36.3223 100.207 35.7832 100.676 35.1621 101.016C34.5293 101.355 33.8086 101.525 33 101.525C32.2031 101.525 31.4531 101.355 30.75 101.016C30.0469 100.664 29.4258 100.166 28.8867 99.5215C28.3359 98.8652 27.9082 98.0684 27.6035 97.1309C27.2871 96.1816 27.1289 95.1152 27.1289 93.9316C27.1289 92.2793 27.3926 90.8613 27.9199 89.6777C28.4473 88.4824 29.1738 87.5684 30.0996 86.9355C31.0137 86.291 32.0566 85.9688 33.2285 85.9688V91.0312C32.7363 91.0312 32.2969 91.1367 31.9102 91.3477C31.5117 91.5469 31.2012 91.8633 30.9785 92.2969C30.7441 92.7188 30.627 93.2695 30.627 93.9492C30.627 94.5117 30.7266 94.998 30.9258 95.4082C31.1133 95.8184 31.3711 96.1348 31.6992 96.3574C32.0156 96.5684 32.3672 96.6738 32.7539 96.6738C33.0469 96.6738 33.3105 96.6152 33.5449 96.498C33.7676 96.3691 33.9727 96.1641 34.1602 95.8828C34.3477 95.6016 34.5234 95.2383 34.6875 94.793C34.8398 94.3359 34.9805 93.7734 35.1094 93.1055C35.3906 91.7344 35.7598 90.5098 36.2168 89.4316C36.6621 88.3535 37.2715 87.498 38.0449 86.8652C38.8066 86.2324 39.8086 85.916 41.0508 85.916C41.8945 85.916 42.668 86.1035 43.3711 86.4785C44.0742 86.8535 44.6895 87.3926 45.2168 88.0957C45.7324 88.7988 46.1367 89.6426 46.4297 90.627C46.7109 91.5996 46.8516 92.6953 46.8516 93.9141C46.8516 95.6836 46.5352 97.1836 45.9023 98.4141C45.2695 99.6328 44.4668 100.559 43.4941 101.191C42.5098 101.812 41.502 102.123 40.4707 102.123V97.3242C41.1621 97.3008 41.7187 97.125 42.1406 96.7969C42.5625 96.457 42.8672 96.0293 43.0547 95.5137C43.2422 94.9863 43.3359 94.418 43.3359 93.8086C43.3359 93.1523 43.248 92.6074 43.0723 92.1738C42.8848 91.7402 42.6387 91.4121 42.334 91.1895C42.0176 90.9551 41.6543 90.8379 41.2441 90.8379ZM31.1367 77.5664H53.8125L53.8125 82.6289H27.4805L27.4805 77.9355L31.1367 77.5664ZM36.7793 65.5254H37.1484C38.5312 65.5254 39.8145 65.6895 40.998 66.0176C42.1816 66.334 43.2129 66.8027 44.0918 67.4238C44.959 68.0449 45.6387 68.8184 46.1309 69.7441C46.6113 70.6582 46.8516 71.7129 46.8516 72.9082C46.8516 74.0684 46.6172 75.0762 46.1484 75.9316C45.6797 76.7871 45.0234 77.5078 44.1797 78.0938C43.3242 78.668 42.334 79.1309 41.209 79.4824C40.084 79.834 38.877 80.1035 37.5879 80.291H36.6211C35.2383 80.1035 33.9727 79.834 32.8242 79.4824C31.6641 79.1309 30.6621 78.668 29.8184 78.0938C28.9629 77.5078 28.3008 76.793 27.832 75.9492C27.3633 75.0938 27.1289 74.0918 27.1289 72.9434C27.1289 71.7363 27.3574 70.6758 27.8145 69.7617C28.2715 68.8359 28.9277 68.0625 29.7832 67.4414C30.6387 66.8086 31.6582 66.334 32.8418 66.0176C34.0254 65.6895 35.3379 65.5254 36.7793 65.5254ZM37.1484 70.6055H36.7793C35.9707 70.6055 35.2266 70.6758 34.5469 70.8164C33.8555 70.9453 33.252 71.1562 32.7363 71.4492C32.2207 71.7305 31.8223 72.1055 31.541 72.5742C31.248 73.0312 31.1016 73.5879 31.1016 74.2441C31.1016 74.9355 31.2129 75.5273 31.4355 76.0195C31.6582 76.5 31.9805 76.8926 32.4023 77.1973C32.8242 77.502 33.3281 77.7305 33.9141 77.8828C34.5 78.0352 35.1621 78.1289 35.9004 78.1641H38.3437C39.2109 78.1055 39.9902 77.9414 40.6816 77.6719C41.3613 77.4023 41.9004 76.9863 42.2988 76.4238C42.6973 75.8613 42.8965 75.123 42.8965 74.209C42.8965 73.541 42.75 72.9785 42.457 72.5215C42.1523 72.0645 41.7363 71.6953 41.209 71.4141C40.6816 71.1211 40.0723 70.916 39.3809 70.7988C38.6895 70.6699 37.9453 70.6055 37.1484 70.6055ZM46.8516 53.625C46.8516 55.1016 46.6172 56.4258 46.1484 57.5977C45.668 58.7695 45.0059 59.7656 44.1621 60.5859C43.3184 61.3945 42.3398 62.0156 41.2266 62.4492C40.1016 62.8828 38.9062 63.0996 37.6406 63.0996H36.9375C35.4961 63.0996 34.1777 62.8945 32.9824 62.4844C31.7871 62.0742 30.75 61.4883 29.8711 60.7266C28.9922 59.9531 28.3184 59.0156 27.8496 57.9141C27.3691 56.8125 27.1289 55.5703 27.1289 54.1875C27.1289 52.8398 27.3516 51.6445 27.7969 50.6016C28.2422 49.5586 28.875 48.6855 29.6953 47.9824C30.5156 47.2676 31.5 46.7285 32.6484 46.3652C33.7852 46.002 35.0508 45.8203 36.4453 45.8203H38.5547L38.5547 60.9375H35.1797L35.1797 50.7949H34.793C34.0898 50.7949 33.4629 50.9238 32.9121 51.1816C32.3496 51.4277 31.9043 51.8027 31.5762 52.3066C31.248 52.8105 31.084 53.4551 31.084 54.2402C31.084 54.9082 31.2305 55.4824 31.5234 55.9629C31.8164 56.4434 32.2266 56.8359 32.7539 57.1406C33.2812 57.4336 33.9023 57.6562 34.6172 57.8086C35.3203 57.9492 36.0937 58.0195 36.9375 58.0195H37.6406C38.4023 58.0195 39.1055 57.9141 39.75 57.7031C40.3945 57.4805 40.9512 57.1699 41.4199 56.7715C41.8887 56.3613 42.252 55.8691 42.5098 55.2949C42.7676 54.709 42.8965 54.0469 42.8965 53.3086C42.8965 52.3945 42.7207 51.5449 42.3691 50.7598C42.0059 49.9629 41.4609 49.2773 40.7344 48.7031L43.4062 46.2422C43.9805 46.6406 44.5312 47.1855 45.0586 47.877C45.5859 48.5566 46.0195 49.377 46.3594 50.3379C46.6875 51.2988 46.8516 52.3945 46.8516 53.625ZM31.6289 37.875H46.5L46.5 42.9375H27.4805L27.4805 38.1738L31.6289 37.875ZM27.3574 32.1445L32.0508 32.2324C32.0156 32.4785 31.9863 32.7773 31.9629 33.1289C31.9277 33.4688 31.9102 33.7793 31.9102 34.0605C31.9102 34.7754 32.0039 35.3965 32.1914 35.9238C32.3672 36.4395 32.6309 36.873 32.9824 37.2246C33.334 37.5645 33.7617 37.8223 34.2656 37.998C34.7695 38.1621 35.3437 38.2559 35.9883 38.2793L35.6719 39.2988C34.4414 39.2988 33.3105 39.1758 32.2793 38.9297C31.2363 38.6836 30.3281 38.3262 29.5547 37.8574C28.7812 37.377 28.1836 36.791 27.7617 36.0996C27.3398 35.4082 27.1289 34.6172 27.1289 33.7266C27.1289 33.4453 27.1523 33.1582 27.1992 32.8652C27.2344 32.5723 27.2871 32.332 27.3574 32.1445Z" fill="#C85B0F"/>
</svg>
