<svg width="69" height="190" viewBox="0 0 69 190" fill="none" xmlns="http://www.w3.org/2000/svg">
<path d="M19.0851 185.851C7.8251 182.82 0 172.611 0 160.95L0 29.05C0 17.3893 7.8251 7.17958 19.0851 4.14894V4.14894C29.182 1.43133 39.818 1.43133 49.9149 4.14894V4.14894C61.1749 7.17958 69 17.3893 69 29.05L69 160.95C69 172.611 61.1749 182.82 49.9149 185.851V185.851C39.818 188.569 29.182 188.569 19.0851 185.851V185.851Z" fill="#FFD1B0"/>
<path d="M63.2016 138.1L16.99 125.72C16.9594 125.711 16.928 125.705 16.8962 125.702C11.0255 125.03 8.0085 130.296 5.43631 136.478C5.39513 136.577 5.38377 136.686 5.40361 136.791C5.42346 136.896 5.47365 136.993 5.54799 137.07C5.62233 137.147 5.71757 137.2 5.82195 137.224C5.92632 137.247 6.03527 137.239 6.13534 137.201C12.9925 134.478 23.1118 134.632 40.1033 140.061C40.1944 140.091 40.2762 140.144 40.3406 140.215C40.405 140.285 40.4498 140.372 40.4706 140.465C40.4913 140.559 40.4874 140.656 40.4591 140.748C40.4307 140.839 40.3791 140.922 40.3091 140.987C34.6927 146.262 27.2152 149.46 17.1019 149.733C16.9946 149.734 16.8898 149.766 16.7993 149.823C11.8759 153.085 10.1994 158.499 9.16749 164.352C9.14708 164.461 9.1602 164.573 9.20511 164.674C9.25003 164.776 9.32463 164.861 9.41906 164.919C9.51349 164.977 9.6233 165.005 9.73399 165C9.84468 164.994 9.95104 164.955 10.039 164.887C20.2158 156.965 30.447 153.24 40.5179 156.045C40.6438 156.082 40.7787 156.071 40.8973 156.015C41.016 155.96 41.1102 155.863 41.1625 155.742C44.6304 147.923 52.4831 142.685 63.2258 139.15C63.3382 139.114 63.436 139.043 63.5044 138.946C63.5729 138.85 63.6084 138.734 63.6057 138.616C63.603 138.498 63.5622 138.384 63.4893 138.291C63.4165 138.198 63.3156 138.131 63.2016 138.1Z" fill="#C85B0F"/>
<path d="M17.6288 84.2602L24.5495 86.1183C24.6657 86.1501 24.7682 86.219 24.8415 86.3147C24.9147 86.4103 24.9546 86.5274 24.955 86.6478V89.5711C24.955 89.6559 24.9353 89.7396 24.8974 89.8156C24.8596 89.8915 24.8046 89.9576 24.7368 90.0087C24.669 90.0597 24.5903 90.0944 24.5068 90.1098C24.4234 90.1252 24.3375 90.121 24.2559 90.0976L21.6383 89.338C21.5574 89.3163 21.4725 89.3134 21.3902 89.3296C21.3079 89.3458 21.2305 89.3807 21.1638 89.4316C21.0972 89.4824 21.0431 89.5479 21.0057 89.623C20.9684 89.6981 20.9488 89.7807 20.9484 89.8646V92.3188C20.9476 92.5593 21.0264 92.7933 21.1726 92.9844C21.3187 93.1754 21.524 93.3127 21.7564 93.3749L36.2817 97.2695C36.3625 97.2913 36.4472 97.2943 36.5294 97.278C36.6115 97.2618 36.6888 97.2269 36.7553 97.176C36.8217 97.125 36.8755 97.0595 36.9125 96.9844C36.9495 96.9093 36.9687 96.8266 36.9686 96.7429L36.9686 90.6907C36.9684 90.524 37.0064 90.3594 37.0797 90.2096C37.1529 90.0598 37.2595 89.9287 37.3912 89.8265C37.523 89.7242 37.6764 89.6535 37.8397 89.6197C38.003 89.586 38.1719 89.59 38.3333 89.6316L46.525 91.7499C47.228 91.9316 47.8508 92.3416 48.2956 92.9156C48.7403 93.4896 48.9818 94.1951 48.9822 94.9212L48.9822 107.97C48.9817 108.053 48.9621 108.136 48.925 108.21C48.8878 108.285 48.834 108.35 48.7677 108.401C48.7014 108.452 48.6244 108.487 48.5425 108.504C48.4606 108.52 48.3761 108.518 48.2953 108.496L45.3811 107.716C45.2655 107.684 45.1634 107.616 45.0906 107.521C45.0178 107.425 44.9785 107.309 44.9787 107.189V100.855C44.9791 100.495 44.8608 100.145 44.6419 99.8587C44.4231 99.5726 44.116 99.3666 43.7682 99.2727L41.6651 98.7129C41.5843 98.6911 41.4995 98.6881 41.4174 98.7043C41.3352 98.7205 41.2579 98.7555 41.1915 98.8064C41.125 98.8573 41.0712 98.9229 41.0342 98.998C40.9972 99.0731 40.978 99.1557 40.9782 99.2395V105.119C40.9782 105.287 40.9398 105.452 40.8658 105.602C40.7919 105.752 40.6843 105.884 40.5515 105.986C40.4187 106.088 40.2642 106.158 40.1 106.191C39.9358 106.224 39.7662 106.218 39.6043 106.175L19.3779 100.756C18.6826 100.567 18.0687 100.155 17.6311 99.5831C17.1935 99.0109 16.9566 98.3105 16.957 97.5902L16.957 84.7898C16.957 84.7075 16.9757 84.6262 17.0116 84.5521C17.0475 84.4781 17.0998 84.4131 17.1645 84.3621C17.2291 84.3112 17.3045 84.2755 17.3849 84.2579C17.4653 84.2402 17.5487 84.241 17.6288 84.2602Z" fill="#C85B0F"/>
<path d="M48.9851 128.036L48.9851 113.141C48.9851 113.021 48.9453 112.904 48.872 112.809C48.7986 112.714 48.6958 112.646 48.5796 112.615L45.6685 111.834C45.5877 111.812 45.5029 111.809 45.4208 111.826C45.3387 111.842 45.2614 111.877 45.1949 111.928C45.1285 111.979 45.0747 112.044 45.0377 112.119C45.0007 112.194 44.9815 112.277 44.9816 112.361L44.9816 118.955C44.9812 119.038 44.9616 119.121 44.9243 119.196C44.8869 119.271 44.8328 119.337 44.7662 119.388C44.6995 119.438 44.6221 119.473 44.5398 119.49C44.4575 119.506 44.3726 119.503 44.2916 119.481L41.3805 118.7C41.2643 118.67 41.1615 118.601 41.0882 118.506C41.0148 118.411 40.9751 118.294 40.975 118.174L40.975 111.002C40.9747 110.881 40.9348 110.764 40.8616 110.669C40.7883 110.573 40.6857 110.504 40.5695 110.472L37.6584 109.695C37.5775 109.673 37.4926 109.67 37.4103 109.686C37.328 109.702 37.2506 109.737 37.1839 109.788C37.1173 109.839 37.0632 109.905 37.0258 109.98C36.9885 110.055 36.9688 110.137 36.9685 110.221L36.9685 116.806C36.9691 116.89 36.9502 116.973 36.9134 117.048C36.8766 117.124 36.8229 117.19 36.7564 117.241C36.6899 117.292 36.6124 117.328 36.53 117.344C36.4477 117.36 36.3626 117.358 36.2816 117.336L21.7593 113.444C21.5266 113.382 21.3209 113.245 21.1743 113.054C21.0276 112.863 20.9482 112.629 20.9483 112.388V105.637C20.9486 105.516 20.9094 105.4 20.8367 105.304C20.7639 105.208 20.6617 105.139 20.5458 105.107L17.6317 104.326C17.5507 104.305 17.4658 104.303 17.3837 104.319C17.3016 104.336 17.2244 104.371 17.1581 104.422C17.0917 104.473 17.038 104.539 17.001 104.614C16.964 104.69 16.9448 104.772 16.9448 104.856L16.9448 117.65C16.9443 118.371 17.1813 119.071 17.6188 119.643C18.0564 120.215 18.6704 120.627 19.3656 120.816L48.2982 128.575C48.38 128.596 48.4656 128.598 48.5484 128.581C48.6312 128.564 48.7089 128.528 48.7755 128.476C48.842 128.424 48.8955 128.357 48.9319 128.28C48.9683 128.204 48.9865 128.12 48.9851 128.036Z" fill="#C85B0F"/>
<path d="M48.9851 68.6144L48.9851 53.0118C48.9848 52.8921 48.9452 52.7758 48.8725 52.6808C48.7999 52.5857 48.698 52.517 48.5826 52.4853L45.6685 51.7045C45.5875 51.6832 45.5026 51.6808 45.4205 51.6975C45.3384 51.7141 45.2612 51.7493 45.1949 51.8005C45.1285 51.8516 45.0748 51.9173 45.0378 51.9925C45.0008 52.0677 44.9816 52.1503 44.9816 52.2341L44.9816 58.8189C44.9815 58.9027 44.9623 58.9853 44.9253 59.0605C44.8883 59.1357 44.8346 59.2014 44.7683 59.2525C44.7019 59.3037 44.6247 59.3389 44.5426 59.3555C44.4605 59.3722 44.3757 59.3698 44.2946 59.3485L41.3805 58.5677C41.2643 58.536 41.1617 58.467 41.0885 58.3713C41.0152 58.2757 40.9754 58.1586 40.975 58.0382L40.975 50.8663C40.9745 50.7462 40.9345 50.6296 40.8612 50.5345C40.788 50.4394 40.6855 50.3709 40.5695 50.3398L37.6584 49.559C37.5776 49.5372 37.4928 49.5342 37.4107 49.5504C37.3285 49.5667 37.2513 49.6016 37.1848 49.6525C37.1184 49.7035 37.0645 49.769 37.0276 49.8441C36.9906 49.9192 36.9714 50.0018 36.9715 50.0856L36.9715 56.6734C36.9711 56.7572 36.9515 56.8399 36.9141 56.915C36.8768 56.99 36.8227 57.0555 36.7561 57.1064C36.6894 57.1573 36.6119 57.1922 36.5297 57.2084C36.4474 57.2246 36.3625 57.2217 36.2815 57.1999L21.7562 53.3084C21.5244 53.2464 21.3195 53.1095 21.1734 52.9191C21.0273 52.7287 20.9481 52.4953 20.9483 52.2553V45.501C20.9483 45.3808 20.9085 45.264 20.8351 45.1687C20.7618 45.0735 20.659 45.0052 20.5428 44.9745L17.6286 44.1937C17.5478 44.1719 17.4631 44.1689 17.3809 44.1852C17.2988 44.2014 17.2215 44.2363 17.155 44.2872C17.0886 44.3382 17.0348 44.4037 16.9978 44.4788C16.9608 44.5539 16.9416 44.6366 16.9417 44.7203L16.9417 57.5146C16.9413 58.235 17.1782 58.9354 17.6158 59.5075C18.0534 60.0797 18.6673 60.4917 19.3626 60.68L48.9851 68.6144Z" fill="#C85B0F"/>
<path d="M14.8749 112.117C14.2696 115.216 12.2896 117.886 8.93463 120.127V116.275C8.93447 114.995 9.24868 113.734 9.84967 112.604C10.4507 111.474 11.32 110.508 12.3814 109.793L14.8749 108.113V112.117Z" fill="#C85B0F"/>
<path d="M16.9448 28.277L16.9448 39.6067C16.9448 39.7269 16.9846 39.8438 17.0579 39.939C17.1313 40.0343 17.234 40.1025 17.3503 40.1333L48.2982 48.4278C48.379 48.449 48.4635 48.4515 48.5454 48.435C48.6273 48.4186 48.7043 48.3836 48.7706 48.3328C48.8369 48.282 48.8907 48.2167 48.9279 48.1419C48.965 48.0671 48.9846 47.9848 48.9851 47.9013V41.0199C48.9846 40.8998 48.9446 40.7833 48.8713 40.6881C48.7981 40.593 48.6956 40.5246 48.5796 40.4934L41.3805 38.5627C41.2643 38.532 41.1615 38.4637 41.0882 38.3685C41.0148 38.2732 40.975 38.1564 40.975 38.0362V35.8725C40.9748 35.7051 41.0132 35.5398 41.0872 35.3896C41.1612 35.2394 41.2688 35.1083 41.4017 35.0064C41.5346 34.9046 41.6892 34.8347 41.8534 34.8023C42.0177 34.7698 42.1872 34.7757 42.3489 34.8194L48.2982 36.4112C48.379 36.433 48.4638 36.436 48.5459 36.4197C48.628 36.4035 48.7053 36.3686 48.7718 36.3177C48.8382 36.2667 48.892 36.2012 48.929 36.1261C48.966 36.051 48.9852 35.9684 48.9851 35.8846V33.0098C48.9851 32.8896 48.9453 32.7728 48.872 32.6776C48.7986 32.5823 48.6958 32.514 48.5796 32.4833L42.246 30.7856C41.8494 30.6788 41.4338 30.6631 41.0303 30.7396C40.6268 30.8161 40.2458 30.9829 39.9159 31.2275L39.0383 31.875L37.6372 30.1804C37.2037 29.6541 36.6165 29.2764 35.9577 29.1001L21.0693 25.1117C20.5839 24.9818 20.075 24.9652 19.5821 25.0634C19.0892 25.1615 18.6255 25.3717 18.2268 25.6776C17.8281 25.9836 17.5051 26.3772 17.2828 26.8279C17.0605 27.2786 16.9448 27.7744 16.9448 28.277ZM22.3342 29.4511L34.5506 32.7254C35.2459 32.9136 35.8598 33.3257 36.2974 33.8978C36.735 34.47 36.9719 35.1704 36.9715 35.8907V36.6714C36.9716 36.7551 36.9524 36.8378 36.9154 36.9129C36.8784 36.988 36.8246 37.0535 36.7582 37.1045C36.6917 37.1554 36.6144 37.1903 36.5323 37.2065C36.4502 37.2228 36.3654 37.2198 36.2846 37.198L21.3568 33.1975C21.2409 33.1663 21.1384 33.0978 21.0651 33.0027C20.9918 32.9076 20.9518 32.791 20.9513 32.6709V30.5072C20.9515 30.3389 20.9904 30.173 21.0651 30.0221C21.1397 29.8713 21.2482 29.7397 21.3819 29.6376C21.5157 29.5354 21.6711 29.4655 21.8363 29.4331C22.0015 29.4008 22.1719 29.407 22.3342 29.4511Z" fill="#C85B0F"/>
<path d="M16.9448 68.3209L16.9448 79.6567C16.9446 79.7773 16.9843 79.8946 17.0576 79.9903C17.1309 80.0861 17.2338 80.155 17.3503 80.1863L48.2982 88.4778C48.3792 88.4996 48.4641 88.5025 48.5463 88.4862C48.6286 88.47 48.7061 88.4351 48.7727 88.3843C48.8394 88.3334 48.8935 88.2679 48.9308 88.1928C48.9682 88.1178 48.9878 88.0351 48.9882 87.9513V81.0427C48.9883 80.9221 48.9486 80.8048 48.8753 80.709C48.802 80.6133 48.6991 80.5444 48.5827 80.5131L41.3805 78.6127C41.2643 78.582 41.1615 78.5137 41.0882 78.4184C41.0148 78.3232 40.9751 78.2064 40.975 78.0862L40.975 72.9811C40.9755 72.2608 40.7386 71.5604 40.301 70.9883C39.8634 70.4161 39.2494 70.004 38.5542 69.8158L21.0754 65.1556C20.5895 65.0246 20.08 65.0072 19.5863 65.1048C19.0926 65.2024 18.6281 65.4124 18.2286 65.7185C17.8292 66.0246 17.5056 66.4186 17.283 66.8699C17.0603 67.3212 16.9446 67.8177 16.9448 68.3209ZM22.3343 69.5041L36.1605 73.196C36.3929 73.2581 36.5982 73.3954 36.7443 73.5865C36.8905 73.7775 36.9693 74.0115 36.9685 74.2521L36.9685 76.7063C36.9686 76.79 36.9494 76.8726 36.9124 76.9477C36.8754 77.0228 36.8216 77.0884 36.7552 77.1393C36.6887 77.1902 36.6114 77.2252 36.5293 77.2414C36.4471 77.2576 36.3624 77.2547 36.2816 77.2328L21.3538 73.2353C21.2376 73.2035 21.135 73.1346 21.0618 73.0389C20.9885 72.9433 20.9487 72.8262 20.9483 72.7058V70.5451C20.95 70.3776 20.9903 70.2126 21.0659 70.0631C21.1416 69.9136 21.2506 69.7835 21.3846 69.6829C21.5186 69.5823 21.6739 69.5138 21.8386 69.4828C22.0033 69.4518 22.1729 69.4591 22.3343 69.5041Z" fill="#C85B0F"/>
<path d="M54.1659 130.28L57.6308 131.209C57.7116 131.231 57.7964 131.233 57.8785 131.217C57.9607 131.201 58.038 131.166 58.1044 131.115C58.1709 131.064 58.2247 130.999 58.2617 130.924C58.2987 130.848 58.3179 130.766 58.3177 130.682L58.3177 35.6897C58.3179 35.5691 58.2782 35.4519 58.2049 35.3561C58.1316 35.2604 58.0287 35.1915 57.9122 35.1602L54.4474 34.2342C54.3665 34.2123 54.2818 34.2094 54.1996 34.2256C54.1175 34.2418 54.0402 34.2767 53.9738 34.3277C53.9073 34.3786 53.8535 34.4442 53.8165 34.5193C53.7795 34.5944 53.7603 34.677 53.7604 34.7607L53.7604 129.753C53.7605 129.873 53.8002 129.99 53.8736 130.085C53.9469 130.181 54.0497 130.249 54.1659 130.28Z" fill="#C85B0F"/>
</svg>
