<svg width="53" height="27" viewBox="0 0 53 27" fill="none" xmlns="http://www.w3.org/2000/svg">
<path d="M5.91038 24.8713C1.60874 17.2905 1.60874 9.70961 5.91038 2.12875M5.91038 2.12875L7.47461 7.00216M5.91038 2.12875L1.9998 3.75322" stroke="#0F540E" stroke-width="3" stroke-linecap="round" stroke-linejoin="round"/>
<path d="M13.0797 5.52751C13.98 3.72199 15.9629 2.83258 17.9722 3.33303L47.648 10.7244C49.6573 11.2248 51.2252 12.9986 51.5166 15.101C51.826 17.3336 51.4798 19.5551 50.5237 21.4725C49.6234 23.278 47.6405 24.1674 45.6312 23.667L15.9554 16.2756C13.9461 15.7752 12.3782 14.0014 12.0868 11.899C11.7774 9.66645 12.1236 7.44487 13.0797 5.52751Z" fill="#0F540E"/>
</svg>
