<svg width="68" height="27" viewBox="0 0 68 27" fill="none" xmlns="http://www.w3.org/2000/svg">
<path d="M7.02539 25.4045C1.52539 17.7379 1.52539 10.0712 7.02539 2.40454M7.02539 2.40454L9.02539 7.33311M7.02539 2.40454L2.02539 4.0474" stroke="black" stroke-width="3" stroke-linecap="round" stroke-linejoin="round"/>
<path d="M16.464 5.4097C17.4662 3.82004 19.3434 3.01109 21.1871 3.37432L61.65 11.3458C63.4938 11.709 64.9238 13.1695 65.2482 15.0205C65.6959 17.5753 65.1778 20.2053 63.7945 22.3995C62.7923 23.9891 60.9151 24.7981 59.0714 24.4348L18.6085 16.4634C16.7647 16.1002 15.3347 14.6397 15.0103 12.7887C14.5626 10.2338 15.0808 7.60382 16.464 5.4097Z" fill="black"/>
</svg>
