<?xml version="1.0" encoding="utf-8"?>
<!-- Generator: Adobe Illustrator 19.0.0, SVG Export Plug-In . SVG Version: 6.00 Build 0)  -->
<svg version="1.1" id="Layer_1" xmlns="http://www.w3.org/2000/svg" xmlns:xlink="http://www.w3.org/1999/xlink" x="0px" y="0px"
	 viewBox="0 0 512 512" style="enable-background:new 0 0 512 512;" xml:space="preserve">
<g id="XMLID_1_">
	<path id="XMLID_5_" d="M0,256c0,141.5,114.5,256,256,256s256-114.5,256-256S397.5,0,256,0S0,114.5,0,256z M355.6,202.9
		c9.3-9.3,24.2-9.3,33.5,0c4.7,4.7,6.5,11.2,6.5,16.8c0,5.6-2.8,12.1-7.4,16.8L273.7,351.9c-9.3,8.4-24.2,8.4-32.6-0.9L122.9,233.7
		c-9.3-9.3-9.3-24.2,0-33.5c9.3-9.3,24.2-9.3,33.5,0L256,300.7L355.6,202.9L355.6,202.9z"/>
</g>
</svg>
