<?xml version="1.0" encoding="UTF-8" standalone="no"?>
<!-- Created with Inkscape (http://www.inkscape.org/) -->

<svg
   version="1.1"
   id="svg59"
   width="2em"
   height="2em"
   viewBox="0 0 373 457.79935"
   xmlns:xlink="http://www.w3.org/1999/xlink"
   xmlns="http://www.w3.org/2000/svg"
   xmlns:svg="http://www.w3.org/2000/svg">
  <defs
     id="defs63" />
  <g
     id="g65"
     transform="translate(-69.5,-27.127445)">
    <path
       style="display:inline;fill:currentColor"
       d="M 105,483.56703 C 89.762998,479.32051 77.692974,468.01213 71.754378,452.41927 L 69.5,446.5 V 261 75.5 l 2.727597,-8 C 77.586076,51.783666 87.909715,39.978079 102.35484,33.048021 106.83468,30.898817 113.2,28.636565 116.5,28.020794 120.74294,27.229073 151.63799,26.988886 222,27.200605 L 321.5,27.5 l 5.62043,2.84882 c 4.58432,2.323644 15.30051,12.554991 58.13007,55.5 49.12599,49.25842 52.66234,53.03781 54.87956,58.65118 l 2.36994,6 v 143 143 l -3.05992,8.54417 c -5.49647,15.34768 -14.63255,26.13084 -28.16392,33.24137 -13.45333,7.06953 -4.29757,6.69309 -160.77616,6.61026 -109.80128,-0.0581 -141.9957,-0.35214 -145.5,-1.32877 z m 290.78019,-33.14478 c 5.58635,-2.7838 9.05383,-6.3311 12.51761,-12.80578 L 410.5,433.5 v -134 -134 L 371,165 c -38.19474,-0.48348 -39.65959,-0.57365 -44.3295,-2.72894 C 316.27713,157.47426 309.17786,149.4583 305.8482,138.7601 304.19123,133.43625 304,129.00262 304,95.910906 V 59 h -91.30366 -91.30365 l -5.17288,2.577752 c -5.58635,2.783799 -9.05383,6.331097 -12.51761,12.805778 L 101.5,78.5 l -0.26324,180.51124 -0.26324,180.51125 2.26324,4.48068 c 1.24478,2.46438 3.79229,5.49682 5.66112,6.73876 L 112.29577,453 H 251.45154 390.60731 Z M 146.59305,418.57169 c -10.44309,-4.3774 -17.67364,-11.82566 -21.55774,-22.20685 -1.99645,-5.33601 -2.1135,-7.2384 -1.83393,-29.80808 l 0.29862,-24.10829 3.24993,-6.59681 c 3.85328,-7.8215 10.13358,-13.96849 18.07492,-17.69125 5.35446,-2.51008 6.52276,-2.66041 20.67515,-2.66041 13.48074,0 15.49835,0.22983 19.92034,2.26912 10.6651,4.91844 18.17457,13.73878 21.02983,24.70087 2.18701,8.3965 2.18701,42.66352 0,51.06002 -2.85816,10.97322 -10.39689,19.8207 -21.02983,24.68069 -4.21663,1.92729 -6.92262,2.29098 -18.92034,2.54296 -13.00297,0.27309 -14.42067,0.1177 -19.90695,-2.18197 z m 28.37177,-31.50595 C 175.56284,385.94832 176,377.89682 176,368 c 0,-9.89682 -0.43716,-17.94832 -1.03518,-19.06574 -0.89527,-1.67282 -2.15228,-1.93426 -9.3,-1.93426 -5.09486,0 -8.72508,0.46026 -9.46482,1.2 -1.69158,1.69158 -1.69158,37.90842 0,39.6 0.73974,0.73974 4.36996,1.2 9.46482,1.2 7.14772,0 8.40473,-0.26144 9.3,-1.93426 z m 84.25336,32.27118 c -1.805,-0.88965 -4.28,-3.0169 -5.5,-4.72723 -2.16431,-3.03417 -2.22519,-3.88964 -2.507,-35.22379 l -0.28882,-32.11411 -5.53159,-0.57091 c -9.37862,-0.96796 -15.77539,-7.31274 -15.77539,-15.64719 0,-5.66669 2.64222,-10.63677 7.33657,-13.80029 C 240.06852,315.15314 241.36304,315 256,315 c 14.63696,0 15.93148,0.15314 19.04805,2.2534 1.8391,1.23937 4.26815,3.82687 5.39788,5.75 1.98292,3.37549 2.05407,4.93401 2.05407,44.9966 0,40.06259 -0.0711,41.62111 -2.05407,44.9966 -4.36343,7.4278 -13.49047,10.15387 -21.22775,6.34032 z m 74.93009,-0.28752 c -10.007,-3.68739 -18.35175,-11.98133 -22.38225,-22.24596 -1.7638,-4.49196 -2.15236,-8.136 -2.53945,-23.81572 -0.51583,-20.8953 0.48757,-29.83923 4.19857,-37.42424 3.27068,-6.68503 10.59716,-13.92979 17.53663,-17.34104 C 336.2671,315.61449 337.15181,315.5 352,315.5 c 14.84819,0 15.7329,0.11449 21.03823,2.72244 6.92338,3.40334 14.26417,10.65237 17.51429,17.29538 3.42737,7.0053 4.4359,14.39028 4.4359,32.48218 0,18.0919 -1.00853,25.47688 -4.4359,32.48218 -3.258,6.6591 -10.60619,13.90545 -17.51429,17.27155 -5.08757,2.47901 -6.67745,2.72176 -19.53823,2.98314 -11.92588,0.24239 -14.79287,-0.008 -19.35173,-1.68747 z M 361.4433,386.77749 C 362.70005,384.98323 363,381.36509 363,368 c 0,-21.06672 0.0349,-21 -11,-21 -11.03495,0 -11,-0.0667 -11,21 0,21.06672 -0.0349,21 11,21 7.01616,0 8.0584,-0.24529 9.4433,-2.22251 z m -189.52973,-104.702 c -4.63206,-1.45965 -7.77648,-4.16086 -9.86446,-8.47405 C 160.12067,269.61782 160,267.56886 160,238.80811 v -30.56045 l -5.54147,-0.45954 c -16.02319,-1.32877 -21.1095,-19.58286 -8.1352,-29.19617 2.59262,-1.921 4.1516,-2.09195 19.07784,-2.09195 16.10891,0 16.28615,0.0241 19.78595,2.69355 6.8415,5.21827 6.81288,5.00871 6.81288,49.89185 0,38.69937 -0.0814,40.45135 -2.07095,44.56117 -3.20798,6.6268 -11.46892,10.49186 -18.01548,8.42892 z M 243,281.63261 c -15.14304,-3.30331 -26.05665,-14.66839 -28.91054,-30.10648 -1.35076,-7.30695 -1.41877,-35.94441 -0.10442,-43.97077 2.00576,-12.24857 10.22877,-22.95332 21.79689,-28.3753 C 241.15984,176.65944 242.3626,176.5 256,176.5 c 13.6374,0 14.84016,0.15944 20.21807,2.68006 11.56812,5.42198 19.79113,16.12673 21.79689,28.3753 1.31435,8.02636 1.24634,36.66382 -0.10442,43.97077 -3.71417,20.09178 -19.54112,31.68749 -42.8442,31.39006 C 251.45485,282.8701 246.025,282.29249 243,281.63261 Z M 265,249 c 1.84566,-1.84566 2,-3.33333 2,-19.27749 C 267,207.83911 267.08147,208 256,208 c -11.08147,0 -11,-0.16089 -11,21.72251 0,21.14692 0.0675,21.27749 11,21.27749 5.66667,0 7.38095,-0.38095 9,-2 z m 92.6838,32.55119 c -2.0989,-0.74857 -4.73247,-2.19025 -5.85238,-3.20375 C 347.14675,274.10787 347,272.92942 347,239.54966 V 208 h -4.18428 c -13.40052,0 -21.60979,-13.50696 -14.85349,-24.43889 3.80231,-6.15227 8.12979,-7.51325 23.97205,-7.53915 15.66989,-0.0256 20.34671,1.47675 24.27801,7.79899 2.26128,3.63654 2.29135,4.11237 2.60278,41.17905 0.1733,20.625 0.0234,39.90259 -0.33308,42.83909 -0.78977,6.50556 -5.63835,12.55449 -11.33045,14.13551 -4.5293,1.25805 -4.78515,1.24661 -9.46774,-0.42341 z M 361.99265,107.49164 336.5,81.983276 336.23183,105.52342 c -0.17194,15.09261 0.10983,24.24645 0.78518,25.50836 1.00405,1.8761 2.20981,1.96822 25.76082,1.96822 h 24.70746 z"
       id="path177" />
  </g>
</svg>
