<svg width="2em" height="2em" viewBox="0 0 25 25" fill="none" xmlns="http://www.w3.org/2000/svg">
<path d="M22.2266 16.1956L19.1177 14.1344V7.46458L22.2266 5.40338C23.7475 4.39921 25 5.01228 25 6.77751V14.832C25 16.5973 23.7475 17.2103 22.2266 16.1956Z" fill="currentColor"/>
<path fill-rule="evenodd" clip-rule="evenodd" d="M6.93103 22.5679H15.128C19.2135 22.5679 20.5883 21.2842 20.5883 17.4208V7.1267C20.5883 3.26335 19.2265 1.97964 15.128 1.97964H6.93103C2.83254 1.97964 1.4707 3.26335 1.4707 7.1267V17.4208C1.4707 20.0005 2.83254 22.5679 6.93103 22.5679ZM7.35306 10.8032C8.97742 10.8032 10.2942 9.48636 10.2942 7.862C10.2942 6.23763 8.97742 4.92082 7.35306 4.92082C5.72869 4.92082 4.41188 6.23763 4.41188 7.862C4.41188 9.48636 5.72869 10.8032 7.35306 10.8032Z" fill="currentColor"/>
</svg>
