<svg width="2em" height="2em" viewBox="0 0 19 20" fill="none" xmlns="http://www.w3.org/2000/svg">
<path d="M7.75833 9.29169H5.55C5.025 9.29169 4.6 9.71669 4.6 10.2417V14.5084H7.75833V9.29169Z" stroke="currentColor" stroke-width="1.5" stroke-linecap="round" stroke-linejoin="round"/>
<path d="M9.9675 5.50002H8.70083C8.17583 5.50002 7.75083 5.92502 7.75083 6.45002V14.5H10.9092V6.45002C10.9092 5.92502 10.4925 5.50002 9.9675 5.50002ZM13.1233 10.7084H10.915V14.5H14.0733V11.6584C14.065 11.1334 13.64 10.7084 13.1233 10.7084Z" stroke="currentColor" stroke-width="1.5" stroke-linecap="round" stroke-linejoin="round"/>
<path d="M6.83333 18.3334H11.8333C16 18.3334 17.6667 16.6667 17.6667 12.5V7.50002C17.6667 3.33335 16 1.66669 11.8333 1.66669H6.83333C2.66667 1.66669 1 3.33335 1 7.50002V12.5C1 16.6667 2.66667 18.3334 6.83333 18.3334Z" stroke="currentColor" stroke-width="1.5" stroke-linecap="round" stroke-linejoin="round"/>
</svg>
