<svg width="2em" height="2em" viewBox="0 0 12 14" fill="none" xmlns="http://www.w3.org/2000/svg">
<g clip-path="url(#clip0_451_2054)">
<path d="M11.9241 4.31812V8.80687C11.9241 9.54187 11.5303 10.2244 10.8938 10.5984L6.99563 12.8494C6.35907 13.2169 5.57157 13.2169 4.92844 12.8494L1.03031 10.5984C0.716479 10.4165 0.456053 10.1551 0.2752 9.84065C0.0943477 9.52618 -0.000563022 9.16965 2.51262e-06 8.80687V4.31812C2.51262e-06 3.58312 0.393752 2.90062 1.03031 2.52656L4.92844 0.275625C5.565 -0.091875 6.3525 -0.091875 6.99563 0.275625L10.8938 2.52656C11.5303 2.90062 11.9241 3.57656 11.9241 4.31812Z" fill="currentColor"/>
<path d="M5.96533 9.31885V9.38447" stroke="white" stroke-width="1.3" stroke-linecap="round" stroke-linejoin="round"/>
<path d="M5.96533 3.77344C5.96533 3.77344 5.96533 5.87327 5.96533 7.21875" stroke="white" stroke-linecap="round" stroke-linejoin="round"/>
</g>
<defs>
<clipPath id="clip0_451_2054">
<rect width="12" height="13.5" fill="white"/>
</clipPath>
</defs>
</svg>
