<svg width="2em" height="2em" viewBox="0 0 39 28" fill="none" xmlns="http://www.w3.org/2000/svg">
<path d="M4 26C4 25.4477 4.44772 25 5 25H34C34.5523 25 35 25.4477 35 26V26.0714C35 26.6237 34.5523 27.0714 34 27.0714H5C4.44772 27.0714 4 26.6237 4 26.0714V26Z" fill="currentColor"/>
<path d="M9 21H11V22.5C11 22.7761 10.7761 23 10.5 23H9.5C9.22386 23 9 22.7761 9 22.5V21Z" fill="currentColor"/>
<path d="M9.58266 16.6325C9.78028 16.333 10.2197 16.333 10.4173 16.6325L12.9525 20.4746C13.1718 20.8071 12.9334 21.25 12.5352 21.25H7.46485C7.06657 21.25 6.82816 20.8071 7.04751 20.4746L9.58266 16.6325Z" fill="currentColor"/>
<path d="M28 21H30V22.5C30 22.7761 29.7761 23 29.5 23H28.5C28.2239 23 28 22.7761 28 22.5V21Z" fill="currentColor"/>
<path d="M28.5827 16.6325C28.7803 16.333 29.2197 16.333 29.4173 16.6325L31.9525 20.4746C32.1718 20.8071 31.9334 21.25 31.5352 21.25H26.4648C26.0666 21.25 25.8282 20.8071 26.0475 20.4746L28.5827 16.6325Z" fill="currentColor"/>
<rect width="39" height="15" rx="7.5" fill="currentColor"/>
</svg>
