<svg width="3em" height="3em" viewBox="0 0 36 36" fill="none" xmlns="http://www.w3.org/2000/svg">
<path fill-rule="evenodd" clip-rule="evenodd" d="M6.78462 14.5897C7.08602 14.7154 7.2957 14.9944 7.33252 15.3189L7.55145 17.248C7.6075 17.7419 7.25256 18.1877 6.75868 18.2438C6.26981 18.2992 5.82804 17.952 5.76476 17.466C4.44298 19.4685 4.44845 22.1948 5.97202 24.2215C6.27069 24.6188 6.19073 25.1831 5.79341 25.4817C5.3961 25.7804 4.83189 25.7004 4.53321 25.3031C2.04883 21.9982 2.64402 17.2662 5.88098 14.7137C6.1374 14.5115 6.48322 14.464 6.78462 14.5897Z" fill="currentColor"/>
<path d="M13.1549 18.1947C13.4208 17.6 14.117 17.3341 14.7099 17.6009L16.8568 18.567C17.4497 18.8338 17.7147 19.5322 17.4488 20.1269L16.9672 21.2037C16.7013 21.7985 16.0051 22.0643 15.4122 21.7975L13.2653 20.8314C12.6724 20.5647 12.4074 19.8663 12.6733 19.2715L13.1549 18.1947Z" fill="currentColor"/>
<path d="M22.2636 22.2935C22.5295 21.6988 23.2257 21.4329 23.8186 21.6997L25.9655 22.6658C26.5584 22.9326 26.8234 23.631 26.5575 24.2257L26.076 25.3025C25.81 25.8973 25.1138 26.1631 24.5209 25.8963L22.374 24.9302C21.7811 24.6635 21.5161 23.9651 21.7821 23.3703L22.2636 22.2935Z" fill="currentColor"/>
<path d="M10.8838 12.3315C12.1541 9.49077 15.4796 8.2209 18.3114 9.4952L30.069 14.7859C32.9009 16.0602 34.1668 19.3962 32.8965 22.2369C31.6262 25.0777 28.3007 26.3476 25.4689 25.0733L13.7112 19.7825C10.8794 18.5082 9.61348 15.1723 10.8838 12.3315Z" fill="currentColor"/>
</svg>
