<svg width="3em" height="3em" viewBox="0 0 38 40" fill="none" xmlns="http://www.w3.org/2000/svg">
<path d="M16.3468 7.71331C14.8947 8.07691 13.3885 8.63716 11.8794 9.51118C5.05988 13.4607 2.72074 21.939 6.65247 28.456C10.5924 34.9868 19.3011 37.0666 26.1206 33.117C32.9401 29.1676 35.2792 20.6894 31.3475 14.1722M11.4696 4.88324L18.639 6.38577L15.5306 13.1431" stroke="#E6F0FF" stroke-width="9" stroke-linecap="round" stroke-linejoin="round"/>
<path d="M16.3468 7.71331C14.8947 8.07691 13.3885 8.63716 11.8794 9.51118C5.05988 13.4607 2.72074 21.939 6.65247 28.456C10.5924 34.9868 19.3011 37.0666 26.1206 33.117C32.9401 29.1676 35.2792 20.6894 31.3475 14.1722M11.4696 4.88324L18.639 6.38577L15.5306 13.1431" stroke="#2D74FF" stroke-width="4" stroke-linecap="round" stroke-linejoin="round"/>
</svg>
