<svg width="3em" height="3em" viewBox="0 0 48 48" fill="none" xmlns="http://www.w3.org/2000/svg">
<path d="M13.2797 0.825068C13.7637 0.341103 14.4201 0.069214 15.1045 0.069214L32.718 0.0692139C33.4025 0.0692139 34.0589 0.341102 34.5428 0.825067L46.9975 13.2797C47.4814 13.7637 47.7533 14.4201 47.7533 15.1045V32.718C47.7533 33.4025 47.4814 34.0589 46.9975 34.5428L34.5428 46.9975C34.0589 47.4814 33.4025 47.7533 32.718 47.7533H15.1045C14.4201 47.7533 13.7637 47.4814 13.2797 46.9975L0.825068 34.5428C0.341103 34.0589 0.069214 33.4025 0.069214 32.718L0.0692139 15.1045C0.0692139 14.4201 0.341102 13.7637 0.825067 13.2797L13.2797 0.825068Z" fill="currentColor"/>
<rect x="7.62134" y="18.9762" width="33.0323" height="10.3226" fill="white"/>
</svg>
