<svg width="3em" height="3em" viewBox="0 0 43 42" fill="none" xmlns="http://www.w3.org/2000/svg">
<path d="M28.0385 1.55194L14.8283 1.55194C13.9172 1.55194 13.0434 1.91389 12.3991 2.55817L3.05811 11.8992C2.41383 12.5434 2.05188 13.4173 2.05188 14.3284L2.05188 27.5386C2.05188 28.4497 2.41383 29.3235 3.05811 29.9678L12.3991 39.3088C13.0434 39.9531 13.9172 40.315 14.8283 40.315H28.0385C28.9496 40.315 29.8235 39.9531 30.4677 39.3088L39.8087 29.9678C40.453 29.3235 40.815 28.4497 40.815 27.5386V14.3284C40.815 13.4173 40.453 12.5434 39.8087 11.8992L30.4677 2.55817C29.8235 1.91389 28.9496 1.55194 28.0385 1.55194Z" fill="#FF2424" stroke="#FFEEEE" stroke-width="3"/>
<rect x="9.21594" y="17.2321" width="24.7742" height="7.74194" fill="white"/>
</svg>
