<?xml version="1.0" encoding="UTF-8" standalone="no"?>
<svg
   id="Logo_Hyperloop_UPV"
   data-name="Logo Hyperloop UPV"
   viewBox="0 0 213.89314 276.15957"
   version="1.1"
   sodipodi:docname="Logo Hyperloop UPV-16.svg"
   inkscape:export-filename="teamLogo.svg"
   inkscape:export-xdpi="96"
   inkscape:export-ydpi="96"
   width="1em"
   height="1em"
   fill="currentColor"
   xmlns:inkscape="http://www.inkscape.org/namespaces/inkscape"
   xmlns:sodipodi="http://sodipodi.sourceforge.net/DTD/sodipodi-0.dtd"
   xmlns="http://www.w3.org/2000/svg"
   xmlns:svg="http://www.w3.org/2000/svg">
  <sodipodi:namedview
     id="namedview22"
     pagecolor="#505050"
     bordercolor="#eeeeee"
     borderopacity="1"
     inkscape:showpageshadow="0"
     inkscape:pageopacity="0"
     inkscape:pagecheckerboard="0"
     inkscape:deskcolor="#505050"
     showgrid="false" />
  <path
     d="m 118.14315,86.73957 q 0,-15.08 0,-30.13 0,-10.59 0,-21.18 v -13.72 c 0,-2.57 0,-5.14 0,-7.71 0,-3.23 -0.06,-6.4499995 -1.41,-9.4399995 a 7.35,7.35 0 0 0 -10.23,-3.71000001 19.93,19.93 0 0 0 -4.48,3.53000001 C 95.563148,10.59957 89.423148,17.16957 83.133148,23.56957 c -2.05,2.1 -4.36,4 -4.93,7.2 l -0.44,79.86 h -27.38 c -9,0.67 -9.47,-7.61 -9.47,-7.61 v -13.66 c -0.8,-9.17 -8.22,-10.84 -8.22,-10.84 -5.13,-1.24 -7,1.45 -7,1.45 l -21.7499997,21.25 c -4.57,3.8 -3.91,10.85 -3.91,10.85 l 0.08,39 c -0.65,7.33 3.27,10.86 3.27,10.86 l 17.0499997,16.59 c 7,7.61 13.5,6.74 13.5,6.74 8.4,-0.5 7.7,-7.86 7.7,-7.86 v -16.55 c 0.44,-7.59 6.42,-8.79 8.7,-9 h 27.2 l -0.35,64 c 16.88,-16.89 22.820002,-22.87 40.950002,-41 0,-17.47 0,-30.07 0,-47.54 q 0.02,-20.31 0.01,-40.57 z"
     id="path17"
     inkscape:export-filename="teamLogo.svg"
     inkscape:export-xdpi="96"
     inkscape:export-ydpi="96" />
  <path
     d="m 211.05315,157.05957 c 0,0 6.39,-7.18 0,-13.59 0,0 -3.39,-3.45 -7.59,-3.25 h -29.4 a 10.58,10.58 0 0 0 -7.48,3.1 l -14.39,14.35 v 0 l -56.610002,56.6 v 0 l -14.55,14.58 a 10.58,10.58 0 0 0 -3.1,7.48 v 29.4 c -0.2,4.2 3.25,7.59 3.25,7.59 6.41,6.39 13.59,0 13.59,0 0,0 7.490002,-7.46 30.000002,-29.93 v 0 l 56.55,-56.54 v 0 c 22.32,-22.35 29.73,-29.79 29.73,-29.79 z"
     id="path19" />
</svg>
