<svg width="2em" height="2em" viewBox="0 0 26 25" fill="none" xmlns="http://www.w3.org/2000/svg">
<path d="M23.1538 12.5C23.1538 14.768 22.5141 16.7344 21.5831 18.0791C20.6467 19.4317 19.5513 20 18.5769 20C17.6026 20 16.5071 19.4317 15.5707 18.0791C14.6398 16.7344 14 14.768 14 12.5C14 10.232 14.6398 8.26563 15.5707 6.92091C16.5071 5.56835 17.6026 5 18.5769 5C19.5513 5 20.6467 5.56835 21.5831 6.92091C22.5141 8.26563 23.1538 10.232 23.1538 12.5Z" fill="currentColor" stroke="currentColor" stroke-width="4"/>
<path d="M6.32227 4.65216H19.3944V20.3478H6.32227L11.5 17.5V12.5L11 7L6.32227 4.65216Z" fill="currentColor"/>
<path d="M12.5934 12.5C12.5934 14.834 11.8897 16.8882 10.8247 18.3239C9.75964 19.7598 8.40742 20.5 7.0467 20.5C5.68598 20.5 4.33376 19.7598 3.26868 18.3239C2.20372 16.8882 1.5 14.834 1.5 12.5C1.5 10.166 2.20372 8.11184 3.26868 6.67612C4.33376 5.24023 5.68598 4.5 7.0467 4.5C8.40742 4.5 9.75964 5.24023 10.8247 6.67612C11.8897 8.11184 12.5934 10.166 12.5934 12.5Z" stroke="currentColor" stroke-width="3"/>
</svg>
