<svg width="2em" height="2em" viewBox="0 0 25 25" fill="none" xmlns="http://www.w3.org/2000/svg">
<path d="M12.5 19.9308C10.4486 19.9308 8.58992 19.0998 7.24601 17.754C5.90209 16.4101 5.06917 14.5514 5.06917 12.5C5.06917 10.4486 5.90022 8.58992 7.24601 7.246C8.58992 5.90209 10.4486 5.06916 12.5 5.06917C14.5514 5.06917 16.4101 5.90022 17.754 7.246C19.0979 8.58992 19.9308 10.4486 19.9308 12.5C19.9308 14.5514 19.0998 16.4101 17.754 17.754C16.4101 19.0979 14.5514 19.9308 12.5 19.9308ZM12.5 24C9.32365 24 6.44864 22.7122 4.36914 20.6309C2.28776 18.5495 0.999995 15.6745 0.999995 12.5C0.999996 9.32364 2.28776 6.44864 4.36914 4.36913C6.45052 2.28775 9.32552 0.999989 12.5 0.999989C15.6764 0.99999 18.5514 2.28775 20.6309 4.36913C22.7122 6.44864 24 9.32364 24 12.5C24 15.6763 22.7122 18.5513 20.6309 20.6309C18.5513 22.7122 15.6763 24 12.5 24ZM6.5048 18.4952C8.03963 20.03 10.1584 20.979 12.5 20.979C14.8416 20.979 16.9604 20.03 18.4952 18.4952C20.03 16.9604 20.979 14.8415 20.979 12.5C20.979 10.1584 20.03 8.03962 18.4952 6.50479C16.9604 4.96996 14.8416 4.02099 12.5 4.02099C10.1584 4.02099 8.03963 4.96996 6.5048 6.50479C4.96997 8.03962 4.02099 10.1584 4.02099 12.5C4.02099 14.8415 4.96997 16.9604 6.5048 18.4952ZM11.7494 13.3741C11.9403 13.565 12.2043 13.6829 12.5 13.6829C12.7939 13.6829 13.0596 13.565 13.2506 13.3741L13.2524 13.3722C13.4434 13.1813 13.5613 12.9174 13.5613 12.6217C13.5613 12.3278 13.4434 12.062 13.2524 11.8711L13.2506 11.8692C13.0596 11.6783 12.7957 11.5604 12.5 11.5604C12.2061 11.5604 11.9403 11.6783 11.7494 11.8692L11.7476 11.8711C11.5566 12.062 11.4387 12.3278 11.4387 12.6217C11.4406 12.9174 11.5585 13.1813 11.7494 13.3741ZM11.8224 14.4934C11.5473 14.3923 11.2983 14.2332 11.0943 14.0292C11.0251 13.96 10.9596 13.8851 10.9015 13.8046L10.8828 13.8102L6.9484 14.864C7.25349 15.5809 7.69336 16.2266 8.23616 16.7676C9.17765 17.7091 10.4298 18.3417 11.8243 18.4971L11.8243 14.5439C11.8206 14.5271 11.8206 14.5102 11.8224 14.4934ZM10.5159 12.4644C10.5422 12.1406 10.6451 11.8374 10.8098 11.5735C10.8005 11.5622 10.793 11.5491 10.7855 11.536L8.52628 7.9554C8.42521 8.04337 8.32788 8.13508 8.23242 8.23054C7.14119 9.32177 6.46549 10.8323 6.46549 12.4981C6.46549 12.8481 6.49544 13.1907 6.55346 13.5257L10.5159 12.4644ZM11.9141 10.72C12.0994 10.6619 12.296 10.632 12.5 10.632C12.6834 10.632 12.8612 10.6563 13.0316 10.7031L15.2365 7.11873C14.4148 6.69945 13.4845 6.46361 12.5 6.46361C11.478 6.46361 10.5159 6.71817 9.67179 7.16552L11.9141 10.72ZM14.1602 11.5267C14.3324 11.785 14.4447 12.0863 14.4784 12.4083L14.4803 12.4083L18.4278 13.6436C18.4989 13.273 18.5364 12.8912 18.5364 12.5C18.5364 10.8341 17.8607 9.32364 16.7694 8.23241C16.6515 8.11449 16.528 8.00032 16.3988 7.89176L14.1902 11.4836C14.179 11.4967 14.1696 11.5117 14.1602 11.5267ZM14.1322 13.7578C14.0648 13.8533 13.9899 13.945 13.9057 14.0273C13.7091 14.222 13.4733 14.3774 13.2113 14.4784C13.2131 14.499 13.215 14.5215 13.215 14.5421L13.215 18.4915C14.5964 18.3286 15.8354 17.6997 16.7676 16.7657C17.2823 16.251 17.7053 15.6427 18.0085 14.9688L14.1322 13.7578Z" fill="currentColor"/>
</svg>
